<svg xmlns="http://www.w3.org/2000/svg" viewBox="0 0 500 500"><g id="freepik--Plant--inject-690"><path d="M415,392.52s9.19-33,16.53-44.2,21-23.51,21-23.51S452.24,375.68,415,392.52Z" style="fill:#F43F5E"></path><path d="M415.66,392A158.71,158.71,0,0,0,424,376a112.7,112.7,0,0,1,4.56-17.35c0-.11.19-.05.17.06-1.22,5.21-2.64,10.38-3.93,15.57,3.71-8,7.24-16.16,11.66-23.75a50.43,50.43,0,0,1,4.26-10.56c0-.09.21,0,.16.06a68.25,68.25,0,0,0-2.87,7.92,79.59,79.59,0,0,1,7-9.65c.17-.18.49,0,.33.23-5.91,7.54-10,16.12-13.87,24.81A133.17,133.17,0,0,0,443,348.89a0,0,0,0,1,.08.05,117.76,117.76,0,0,1-12.35,16c-2.83,6.36-5.61,12.75-9,18.81,6.74-5.7,11.92-13.07,17.05-20.18a.16.16,0,0,1,.26.17c-5.14,7.8-10.45,15.15-17.84,20.93a83.17,83.17,0,0,1-4.93,7.71A.39.39,0,0,1,415.66,392Z" style="fill:#263238"></path><path d="M413.25,392.57s16.53-30.42,11.73-59.92-9.94-40-9.94-40S389.07,338.53,413.25,392.57Z" style="fill:#F43F5E"></path><path d="M406.47,344.74a144,144,0,0,0,6.38,24.57c0-10.83.25-21.65.54-32.48a83.78,83.78,0,0,1-3.12-20.16c0-.2.29-.18.31,0A115.27,115.27,0,0,0,413.47,334q.38-13.39.88-26.79c0-.15.23-.14.23,0,0,13.95,0,27.9-.1,41.85a112,112,0,0,0,4.77-16.58,0,0,0,0,1,.09,0c-.49,6.51-2.47,12.81-4.87,18.86-.07,8.91-.16,17.83-.36,26.74,2.79-9.48,5.78-18.66,6.59-28.67a.11.11,0,0,1,.21,0c-.22,11-3.07,22.26-6.71,32.65a.57.57,0,0,1-.19.26q-.12,4.89-.28,9.77a.37.37,0,0,1-.73,0c-.13-6.66-.17-13.33-.16-20a89.41,89.41,0,0,1-6.51-27.38C406.32,344.68,406.46,344.66,406.47,344.74Z" style="fill:#263238"></path><path d="M407.6,340a55.89,55.89,0,0,1,1.16,8,.08.08,0,0,1-.16,0,57,57,0,0,1-1.36-8C407.22,339.87,407.56,339.83,407.6,340Z" style="fill:#263238"></path><path d="M417.26,317.8c0-.09.16-.06.16,0a20.89,20.89,0,0,1-.83,5.55c0,.14-.25.07-.22-.07C416.73,321.47,417,319.63,417.26,317.8Z" style="fill:#263238"></path><path d="M407.22,392.57s.67-31.76-8.44-47.54-24.22-23.83-24.22-23.83S380.65,377.18,407.22,392.57Z" style="fill:#F43F5E"></path><path d="M390.61,365.41A118.7,118.7,0,0,0,402.94,381q-2.73-9.75-6.3-19.16c-5.11-4.47-10.18-9.11-13.31-15.24a.09.09,0,0,1,.15-.09c3.37,5.43,7.87,9.77,12.61,13.95a244.56,244.56,0,0,0-12.68-27.62.2.2,0,0,1,.35-.2,148.67,148.67,0,0,1,7.95,14.49c-.85-3.39-1.53-6.86-2.41-10.23a.08.08,0,0,1,.15,0,57.83,57.83,0,0,1,3.74,13.47,162.08,162.08,0,0,1,8,21.73c-.24-4.76-.54-9.5-1-14.25,0-.09.14-.11.16,0a76.63,76.63,0,0,1,1.38,16q2,7.11,3.31,14.35c0,.13-.17.19-.2.05-.5-2-1-4-1.58-6,0,0-.08,0-.11-.05-4.88-4.89-9.52-10.47-12.58-16.71C390.55,365.41,390.59,365.38,390.61,365.41Z" style="fill:#263238"></path><path d="M380.06,339.57c1,1.1,1.94,2.25,2.93,3.38a27.14,27.14,0,0,1,2.62,3.06.05.05,0,0,1-.07.07,15.06,15.06,0,0,1-3-3,25.37,25.37,0,0,1-2.6-3.41C379.86,339.59,380,339.49,380.06,339.57Z" style="fill:#263238"></path><path d="M433.19,394.89l-1.15,15-3.46,45.48H398.4l-3.46-45.48-1.15-15h39.4Z" style="fill:#37474f"></path><path d="M433.19,394.89l-.7,9.15-37.88,1.52-.82-10.67h39.4Z" style="fill:#263238"></path><rect x="391.11" y="387.51" width="44.76" height="11.53" transform="translate(826.98 786.55) rotate(180)" style="fill:#37474f"></rect></g><g id="freepik--Floor--inject-690"><path d="M47.44,455.41c129.77-.62,275.35-.62,405.12,0-129.77.61-275.35.61-405.12,0Z" style="fill:#263238"></path></g><g id="freepik--Screen--inject-690"><rect x="106.66" y="57.56" width="286.68" height="219.45" style="fill:#fff"></rect><path d="M393.33,277c0,.08-286.75.09-286.81.15s0-219.55-.09-219.6v-.23h.23s286.73.17,286.77.13-.15,219.48-.1,219.55Zm0,0s-.21-219.87,0-219.35l-286.67.13.23-.23s.06,220-.23,219.31l286.67.14Z" style="fill:#263238"></path><rect x="106.66" y="57.56" width="286.68" height="8.34" style="fill:#263238"></rect><path d="M114.7,61.73A1.68,1.68,0,1,1,113,60.05,1.68,1.68,0,0,1,114.7,61.73Z" style="fill:#F43F5E"></path><path d="M121.56,61.73a1.68,1.68,0,1,1-1.68-1.68A1.68,1.68,0,0,1,121.56,61.73Z" style="fill:#fff"></path><path d="M128.41,61.73a1.68,1.68,0,1,1-1.68-1.68A1.68,1.68,0,0,1,128.41,61.73Z" style="fill:#455a64"></path><path d="M106.66,83.22c91.83-.57,194.84-.57,286.67,0-91.83.57-194.84.57-286.67,0Z" style="fill:#dbdbdb"></path><path d="M106.66,100.54c91.83-.57,194.84-.57,286.67,0-91.83.57-194.84.57-286.67,0Z" style="fill:#dbdbdb"></path><path d="M119.34,73h-1.18v4a.41.41,0,0,1-.41.41.41.41,0,0,1-.41-.41V73h-1.17a.42.42,0,0,1-.41-.42.41.41,0,0,1,.41-.41h3.17a.41.41,0,0,1,.41.41A.43.43,0,0,1,119.34,73Z" style="fill:#263238"></path><path d="M120.23,76.85a1.89,1.89,0,0,1-.51-1.31,2,2,0,0,1,.51-1.3,1.75,1.75,0,0,1,1.28-.56,1.66,1.66,0,0,1,1.25.56,1.89,1.89,0,0,1,.52,1.3,1.81,1.81,0,0,1-.52,1.31,1.67,1.67,0,0,1-1.25.57A1.76,1.76,0,0,1,120.23,76.85Zm.3-1.31a1.22,1.22,0,0,0,.27.79,1,1,0,0,0,.71.28,1,1,0,0,0,.69-.28,1.18,1.18,0,0,0,.29-.79,1.15,1.15,0,0,0-.29-.77,1,1,0,0,0-1.4,0A1.18,1.18,0,0,0,120.53,75.54Z" style="fill:#263238"></path><path d="M125.05,73.38a.56.56,0,1,1,0,1.11.56.56,0,0,1,0-1.11Zm0,3a.56.56,0,1,1,0,1.11.56.56,0,0,1,0-1.11Z" style="fill:#263238"></path><path d="M350.36,74.72A2.73,2.73,0,0,1,353.09,72a2.78,2.78,0,0,1,1.71.58.43.43,0,0,1-.52.68,1.81,1.81,0,0,0-1.19-.41,2,2,0,0,0-1.34.53,1.84,1.84,0,0,0-.55,1.3,1.78,1.78,0,0,0,.55,1.29,2,2,0,0,0,1.34.54,1.83,1.83,0,0,0,1.19-.41.43.43,0,0,1,.52.68,2.78,2.78,0,0,1-1.71.58A2.72,2.72,0,0,1,350.36,74.72Z" style="fill:#263238"></path><path d="M355.91,75.54a1.89,1.89,0,0,1,1.89-1.86,1.94,1.94,0,0,1,1.18.41.41.41,0,0,1,.08.55.4.4,0,0,1-.56.07,1.18,1.18,0,0,0-.7-.24,1.07,1.07,0,1,0,0,2.14,1.21,1.21,0,0,0,.7-.24.4.4,0,0,1,.56.08A.41.41,0,0,1,359,77a2.07,2.07,0,0,1-1.18.4A1.89,1.89,0,0,1,355.91,75.54Z" style="fill:#263238"></path><path d="M367.55,74.72A2.74,2.74,0,0,1,370.28,72a2.81,2.81,0,0,1,1.72.58.43.43,0,0,1-.52.68,1.86,1.86,0,0,0-1.2-.41,2,2,0,0,0-1.34.53,1.87,1.87,0,0,0-.54,1.3,1.81,1.81,0,0,0,.54,1.29,2,2,0,0,0,1.34.54,1.86,1.86,0,0,0,1.2-.41.43.43,0,0,1,.52.68,2.81,2.81,0,0,1-1.72.58A2.73,2.73,0,0,1,367.55,74.72Z" style="fill:#263238"></path><path d="M373.14,74.72A2.74,2.74,0,0,1,375.87,72a2.83,2.83,0,0,1,1.72.58.43.43,0,0,1-.52.68,1.86,1.86,0,0,0-1.2-.41,2,2,0,0,0-1.34.53,1.87,1.87,0,0,0-.54,1.3,1.81,1.81,0,0,0,.54,1.29,2,2,0,0,0,1.34.54,1.88,1.88,0,0,0,1.2-.41.43.43,0,0,1,.52.68,2.83,2.83,0,0,1-1.72.58A2.72,2.72,0,0,1,373.14,74.72Z" style="fill:#263238"></path><path d="M383.06,72.84a2.73,2.73,0,0,1,0,3.76,2.45,2.45,0,0,1-1.77.8,2.55,2.55,0,0,1-1.83-.8,2.79,2.79,0,0,1,0-3.76,2.51,2.51,0,0,1,1.83-.8A2.41,2.41,0,0,1,383.06,72.84ZM383,74.72a1.88,1.88,0,0,0-.51-1.3,1.58,1.58,0,0,0-1.17-.53,1.6,1.6,0,0,0-1.21.53,1.93,1.93,0,0,0,0,2.59,1.61,1.61,0,0,0,1.21.54,1.59,1.59,0,0,0,1.17-.54A1.87,1.87,0,0,0,383,74.72Z" style="fill:#263238"></path><path d="M116,92.65a.39.39,0,0,1,.55-.05,2.37,2.37,0,0,0,1.42.57,1.58,1.58,0,0,0,.93-.28.66.66,0,0,0,.32-.53.48.48,0,0,0-.07-.24.65.65,0,0,0-.22-.22,3,3,0,0,0-1-.35h0a4.49,4.49,0,0,1-1-.29,1.62,1.62,0,0,1-.69-.58,1.17,1.17,0,0,1-.17-.61,1.37,1.37,0,0,1,.6-1.09,2.2,2.2,0,0,1,1.28-.39,2.93,2.93,0,0,1,1.62.59.39.39,0,0,1,.11.53.37.37,0,0,1-.53.11,2.16,2.16,0,0,0-1.2-.47,1.41,1.41,0,0,0-.83.25.59.59,0,0,0-.28.47.35.35,0,0,0,0,.21.74.74,0,0,0,.2.19,2.74,2.74,0,0,0,.93.33h0a4.29,4.29,0,0,1,1,.31,1.67,1.67,0,0,1,.74.62,1.13,1.13,0,0,1,.18.63,1.44,1.44,0,0,1-.64,1.15,2.28,2.28,0,0,1-1.37.43,3.21,3.21,0,0,1-1.91-.75A.4.4,0,0,1,116,92.65Z" style="fill:#263238"></path><path d="M122.51,93.94A1.56,1.56,0,0,1,121,92.4V90.62a.4.4,0,0,1,.4-.39.39.39,0,0,1,.39.39V92.4a.75.75,0,0,0,.76.75.77.77,0,0,0,.78-.75V90.62a.39.39,0,0,1,.39-.39.41.41,0,0,1,.4.39V92.4A1.57,1.57,0,0,1,122.51,93.94Z" style="fill:#263238"></path><path d="M125.6,92.09h0V89.14a.41.41,0,0,1,.81,0v1.4a1.7,1.7,0,0,1,1-.31,1.86,1.86,0,0,1,0,3.71,1.79,1.79,0,0,1-1-.32.39.39,0,0,1-.39.32.4.4,0,0,1-.4-.4Zm.81,0a1.05,1.05,0,0,0,.3.74.94.94,0,0,0,.7.3,1,1,0,0,0,.69-.3,1.05,1.05,0,0,0,.3-.74,1,1,0,0,0-.3-.75,1,1,0,0,0-.69-.3.94.94,0,0,0-.7.3A1,1,0,0,0,126.41,92.09Z" style="fill:#263238"></path><path d="M129.78,94.85a.39.39,0,0,1,.41-.39V90.63a.39.39,0,0,1,.4-.4.39.39,0,0,1,.4.4v3.83a.8.8,0,0,1-.8.8A.39.39,0,0,1,129.78,94.85Zm.42-5.55v-.15a.41.41,0,0,1,.81,0v.15a.41.41,0,1,1-.81,0Z" style="fill:#263238"></path><path d="M132.1,92.08a1.84,1.84,0,0,1,1.82-1.85A1.78,1.78,0,0,1,135.71,92v0s0,.05,0,.06a.36.36,0,0,1-.39.3H133a1,1,0,0,0,.25.49,1.19,1.19,0,0,0,.72.34,1.25,1.25,0,0,0,.77-.19.43.43,0,0,1,.56,0,.34.34,0,0,1,0,.48,1.87,1.87,0,0,1-1.33.49A1.84,1.84,0,0,1,132.1,92.08Zm.81-.36H135a1.23,1.23,0,0,0-1.1-.79A1,1,0,0,0,132.91,91.72Z" style="fill:#263238"></path><path d="M136.63,92.09a1.88,1.88,0,0,1,1.89-1.86,2,2,0,0,1,1.18.4.41.41,0,0,1,.08.55.39.39,0,0,1-.55.08,1.21,1.21,0,0,0-.71-.24,1.07,1.07,0,1,0,0,2.13,1.23,1.23,0,0,0,.71-.23.39.39,0,0,1,.55.08.41.41,0,0,1-.08.55,2,2,0,0,1-1.18.39A1.88,1.88,0,0,1,136.63,92.09Z" style="fill:#263238"></path><path d="M142.81,90.63a.41.41,0,0,1-.41.41h-.19v2.08a.41.41,0,0,1,0,.82.82.82,0,0,1-.82-.82V91h-.22a.41.41,0,0,1-.41-.41.4.4,0,0,1,.41-.4h.22V89.15a.41.41,0,1,1,.82,0v1.08h.19A.4.4,0,0,1,142.81,90.63Z" style="fill:#263238"></path><path d="M144.62,89.93a.56.56,0,1,1-.55.56A.56.56,0,0,1,144.62,89.93Zm0,3a.56.56,0,1,1-.55.56A.56.56,0,0,1,144.62,92.89Z" style="fill:#263238"></path><path d="M136.55,74.47c38-.62,80.26-.61,118.29,0-38,.6-80.27.62-118.29,0Z" style="fill:#dbdbdb"></path><path d="M152,91.94c42.21-.62,89.13-.6,131.37,0-42.25.6-89.15.62-131.37,0Z" style="fill:#dbdbdb"></path><polygon points="382.93 246.81 379.68 246.81 379.68 245.88 382 245.88 382 243.56 382.93 243.56 382.93 246.81" style="fill:#dbdbdb"></polygon><path d="M374.16,246.81h-5.52v-.93h5.52Zm-11,0H357.6v-.93h5.52Zm-11,0h-5.51v-.93h5.51Zm-11,0h-5.52v-.93h5.52Zm-11,0h-5.52v-.93H330Zm-11,0h-5.51v-.93H319Zm-11,0h-5.52v-.93h5.52Zm-11,0h-5.52v-.93h5.52Zm-11,0h-5.51v-.93h5.51Zm-11,0h-5.52v-.93h5.52Zm-11,0h-5.52v-.93h5.52Zm-11,0h-5.51v-.93h5.51Zm-11,0H236.2v-.93h5.52Zm-11,0h-5.52v-.93h5.52Zm-11,0h-5.52v-.93h5.52Zm-11,0h-5.52v-.93h5.52Zm-11,0h-5.52v-.93h5.52Zm-11,0H181v-.93h5.52Zm-11,0H170v-.93h5.52Zm-11,0h-5.52v-.93h5.52Zm-11,0h-5.52v-.93h5.52Zm-11,0h-5.52v-.93h5.52Zm-11,0h-5.52v-.93h5.52Z" style="fill:#dbdbdb"></path><polygon points="120.32 246.81 117.06 246.81 117.06 243.56 117.99 243.56 117.99 245.88 120.32 245.88 120.32 246.81" style="fill:#dbdbdb"></polygon><path d="M118,237.92h-.93v-5.64H118Zm0-11.28h-.93V221H118Zm0-11.27h-.93v-5.64H118Zm0-11.27h-.93v-5.64H118Zm0-11.28h-.93v-5.64H118Zm0-11.27h-.93v-5.64H118Zm0-11.28h-.93v-5.63H118ZM118,159h-.93v-5.64H118Zm0-11.27h-.93v-5.64H118Zm0-11.28h-.93v-5.64H118Zm0-11.27h-.93v-5.64H118Z" style="fill:#dbdbdb"></path><polygon points="117.99 113.9 117.06 113.9 117.06 110.65 120.32 110.65 120.32 111.58 117.99 111.58 117.99 113.9" style="fill:#dbdbdb"></polygon><path d="M374.16,111.58h-5.52v-.93h5.52Zm-11,0H357.6v-.93h5.52Zm-11,0h-5.51v-.93h5.51Zm-11,0h-5.52v-.93h5.52Zm-11,0h-5.52v-.93H330Zm-11,0h-5.51v-.93H319Zm-11,0h-5.52v-.93h5.52Zm-11,0h-5.52v-.93h5.52Zm-11,0h-5.51v-.93h5.51Zm-11,0h-5.52v-.93h5.52Zm-11,0h-5.52v-.93h5.52Zm-11,0h-5.51v-.93h5.51Zm-11,0H236.2v-.93h5.52Zm-11,0h-5.52v-.93h5.52Zm-11,0h-5.51v-.93h5.51Zm-11,0h-5.52v-.93h5.52Zm-11,0h-5.52v-.93h5.52Zm-11,0H181v-.93h5.52Zm-11,0H170v-.93h5.52Zm-11,0h-5.52v-.93h5.52Zm-11,0h-5.52v-.93h5.52Zm-11,0h-5.52v-.93h5.52Zm-11,0h-5.52v-.93h5.52Z" style="fill:#dbdbdb"></path><polygon points="382.93 113.9 382 113.9 382 111.58 379.68 111.58 379.68 110.65 382.93 110.65 382.93 113.9" style="fill:#dbdbdb"></polygon><path d="M382.93,237.92H382v-5.64h.93Zm0-11.28H382V221h.93Zm0-11.27H382v-5.64h.93Zm0-11.27H382v-5.64h.93Zm0-11.28H382v-5.64h.93Zm0-11.27H382v-5.64h.93Zm0-11.28H382v-5.63h.93Zm0-11.27H382v-5.64h.93Zm0-11.27H382v-5.64h.93Zm0-11.28H382v-5.64h.93Zm0-11.27H382v-5.64h.93Z" style="fill:#dbdbdb"></path><rect x="247.84" y="162.57" width="4.31" height="32.32" style="fill:#dbdbdb"></rect><rect x="247.84" y="162.57" width="4.31" height="32.32" transform="translate(428.72 -71.27) rotate(90)" style="fill:#dbdbdb"></rect><rect x="117.53" y="254.6" width="44.93" height="15.31" style="fill:#F43F5E"></rect><path d="M124.68,263.31a.39.39,0,0,1,.55-.06,2.44,2.44,0,0,0,1.42.58,1.65,1.65,0,0,0,.93-.28.67.67,0,0,0,.32-.53.45.45,0,0,0-.07-.24.71.71,0,0,0-.23-.23,3,3,0,0,0-1-.34h0a3.86,3.86,0,0,1-1-.3,1.61,1.61,0,0,1-.69-.57,1.17,1.17,0,0,1-.17-.61,1.37,1.37,0,0,1,.59-1.09,2.24,2.24,0,0,1,1.29-.39,3,3,0,0,1,1.62.59.4.4,0,0,1,.11.53.38.38,0,0,1-.53.11,2.21,2.21,0,0,0-1.2-.48,1.41,1.41,0,0,0-.83.26.59.59,0,0,0-.28.47.33.33,0,0,0,0,.2.62.62,0,0,0,.2.2,2.55,2.55,0,0,0,.93.32h0a4.29,4.29,0,0,1,1,.32,1.71,1.71,0,0,1,.74.61,1.23,1.23,0,0,1,.18.64,1.45,1.45,0,0,1-.64,1.15,2.3,2.3,0,0,1-1.37.42,3.27,3.27,0,0,1-1.91-.74A.4.4,0,0,1,124.68,263.31Z" style="fill:#fff"></path><path d="M129.47,262.74a1.83,1.83,0,0,1,1.81-1.86,1.77,1.77,0,0,1,1.79,1.73v.1a.37.37,0,0,1-.39.3h-2.37a1,1,0,0,0,.26.49,1.1,1.1,0,0,0,.71.33,1.15,1.15,0,0,0,.77-.18.43.43,0,0,1,.56,0,.35.35,0,0,1,0,.49,1.89,1.89,0,0,1-1.33.49A1.84,1.84,0,0,1,129.47,262.74Zm.81-.36h2.1a1.2,1.2,0,0,0-1.1-.79A1,1,0,0,0,130.28,262.38Z" style="fill:#fff"></path><path d="M137.36,262.43v1.77a.39.39,0,0,1-.39.4.4.4,0,0,1-.39-.4v-1.77a.76.76,0,0,0-.78-.75.74.74,0,0,0-.74.75v1.77a.22.22,0,0,1,0,.08.42.42,0,0,1-.4.32.39.39,0,0,1-.39-.4v-2.92a.39.39,0,0,1,.39-.4.41.41,0,0,1,.37.23,1.46,1.46,0,0,1,.78-.23A1.56,1.56,0,0,1,137.36,262.43Z" style="fill:#fff"></path><path d="M142,264.2a.4.4,0,0,1-.8.08,1.84,1.84,0,1,1-1-3.4,1.79,1.79,0,0,1,1,.31V259.8a.41.41,0,1,1,.81,0v2.94h0Zm-1.81-2.51a1,1,0,0,0-.7.31,1.07,1.07,0,0,0-.3.75,1.05,1.05,0,0,0,.3.73,1,1,0,0,0,.7.31.93.93,0,0,0,.7-.31,1,1,0,0,0,.3-.73,1,1,0,0,0-.3-.75A.93.93,0,0,0,140.23,261.69Z" style="fill:#fff"></path><polygon points="154.85 261.72 158.15 261.72 156.5 263.16 154.85 261.72" style="fill:#fff"></polygon><path d="M150.68,255.62a64.78,64.78,0,0,1,0,13.64,64.78,64.78,0,0,1,0-13.64Z" style="opacity:0.1"></path><path d="M182.05,263.35h-3.26l-.66,1.75a.75.75,0,0,1-.7.47.71.71,0,0,1-.26,0,.77.77,0,0,1-.44-1l3-7.91a.76.76,0,0,1,.71-.47.75.75,0,0,1,.71.47l3,7.91a.76.76,0,0,1-.44,1,.68.68,0,0,1-.26,0,.71.71,0,0,1-.68-.47Zm-.55-1.47L180.41,259l-1.09,2.89Z" style="fill:#c7c7c7"></path><rect x="176.07" y="266.89" width="8.66" height="1.44" style="fill:#c7c7c7"></rect><path d="M195.9,268.25a3,3,0,0,1-3-3v-6.61a2.25,2.25,0,0,1,4.49,0v6.19a1.41,1.41,0,0,1-2.81,0v-5.15h.93v5.15a.47.47,0,0,0,.47.47.48.48,0,0,0,.48-.47v-6.19a1.32,1.32,0,0,0-2.63,0v6.61a2.07,2.07,0,0,0,4.14,0v-5.58h.93v5.58A3,3,0,0,1,195.9,268.25Z" style="fill:#c7c7c7"></path><path d="M211.47,265.49H210a3.29,3.29,0,1,1,0-6.56h1.43v1.4H210a1.89,1.89,0,1,0,0,3.77h1.43Z" style="fill:#c7c7c7"></path><path d="M215.71,265.49h-1.43V264.1h1.43a1.89,1.89,0,1,0,0-3.77h-1.43v-1.4h1.43a3.29,3.29,0,1,1,0,6.56Z" style="fill:#c7c7c7"></path><rect x="210.62" y="261.52" width="4.51" height="1.4" style="fill:#c7c7c7"></rect><path d="M231.21,267.7a5.38,5.38,0,1,1,5.37-5.37A5.38,5.38,0,0,1,231.21,267.7Zm0-9.82a4.45,4.45,0,1,0,4.44,4.45A4.45,4.45,0,0,0,231.21,257.88Z" style="fill:#c7c7c7"></path><circle cx="228.95" cy="261.46" r="0.76" style="fill:#c7c7c7"></circle><circle cx="233.46" cy="261.46" r="0.76" style="fill:#c7c7c7"></circle><path d="M229.06,263.39h4.3a2.55,2.55,0,0,1-2.15,1.1A2.31,2.31,0,0,1,229.06,263.39Z" style="fill:#c7c7c7"></path><path d="M252.58,265.76h-8.75l4.37-7.31Zm-7.11-.93h5.47l-2.74-4.57Z" style="fill:#c7c7c7"></path><rect x="258.77" y="257.91" width="8.82" height="8.82" style="fill:#c7c7c7"></rect><polygon points="266.79 265.3 261.57 265.3 264.18 262.49 266.79 265.3" style="fill:#fff"></polygon><polygon points="263.79 265.3 259.58 265.3 261.68 263.03 263.79 265.3" style="fill:#fff"></polygon><rect x="275.09" y="259.68" width="7.06" height="7.06" style="fill:#c7c7c7"></rect><path d="M280.7,260.35h-.93V258.8a1.16,1.16,0,0,0-2.31,0v1.55h-.93V258.8a2.09,2.09,0,0,1,4.17,0Z" style="fill:#c7c7c7"></path><path d="M286.49,263.77a3.7,3.7,0,1,1-3.7-3.69A3.7,3.7,0,0,1,286.49,263.77Z" style="fill:#fff"></path><path d="M282.79,267.93a4.16,4.16,0,1,1,4.16-4.16A4.16,4.16,0,0,1,282.79,267.93Zm0-7.39a3.23,3.23,0,1,0,3.23,3.23A3.23,3.23,0,0,0,282.79,260.54Z" style="fill:#c7c7c7"></path><polygon points="283.7 265.34 282.33 263.97 282.33 261.8 283.26 261.8 283.26 263.58 284.36 264.69 283.7 265.34" style="fill:#c7c7c7"></polygon><path d="M368.87,259a.76.76,0,1,1-.76-.76A.76.76,0,0,1,368.87,259Z" style="fill:#c7c7c7"></path><path d="M368.87,262.33a.76.76,0,1,1-.76-.76A.76.76,0,0,1,368.87,262.33Z" style="fill:#c7c7c7"></path><path d="M368.87,265.62a.76.76,0,1,1-.76-.75A.76.76,0,0,1,368.87,265.62Z" style="fill:#c7c7c7"></path><rect x="376.33" y="260.12" width="5.51" height="6.26" style="fill:#c7c7c7"></rect><rect x="375.71" y="258.91" width="6.75" height="0.77" style="fill:#c7c7c7"></rect><rect x="376.74" y="258.12" width="4.7" height="0.78" style="fill:#c7c7c7"></rect></g></svg>