<svg xmlns="http://www.w3.org/2000/svg" viewBox="0 0 750 500"><g id="freepik--background-complete--inject-18"><path d="M392,77.58a43.91,43.91,0,1,1-49.76-37A43.85,43.85,0,0,1,392,77.58Z" style="fill:#f5f5f5"></path><path d="M381.63,79.08a33.46,33.46,0,1,1-37.92-28.23A33.42,33.42,0,0,1,381.63,79.08Z" style="fill:#ebebeb"></path><path d="M381.47,78.05c-.2,0-.55-1.4-1.45-3.86a35.41,35.41,0,0,0-5.3-9.6,34.77,34.77,0,0,0-5.25-5.38,33.92,33.92,0,0,0-7.32-4.52,33,33,0,0,0-9.1-2.62,33,33,0,0,0-5-.29,36.05,36.05,0,0,0-5.14.5,35.59,35.59,0,0,0-5,1.3,33.27,33.27,0,0,0-4.6,2,30.21,30.21,0,0,0-4.1,2.57,30.73,30.73,0,0,0-3.54,3,33.46,33.46,0,0,0-5.31,6.76,34.72,34.72,0,0,0-3.09,6.86,35.6,35.6,0,0,0-1.66,10.83c0,2.62.16,4.09,0,4.12s-.64-1.38-1-4.06a31.17,31.17,0,0,1,.92-11.39A33.5,33.5,0,0,1,324,59.51a31.56,31.56,0,0,1,3.75-3.31,32.2,32.2,0,0,1,4.38-2.83,32.89,32.89,0,0,1,4.95-2.19,36.78,36.78,0,0,1,5.39-1.42,36.16,36.16,0,0,1,5.55-.52,34.43,34.43,0,0,1,5.4.35,33.88,33.88,0,0,1,9.74,3,34,34,0,0,1,7.69,5,33.62,33.62,0,0,1,5.34,5.93A31.08,31.08,0,0,1,381,73.9C381.61,76.52,381.62,78,381.47,78.05Z" style="fill:#e0e0e0"></path><path d="M355.13,103.1l.92,5.76-5.14.82-.89-5.6c-5.14.51-10.28-.3-13.46-2.06l1.82-6.72a21.1,21.1,0,0,0,10.56,2l-1.37-8.59c-5.93-.47-12.61-1.35-13.79-8.7-.87-5.45,2.34-10.76,10.31-13l-.91-5.71,5.14-.82.9,5.6a23.46,23.46,0,0,1,10.93,1.47l-1.56,6.73a21.17,21.17,0,0,0-8.29-1.41l1.4,8.73c5.92.43,12.49,1.32,13.65,8.57C366.21,95.59,363,100.84,355.13,103.1Zm-8.77-21.89-1.17-7.3c-2.63,1.06-3.47,2.72-3.2,4.42S344,80.85,346.36,81.21Zm10.82,11c-.29-1.8-1.94-2.53-4.27-3l1.14,7.09C356.53,95.34,357.44,93.83,357.18,92.18Z" style="fill:#e0e0e0"></path><path d="M491.45,58.36a28.74,28.74,0,1,1-26.67-30.62A28.72,28.72,0,0,1,491.45,58.36Z" style="fill:#f5f5f5"></path><path d="M484.62,57.88A21.9,21.9,0,1,1,464.3,34.55,21.86,21.86,0,0,1,484.62,57.88Z" style="fill:#ebebeb"></path><path d="M484.67,57.19a12.4,12.4,0,0,1-.4-2.67,23,23,0,0,0-2-6.87,22.63,22.63,0,0,0-2.61-4.17,21.89,21.89,0,0,0-4.05-3.91,21.13,21.13,0,0,0-5.45-2.94,20.77,20.77,0,0,0-3.16-.88,23.36,23.36,0,0,0-3.36-.4,22.33,22.33,0,0,0-3.38.14,21.32,21.32,0,0,0-3.22.63,21.8,21.8,0,0,0-5.66,2.51A22,22,0,0,0,447,42.22a22.52,22.52,0,0,0-2.93,4,23.18,23.18,0,0,0-2.57,6.69,13,13,0,0,1-.59,2.63,6.21,6.21,0,0,1,0-2.73A20.14,20.14,0,0,1,443,45.61,22.67,22.67,0,0,1,446,41.29a22.62,22.62,0,0,1,7.38-5.55,23.45,23.45,0,0,1,3.2-1.2,23.19,23.19,0,0,1,3.47-.71,24.41,24.41,0,0,1,3.64-.15,23.72,23.72,0,0,1,3.62.43,22.32,22.32,0,0,1,3.41,1,21.84,21.84,0,0,1,3.09,1.44,21.18,21.18,0,0,1,2.73,1.81,22.39,22.39,0,0,1,4.21,4.29,22.83,22.83,0,0,1,2.6,4.54,20.11,20.11,0,0,1,1.61,7.3A6.61,6.61,0,0,1,484.67,57.19Z" style="fill:#e0e0e0"></path><path d="M464.33,69.55l-.21,3.81-3.4-.19.21-3.71a16.1,16.1,0,0,1-8.32-3.19l2.1-4A13.86,13.86,0,0,0,461.18,65l.31-5.68c-3.72-1.13-7.87-2.62-7.6-7.49.2-3.6,3-6.55,8.4-6.86l.21-3.78,3.4.19-.21,3.71a15.25,15.25,0,0,1,6.79,2.46l-1.93,4.09a13.86,13.86,0,0,0-5.11-2.06l-.32,5.78c3.73,1.09,7.81,2.58,7.54,7.38C472.46,66.28,469.71,69.2,464.33,69.55Zm-2.56-15.22L462,49.5c-1.83.31-2.6,1.25-2.66,2.38S460.3,53.77,461.77,54.33Zm5.39,8.52c.07-1.19-.88-1.89-2.32-2.48l-.26,4.69C466.3,64.78,467.1,63.94,467.16,62.85Z" style="fill:#e0e0e0"></path><path d="M102.68,72.34a44.75,44.75,0,1,1,71.65,46.13h0a44.74,44.74,0,0,1-71.65-46.13Zm83.55,22.34a41.72,41.72,0,1,0-13.8,21.47A41.73,41.73,0,0,0,186.23,94.68Z" style="fill:#e0e0e0"></path><path d="M101.72,70.11a44.75,44.75,0,1,1,71.65,46.14h0a44.75,44.75,0,0,1-71.65-46.14Zm83.55,22.35a41.72,41.72,0,1,0-13.8,21.47A41.73,41.73,0,0,0,185.27,92.46Z" style="fill:#f5f5f5"></path><path d="M68.26,152.06l-.71-.78c-1.52-1.67-2-3.72-1-4.58l42.92-39c.21-.19.66,0,1,.33l5,5.47c.34.37.44.83.23,1l-42.92,39C71.77,154.38,69.77,153.73,68.26,152.06Z" style="fill:#f5f5f5"></path><path d="M129.19,51a6.63,6.63,0,0,1,1.12-.72,11.26,11.26,0,0,1,1.38-.74,18.87,18.87,0,0,1,1.88-.87A33.13,33.13,0,0,1,138.69,47a38.48,38.48,0,0,1,6.54-.91,37.54,37.54,0,0,1,6.59.35,32.2,32.2,0,0,1,5.25,1.22c.74.21,1.38.48,2,.7a12.12,12.12,0,0,1,1.43.62,6.45,6.45,0,0,1,1.17.62c0,.1-1.74-.74-4.66-1.59a37.89,37.89,0,0,0-5.21-1.1,36.47,36.47,0,0,0-12.95.56A36.92,36.92,0,0,0,133.7,49C130.87,50.1,129.25,51.08,129.19,51Z" style="fill:#e0e0e0"></path><path d="M169.5,54.34a6.9,6.9,0,0,1-2.36-1.17,7,7,0,0,1-2.08-1.62,6.87,6.87,0,0,1,2.36,1.18C168.65,53.5,169.58,54.22,169.5,54.34Z" style="fill:#e0e0e0"></path><path d="M656.42,152.6l-41.11-20a5.72,5.72,0,0,1-2.64-7.65L640.38,68A5.72,5.72,0,0,1,648,65.38l26.08,12.7,10,30.63L664.07,150A5.73,5.73,0,0,1,656.42,152.6Z" style="fill:#ebebeb"></path><path d="M674.11,78.08l-7.8,16a5.33,5.33,0,0,0,2.45,7.12l15.4,7.5Z" style="fill:#e0e0e0"></path><path d="M663.18,91.76c-.1.21-4.44-1.7-9.69-4.26s-9.43-4.8-9.33-5,4.43,1.7,9.69,4.26S663.28,91.55,663.18,91.76Z" style="fill:#fff"></path><path d="M671.05,106.8c-.1.2-7.19-3-15.83-7.25s-15.57-7.79-15.47-8,7.18,3,15.83,7.25S671.15,106.59,671.05,106.8Z" style="fill:#fff"></path><path d="M670.19,115.73c-.1.21-7.82-3.34-17.24-7.93s-17-8.48-16.89-8.69,7.82,3.35,17.25,7.94S670.29,115.53,670.19,115.73Z" style="fill:#fff"></path><path d="M666.72,122.87c-.1.2-7.83-3.35-17.25-7.94s-17-8.48-16.88-8.68,7.82,3.35,17.24,7.94S666.82,122.66,666.72,122.87Z" style="fill:#fff"></path><path d="M663.24,130c-.1.21-7.82-3.35-17.24-7.93s-17-8.48-16.89-8.69,7.82,3.35,17.25,7.94S663.34,129.8,663.24,130Z" style="fill:#fff"></path><path d="M659.77,137.14c-.1.2-7.82-3.35-17.25-7.94s-17-8.48-16.88-8.68,7.82,3.35,17.25,7.94S659.87,136.93,659.77,137.14Z" style="fill:#fff"></path><path d="M148.07,197.91a4.58,4.58,0,0,1-3.43-5.49l8.93-38.78a3.79,3.79,0,0,1,4.64-2.69l3.64.84a4,4,0,0,0,4-1.28l1.14-1.41a4,4,0,0,1,3.95-1.28l17.31,4a4,4,0,0,1,2.88,2.51l.54,1.54a4,4,0,0,0,2.88,2.51l22.06,5.09a3.78,3.78,0,0,1,3,4.45l-9.13,39.66a4.58,4.58,0,0,1-5.49,3.43Z" style="fill:#e0e0e0"></path><path d="M192.22,157.88l-14-3.26-.71-2.63a4.94,4.94,0,0,0-3.72-3.47L160,145.36a4.4,4.4,0,0,0-5.38,3.12l-.36,1.6-9.7,42.11a5,5,0,0,0,3.94,5.86l55.73,12.83a5,5,0,0,0,6.11-3.55l9.16-39.77a3.29,3.29,0,0,0-2.48-3.95Z" style="fill:#ebebeb"></path><rect x="166.08" y="172.45" width="34.04" height="14.32" transform="translate(44.98 -36.51) rotate(12.97)" style="fill:#fff"></rect><path d="M194.76,181.43c0,.12-5.15-1-11.44-2.4s-11.38-2.73-11.35-2.85,5.16.95,11.45,2.4S194.79,181.31,194.76,181.43Z" style="fill:#e0e0e0"></path><path d="M194.08,184.4c0,.13-5.16-1-11.45-2.4s-11.37-2.72-11.34-2.85,5.15,1,11.45,2.41S194.11,184.28,194.08,184.4Z" style="fill:#e0e0e0"></path></g><g id="freepik--Floor--inject-18"><path d="M697.19,474.18c0,.14-149.64.26-334.17.26s-334.21-.12-334.21-.26,149.6-.26,334.21-.26S697.19,474,697.19,474.18Z" style="fill:#263238"></path></g><g id="freepik--Coins--inject-18"><path d="M714.28,184.67a21.21,21.21,0,1,1-17.8-24.14A21.2,21.2,0,0,1,714.28,184.67Z" style="fill:#F43F5E"></path><g style="opacity:0.1"><path d="M696.48,160.53a21.22,21.22,0,0,0-24.14,17.81s14.64,2.88,19.08-2.52S696.48,160.53,696.48,160.53Z" style="fill:#fff"></path></g><path d="M709,183.53a16.12,16.12,0,1,1-13.53-18.35A16.12,16.12,0,0,1,709,183.53Z" style="fill:#F43F5E"></path><g style="opacity:0.2"><path d="M709,183.53a16.12,16.12,0,1,1-13.53-18.35A16.12,16.12,0,0,1,709,183.53Z"></path></g><path d="M709.32,184.26A15.9,15.9,0,1,1,696,166.16,15.91,15.91,0,0,1,709.32,184.26Z" style="fill:#F43F5E"></path><g style="opacity:0.2"><path d="M709.32,184.26A15.9,15.9,0,1,1,696,166.16,15.91,15.91,0,0,1,709.32,184.26Z" style="fill:#fff"></path></g><path d="M694.43,180.62l.6-4h0a8.14,8.14,0,0,1,2.06.88,6.69,6.69,0,0,1,.9.78l.07-.12.84-1.35.2-.31-.61-.87-.36.11a7.56,7.56,0,0,0-2.79-1.28l.33-2.22-.6-.66-.09.56-.94-.14-.34,2.25c-3.16-.17-4.9,1.38-5.21,3.41-.41,2.77,1.85,3.85,4,4.72l-.6,4a7.72,7.72,0,0,1-3.76-2.12l-1.2,1.88a8.82,8.82,0,0,0,4.63,2.39l-.25,1.67-.78-.1.7.64,1.63.25.34-2.23c3.18.15,4.94-1.38,5.24-3.41C698.86,182.55,696.56,181.49,694.43,180.62Zm-1.58-.67c-1.1-.51-1.89-1.08-1.75-2s.84-1.5,2.29-1.51Zm2.18-3.36Zm-1.5,10,.53-3.53c1.15.52,2,1.11,1.81,2.08S695,186.56,693.53,186.56Z" style="fill:#F43F5E"></path><g style="opacity:0.30000000000000004"><path d="M694.43,180.62l.6-4h0a8.14,8.14,0,0,1,2.06.88,6.69,6.69,0,0,1,.9.78l.07-.12.84-1.35.2-.31-.61-.87-.36.11a7.56,7.56,0,0,0-2.79-1.28l.33-2.22-.6-.66-.09.56-.94-.14-.34,2.25c-3.16-.17-4.9,1.38-5.21,3.41-.41,2.77,1.85,3.85,4,4.72l-.6,4a7.72,7.72,0,0,1-3.76-2.12l-1.2,1.88a8.82,8.82,0,0,0,4.63,2.39l-.25,1.67-.78-.1.7.64,1.63.25.34-2.23c3.18.15,4.94-1.38,5.24-3.41C698.86,182.55,696.56,181.49,694.43,180.62Zm-1.58-.67c-1.1-.51-1.89-1.08-1.75-2s.84-1.5,2.29-1.51Zm2.18-3.36Zm-1.5,10,.53-3.53c1.15.52,2,1.11,1.81,2.08S695,186.56,693.53,186.56Z"></path></g><path d="M692.61,188.08l-.34,2.23-1.63-.24.33-2.22a8.78,8.78,0,0,1-4.63-2.39l1.2-1.88a7.68,7.68,0,0,0,3.75,2.12l.61-4c-2.14-.87-4.4-2-4-4.72.31-2,2.05-3.58,5.2-3.41l.34-2.25,1.64.24-.33,2.22a8.61,8.61,0,0,1,3.86,1.82l-1.12,1.89a8.51,8.51,0,0,0-3.07-1.56l-.61,4c2.13.87,4.44,1.93,4,4.7C697.55,186.7,695.79,188.23,692.61,188.08Zm-.35-8.78.54-3.55c-1.45,0-2.16.63-2.29,1.51S691.16,178.79,692.26,179.3Zm3,5.17c.15-1-.66-1.57-1.8-2.09l-.53,3.53C694.42,185.91,695.14,185.32,695.27,184.47Z" style="fill:#F43F5E"></path><path d="M689,178.87a1.31,1.31,0,0,1-.39-.53,2.51,2.51,0,0,1,.55-3,1.41,1.41,0,0,1,.56-.35s-.2.15-.48.43a2.7,2.7,0,0,0-.7,1.34,2.61,2.61,0,0,0,.17,1.5C688.89,178.66,689.05,178.85,689,178.87Z" style="fill:#fff"></path><path d="M693.51,173.3a1.61,1.61,0,0,1,0-.67,1.54,1.54,0,0,1,.18-.64,1.6,1.6,0,0,1,0,.67A1.54,1.54,0,0,1,693.51,173.3Z" style="fill:#fff"></path><path d="M652.18,196.17a10.29,10.29,0,1,1-11.78-8.55A10.3,10.3,0,0,1,652.18,196.17Z" style="fill:#F43F5E"></path><g style="opacity:0.1"><path d="M640.4,187.62a10.29,10.29,0,0,0-8.55,11.79s7.19-.82,8.45-4S640.4,187.62,640.4,187.62Z" style="fill:#fff"></path></g><path d="M649.56,196.42a7.83,7.83,0,1,1-9-6.49A7.83,7.83,0,0,1,649.56,196.42Z" style="fill:#F43F5E"></path><g style="opacity:0.2"><path d="M649.56,196.42a7.83,7.83,0,1,1-9-6.49A7.83,7.83,0,0,1,649.56,196.42Z"></path></g><path d="M649.83,196.71A7.72,7.72,0,1,1,641,190.3,7.72,7.72,0,0,1,649.83,196.71Z" style="fill:#F43F5E"></path><g style="opacity:0.2"><path d="M649.83,196.71A7.72,7.72,0,1,1,641,190.3,7.72,7.72,0,0,1,649.83,196.71Z" style="fill:#fff"></path></g><path d="M642.4,197.22l-.31-2h0a4.09,4.09,0,0,1,1.08.11,2.9,2.9,0,0,1,.53.23l0-.07.19-.75,0-.17-.4-.31-.16.1a3.84,3.84,0,0,0-1.48-.18l-.17-1.07-.38-.22,0,.27-.46.07.17,1.09c-1.48.39-2.06,1.36-1.9,2.35.21,1.34,1.42,1.51,2.53,1.6l.31,1.93a3.66,3.66,0,0,1-2.05-.43l-.28,1.05a4.33,4.33,0,0,0,2.49.43l.13.81-.37.06.41.2.8-.13-.17-1.08c1.49-.4,2.08-1.36,1.92-2.35C644.74,197.46,643.51,197.31,642.4,197.22Zm-.83-.08c-.58-.08-1-.22-1.11-.69s.17-.82.84-1Zm.52-1.88Zm.77,4.84-.27-1.71c.6.07,1.06.22,1.14.7S643.55,199.88,642.86,200.1Z" style="fill:#F43F5E"></path><g style="opacity:0.30000000000000004"><path d="M642.4,197.22l-.31-2h0a4.09,4.09,0,0,1,1.08.11,2.9,2.9,0,0,1,.53.23l0-.07.19-.75,0-.17-.4-.31-.16.1a3.84,3.84,0,0,0-1.48-.18l-.17-1.07-.38-.22,0,.27-.46.07.17,1.09c-1.48.39-2.06,1.36-1.9,2.35.21,1.34,1.42,1.51,2.53,1.6l.31,1.93a3.66,3.66,0,0,1-2.05-.43l-.28,1.05a4.33,4.33,0,0,0,2.49.43l.13.81-.37.06.41.2.8-.13-.17-1.08c1.49-.4,2.08-1.36,1.92-2.35C644.74,197.46,643.51,197.31,642.4,197.22Zm-.83-.08c-.58-.08-1-.22-1.11-.69s.17-.82.84-1Zm.52-1.88Zm.77,4.84-.27-1.71c.6.07,1.06.22,1.14.7S643.55,199.88,642.86,200.1Z"></path></g><path d="M642.66,200.94l.17,1.08-.8.13-.17-1.08a4.26,4.26,0,0,1-2.49-.42l.28-1.05a3.74,3.74,0,0,0,2.05.43l-.31-1.94c-1.11-.09-2.32-.25-2.53-1.59-.16-1,.42-2,1.9-2.35l-.17-1.09.79-.13.17,1.08a4.23,4.23,0,0,1,2.06.27l-.24,1a4.08,4.08,0,0,0-1.65-.27L642,197c1.11.09,2.34.24,2.55,1.59C644.74,199.57,644.15,200.54,642.66,200.94Zm-1.46-4-.27-1.73c-.67.22-.9.61-.84,1S640.62,196.85,641.2,196.93Zm2.16,1.94c-.08-.47-.54-.63-1.14-.7l.27,1.71C643.18,199.66,643.42,199.29,643.36,198.87Z" style="fill:#F43F5E"></path><path d="M639.65,197.2s-.12,0-.26-.19a1.25,1.25,0,0,1-.34-.69,1.23,1.23,0,0,1,.16-.76,1,1,0,0,1,.2-.25s-.07.1-.16.27a1.34,1.34,0,0,0-.12.73,1.26,1.26,0,0,0,.3.67C639.55,197.12,639.65,197.19,639.65,197.2Z" style="fill:#fff"></path><path d="M640.9,194s-.06-.13-.09-.31a.65.65,0,0,1,0-.32.79.79,0,0,1,.09.31A.64.64,0,0,1,640.9,194Z" style="fill:#fff"></path></g><g id="freepik--ring-binder--inject-18"><polygon points="224.58 98.74 218.31 135.44 218.31 474.18 523.28 474.18 523.28 452.65 224.58 98.74" style="fill:#F43F5E"></polygon><path d="M224.58,98.74H518a12.2,12.2,0,0,1,12.2,12.2v333.8a12.2,12.2,0,0,1-12.2,12.2H224.58a0,0,0,0,1,0,0V98.74A0,0,0,0,1,224.58,98.74Z" style="fill:#F43F5E"></path><path d="M518,457.43h-294V98.24H518a12.71,12.71,0,0,1,12.69,12.7v333.8A12.7,12.7,0,0,1,518,457.43Zm-293-1H518a11.7,11.7,0,0,0,11.69-11.69V110.94A11.71,11.71,0,0,0,518,99.24h-293Z" style="fill:#263238"></path><polygon points="497.23 108.99 514.16 137.22 514.16 446.31 250.32 443.68 235.88 428.74 497.23 108.99" style="fill:#e0e0e0"></polygon><rect x="235.88" y="107.63" width="261.35" height="321.11" style="fill:#fff"></rect><path d="M497.23,428.74c0-2-.09-130.13-.23-321.11l.23.23-261.33,0h0l.26-.26c0,118.79,0,229.27,0,321.11l-.21-.22,261.35.22L235.88,429h-.22v-.22c0-91.84,0-202.32,0-321.11v-.26h.28l261.33,0h.23v.23C497.33,298.61,497.23,426.71,497.23,428.74Z" style="fill:#263238"></path><path d="M268,215.76c0,3.61-2.66,6.54-5.93,6.54s-5.93-2.93-5.93-6.54,2.65-6.53,5.93-6.53S268,212.16,268,215.76Z" style="fill:#263238"></path><g style="opacity:0.30000000000000004"><polygon points="224.58 261.86 235.88 261.86 235.85 252.13 224.58 252.13 224.58 261.86"></polygon></g><path d="M230,183.41c-19.66,0-35.65,15.56-35.65,34.69s16.18,34.7,35.84,34.7h5.68l-.09-8.23-5.59.23c-15.65,0-28.58-12-28.58-26.7s12.73-26.69,28.39-26.69,28.39,12,28.39,26.69a3.65,3.65,0,1,0,7.26,0C265.66,199,249.66,183.41,230,183.41Z" style="fill:#e0e0e0"></path><path d="M230,183.41s.28,0,.84,0l2.48.1c1.09.1,2.42.31,4,.55a39.19,39.19,0,0,1,5.3,1.52,36.57,36.57,0,0,1,12.74,7.95l1.54,1.65c.26.28.53.55.78.84l.72.93c.47.64,1,1.25,1.44,1.92l1.32,2.1a35.64,35.64,0,0,1,3.87,9.83,33.69,33.69,0,0,1,.72,5.66,8.35,8.35,0,0,1-.11,3,4.12,4.12,0,0,1-1.91,2.41,3.58,3.58,0,0,1-3.13.15,4,4,0,0,1-2.15-2.36,5,5,0,0,1-.28-1.63l-.09-1.58a21.77,21.77,0,0,0-.4-3.18,26,26,0,0,0-5.85-11.85,29.85,29.85,0,0,0-8.27-6.48c-.53-.27-1.09-.5-1.64-.76a13.58,13.58,0,0,0-1.67-.68l-1.73-.59c-.58-.18-1.19-.3-1.78-.45a31.25,31.25,0,0,0-3.65-.63,30.51,30.51,0,0,0-7.51.2,32.43,32.43,0,0,0-3.75.78c-.61.18-1.21.41-1.83.61l-.91.32-.89.4a27.56,27.56,0,0,0-6.66,4.07,26.31,26.31,0,0,0-5.35,5.88,24.32,24.32,0,0,0-3.37,7.33,22.25,22.25,0,0,0-.87,8.13,23.43,23.43,0,0,0,1.86,8.07,27.58,27.58,0,0,0,13.42,13.95,28.32,28.32,0,0,0,9.17,2.72,32.64,32.64,0,0,0,4.7.23l4.67-.19h.27v.26q0,4.19.08,8.23v.25h-.25c-2.11,0-4.2,0-6.27,0l-3.11-.16-3.05-.46a37.64,37.64,0,0,1-11.23-4.09c-.84-.51-1.71-.95-2.5-1.52l-2.33-1.69-2.15-1.88a8.59,8.59,0,0,1-1-1l-1-1a35,35,0,0,1-6-9c-.41-.79-.65-1.64-1-2.44l-.46-1.22-.34-1.25c-.2-.83-.47-1.64-.62-2.47s-.26-1.67-.39-2.49a33.62,33.62,0,0,1,.19-9.58,31.54,31.54,0,0,1,1-4.44,18.27,18.27,0,0,1,.73-2.08c.27-.67.48-1.37.8-2a33.93,33.93,0,0,1,2-3.69c.36-.57.72-1.14,1.07-1.71s.8-1.05,1.19-1.57a35.44,35.44,0,0,1,10.41-9c.44-.25.86-.52,1.29-.74l1.31-.61a21.83,21.83,0,0,1,2.48-1.07l2.34-.82c.75-.22,1.48-.37,2.16-.55a26.67,26.67,0,0,1,3.68-.67c.53-.07,1-.17,1.48-.19l1.23-.05,1.66-.07H230l-.57.05-1.66.1-1.22.07c-.46,0-.94.14-1.48.21a28.61,28.61,0,0,0-3.65.71c-.68.18-1.4.34-2.15.57L217,186A21.71,21.71,0,0,0,214.5,187l-1.29.62c-.43.22-.84.49-1.28.74a35.34,35.34,0,0,0-10.28,9c-.39.51-.8,1-1.17,1.56l-1.06,1.69a36.16,36.16,0,0,0-1.93,3.66c-.31.63-.51,1.32-.78,2a19.24,19.24,0,0,0-.72,2.06,32.24,32.24,0,0,0-1,4.39,32.88,32.88,0,0,0-.16,9.47q.19,1.22.39,2.46c.15.82.41,1.62.62,2.44l.33,1.23.46,1.2c.33.8.57,1.64,1,2.41a34.4,34.4,0,0,0,6,8.91l1,1a8.42,8.42,0,0,0,1,1l2.12,1.85,2.31,1.67c.78.55,1.64,1,2.47,1.5a37.6,37.6,0,0,0,11.09,4l3,.44,3.07.16c2.06.05,4.15,0,6.26,0l-.25.25c0-2.7-.06-5.43-.09-8.22l.26.25-4.68.19a19,19,0,0,1-2.38,0,17.54,17.54,0,0,1-2.4-.21A28.85,28.85,0,0,1,217,242a28.08,28.08,0,0,1-13.67-14.22,23.9,23.9,0,0,1-1.9-8.24,23.16,23.16,0,0,1,.89-8.3,24.79,24.79,0,0,1,3.44-7.47,26.86,26.86,0,0,1,5.45-6,28.09,28.09,0,0,1,6.79-4.14l.9-.41.94-.32c.62-.2,1.23-.44,1.86-.62a31.67,31.67,0,0,1,3.8-.79,30.6,30.6,0,0,1,7.64-.19,30.25,30.25,0,0,1,3.71.64c.6.15,1.21.28,1.81.45l1.75.61a13.34,13.34,0,0,1,1.71.7c.55.26,1.12.49,1.66.77a29.31,29.31,0,0,1,3.09,1.89,28.81,28.81,0,0,1,5.3,4.71,26.38,26.38,0,0,1,5.93,12.07,24,24,0,0,1,.41,3.23c0,.54.05,1.08.08,1.61a4.55,4.55,0,0,0,.25,1.48,3.61,3.61,0,0,0,1.92,2.13,3.13,3.13,0,0,0,2.77-.12,3.7,3.7,0,0,0,1.73-2.17,8,8,0,0,0,.11-2.85,34,34,0,0,0-.7-5.6,35.06,35.06,0,0,0-3.8-9.74l-1.29-2.09c-.45-.67-1-1.28-1.43-1.9l-.7-.93c-.25-.29-.52-.56-.78-.84l-1.52-1.64a36.4,36.4,0,0,0-12.6-8,40.55,40.55,0,0,0-5.26-1.56c-1.57-.25-2.9-.48-4-.6l-2.47-.14Z" style="fill:#263238"></path><path d="M268,310.11c0,3.61-2.66,6.54-5.93,6.54s-5.93-2.93-5.93-6.54,2.65-6.53,5.93-6.53S268,306.5,268,310.11Z" style="fill:#263238"></path><rect x="276.9" y="188.62" width="201.33" height="8.43" style="fill:#F43F5E"></rect><rect x="276.9" y="178.29" width="117.34" height="8.43" style="fill:#F43F5E"></rect><rect x="276.9" y="369.8" width="117.34" height="8.43" style="fill:#F43F5E"></rect><rect x="277.77" y="160.15" width="201.58" height="12.29" style="fill:#e0e0e0"></rect><rect x="275.6" y="272.82" width="201.58" height="12.29" style="fill:#e0e0e0"></rect><rect x="277.77" y="212.28" width="80.39" height="12.29" style="fill:#e0e0e0"></rect><rect x="376.67" y="212.28" width="100.51" height="12.29" style="fill:#e0e0e0"></rect><path d="M394.24,183.31c0,.14-25.86.25-57.77.25s-57.78-.11-57.78-.25,25.87-.26,57.78-.26S394.24,183.16,394.24,183.31Z" style="fill:#263238"></path><path d="M478.23,193c0,.14-44.72.26-99.87.26s-99.88-.12-99.88-.26,44.71-.26,99.88-.26S478.23,192.83,478.23,193Z" style="fill:#263238"></path><path d="M478.23,202.14c0,.14-44.72.26-99.87.26s-99.88-.12-99.88-.26,44.71-.26,99.88-.26S478.23,202,478.23,202.14Z" style="fill:#263238"></path><path d="M357.47,232.07c0,.14-18,.26-40.17.26s-40.16-.12-40.16-.26,18-.26,40.16-.26S357.47,231.93,357.47,232.07Z" style="fill:#263238"></path><path d="M357.47,241.51c0,.14-17.69.26-39.5.26s-39.5-.12-39.5-.26,17.68-.26,39.5-.26S357.47,241.37,357.47,241.51Z" style="fill:#263238"></path><path d="M357.14,251.11c0,.14-17.84.26-39.84.26s-39.83-.12-39.83-.26,17.83-.26,39.83-.26S357.14,251,357.14,251.11Z" style="fill:#263238"></path><path d="M357.14,260.42c0,.14-17.84.26-39.84.26s-39.83-.12-39.83-.26,17.83-.26,39.83-.26S357.14,260.28,357.14,260.42Z" style="fill:#263238"></path><path d="M475.63,234.28c0,.15-18.62.26-41.59.26s-41.61-.11-41.61-.26S411.06,234,434,234,475.63,234.14,475.63,234.28Z" style="fill:#263238"></path><path d="M386.05,237.29a12.07,12.07,0,0,1-.11-1.72c0-1.07-.09-2.54-.11-4.3l.22.23-5.73,0,.24-.26h0v1.6c0,.53,0,1,0,1.55,0,1,0,2,0,2.84l-.21-.22c1.67,0,3.07.07,4.08.11a16.51,16.51,0,0,1,1.65.11,7.59,7.59,0,0,1-1.51.11c-1,0-2.46.1-4.22.12h-.22v-.23c0-.88,0-1.84,0-2.84,0-.5,0-1,0-1.55v-1.6h0c-.22.24.3-.31.25-.26l5.73,0h.21v.22c0,1.86-.07,3.39-.11,4.44A10.44,10.44,0,0,1,386.05,237.29Z" style="fill:#263238"></path><path d="M475.63,245.85c0,.14-18.62.26-41.59.26s-41.61-.12-41.61-.26,18.63-.26,41.61-.26S475.63,245.7,475.63,245.85Z" style="fill:#263238"></path><path d="M386.05,248.86a12.49,12.49,0,0,1-.11-1.73c0-1.06-.09-2.54-.11-4.29l.22.22-5.73,0c-.06.05.46-.49.24-.26h0v1.6c0,.53,0,1,0,1.56,0,1,0,1.95,0,2.84l-.21-.23c1.67,0,3.07.07,4.08.12a11.42,11.42,0,0,1,1.65.11,10.32,10.32,0,0,1-1.51.11c-1,0-2.46.09-4.22.11h-.22v-.22c0-.89,0-1.84,0-2.84,0-.51,0-1,0-1.56v-1.6h0l.25-.26,5.73,0h.21v.23c0,1.85-.07,3.39-.11,4.43A10.88,10.88,0,0,1,386.05,248.86Z" style="fill:#263238"></path><path d="M475.63,257.41c0,.14-18.62.26-41.59.26s-41.61-.12-41.61-.26,18.63-.26,41.61-.26S475.63,257.27,475.63,257.41Z" style="fill:#263238"></path><path d="M386.05,260.42a12.31,12.31,0,0,1-.11-1.73c0-1.06-.09-2.53-.11-4.29l.22.22-5.73,0,.24-.26h0V256c0,.53,0,1.05,0,1.56,0,1,0,1.95,0,2.84l-.21-.22c1.67,0,3.07.07,4.08.11a13.5,13.5,0,0,1,1.65.11,8.75,8.75,0,0,1-1.51.11c-1,0-2.46.09-4.22.12h-.22v-.23c0-.89,0-1.84,0-2.84,0-.51,0-1,0-1.56v-1.61h0l.25-.26,5.73,0h.21v.22c0,1.86-.07,3.39-.11,4.44A10.81,10.81,0,0,1,386.05,260.42Z" style="fill:#263238"></path><path d="M475.63,353s0-.34,0-1,0-1.62,0-2.88c0-2.54,0-6.29,0-11.16,0-9.73-.05-23.95-.09-41.92l.15.16-198.47.1h0l.25-.26c0,19.59,0,38.69,0,56.94l-.24-.25,141.75.11,41.64.08,11.19,0h2.91l1,0-1,0h-2.88l-11.14,0-41.58.07-141.92.11h-.24V353c0-18.25,0-37.35,0-56.94v-.26h.26l198.47.1h.16v.16c0,18-.07,32.26-.09,42,0,4.85,0,8.59,0,11.12,0,1.25,0,2.2,0,2.85S475.63,353,475.63,353Z" style="fill:#263238"></path><path d="M475.63,310.41c0,.14-44.31.26-99,.26s-99-.12-99-.26,44.31-.26,99-.26S475.63,310.27,475.63,310.41Z" style="fill:#263238"></path><path d="M475.63,324.55c0,.14-44.31.26-99,.26s-99-.12-99-.26,44.31-.26,99-.26S475.63,324.41,475.63,324.55Z" style="fill:#263238"></path><path d="M475.63,338.84c0,.15-44.31.26-99,.26s-99-.11-99-.26,44.31-.26,99-.26S475.63,338.7,475.63,338.84Z" style="fill:#263238"></path><path d="M300.22,353.52c-.14,0-.25-12.88-.25-28.76s.11-28.77.25-28.77.25,12.88.25,28.77S300.36,353.52,300.22,353.52Z" style="fill:#263238"></path><path d="M367.34,351.79c-.14,0-.25-12.3-.25-27.47s.11-27.47.25-27.47.25,12.3.25,27.47S367.48,351.79,367.34,351.79Z" style="fill:#263238"></path><path d="M438.06,354.38c-.13,0-.24-12.68-.24-28.33s.11-28.33.24-28.33.25,12.68.25,28.33S438.2,354.38,438.06,354.38Z" style="fill:#263238"></path><path d="M471.69,365.78c0,.15-43.35.26-96.8.26s-96.8-.11-96.8-.26,43.33-.26,96.8-.26S471.69,365.64,471.69,365.78Z" style="fill:#263238"></path><path d="M471.69,374c0,.15-43.35.26-96.8.26s-96.8-.11-96.8-.26,43.33-.26,96.8-.26S471.69,373.87,471.69,374Z" style="fill:#263238"></path><path d="M348.54,382.24c0,.15-15.77.26-35.22.26s-35.23-.11-35.23-.26,15.77-.26,35.23-.26S348.54,382.1,348.54,382.24Z" style="fill:#263238"></path><g style="opacity:0.30000000000000004"><polygon points="224.58 353.27 235.88 353.27 235.85 343.54 224.58 343.54 224.58 353.27"></polygon></g><path d="M230,277c-19.66,0-35.65,15.56-35.65,34.69s16.18,34.7,35.84,34.7h5.68l-.09-8.23-5.59.23c-15.65,0-28.58-12-28.58-26.7S214.35,285,230,285s28.39,12,28.39,26.69a3.65,3.65,0,1,0,7.26,0C265.66,292.6,249.66,277,230,277Z" style="fill:#e0e0e0"></path><path d="M230,277s.28,0,.84,0l2.48.1c1.09.09,2.42.31,4,.55a40.54,40.54,0,0,1,5.3,1.51,36.76,36.76,0,0,1,12.74,8l1.54,1.64c.26.28.53.55.78.85l.72.93c.47.63,1,1.24,1.44,1.92l1.32,2.1a35.64,35.64,0,0,1,3.87,9.83,33.69,33.69,0,0,1,.72,5.66,8.35,8.35,0,0,1-.11,3,4.12,4.12,0,0,1-1.91,2.41,3.58,3.58,0,0,1-3.13.15,4,4,0,0,1-2.15-2.37,5,5,0,0,1-.28-1.62l-.09-1.58a21.77,21.77,0,0,0-.4-3.18A26,26,0,0,0,251.84,295a28.19,28.19,0,0,0-5.22-4.63,30.17,30.17,0,0,0-3.05-1.85c-.53-.28-1.09-.5-1.64-.76a12.17,12.17,0,0,0-1.67-.68l-1.73-.6c-.58-.17-1.19-.29-1.78-.44a29.28,29.28,0,0,0-3.65-.63,31.17,31.17,0,0,0-11.26,1c-.61.17-1.21.41-1.83.61l-.91.32-.89.39a27.92,27.92,0,0,0-6.66,4.08,26.1,26.1,0,0,0-5.35,5.88,24.27,24.27,0,0,0-3.37,7.32,22.25,22.25,0,0,0-.87,8.13,23.33,23.33,0,0,0,1.86,8.07,27.56,27.56,0,0,0,13.42,14,28.3,28.3,0,0,0,9.17,2.71,15.42,15.42,0,0,0,2.35.2,18.4,18.4,0,0,0,2.35,0l4.67-.19h.27v.26q0,4.19.08,8.22v.26h-.25c-2.11,0-4.2,0-6.27,0l-3.11-.15-3.05-.46a37.64,37.64,0,0,1-11.23-4.09c-.84-.51-1.71-1-2.5-1.52l-2.33-1.7-2.15-1.88a8.51,8.51,0,0,1-1-1l-1-1a34.87,34.87,0,0,1-6-9c-.41-.78-.65-1.63-1-2.44l-.46-1.21-.34-1.25c-.2-.83-.47-1.65-.62-2.48l-.39-2.48a33.69,33.69,0,0,1,.19-9.59,31.72,31.72,0,0,1,1-4.43,18.27,18.27,0,0,1,.73-2.08c.27-.68.48-1.37.8-2a33.77,33.77,0,0,1,2-3.68l1.07-1.71c.38-.55.8-1.05,1.19-1.57a35.44,35.44,0,0,1,10.41-9.05c.44-.25.86-.52,1.29-.75l1.31-.6a20.17,20.17,0,0,1,2.48-1.07l2.34-.82c.75-.22,1.48-.38,2.16-.55a26.83,26.83,0,0,1,3.68-.68c.53-.06,1-.16,1.48-.19l1.23,0,1.66-.06c.38,0,.57,0,.57,0l-.57,0-1.66.11-1.22.07c-.46,0-.94.14-1.48.21a27,27,0,0,0-3.65.71c-.68.18-1.4.34-2.15.57l-2.31.83a21.82,21.82,0,0,0-2.47,1.08l-1.29.61c-.43.23-.84.5-1.28.75a35.3,35.3,0,0,0-10.28,9c-.39.52-.8,1-1.17,1.56l-1.06,1.7a36,36,0,0,0-1.93,3.65c-.31.63-.51,1.32-.78,2A20,20,0,0,0,196,302a34.56,34.56,0,0,0-1.14,13.87l.39,2.45c.15.82.41,1.62.62,2.45l.33,1.23.46,1.2c.33.79.57,1.63,1,2.41a34.4,34.4,0,0,0,6,8.91l1,1a8.34,8.34,0,0,0,1,1l2.12,1.85L210,340c.78.56,1.64,1,2.47,1.5a37,37,0,0,0,11.09,4l3,.45,3.07.15c2.06.06,4.15,0,6.26,0l-.25.25q0-4.05-.09-8.23l.26.25-4.68.19a19,19,0,0,1-2.38,0,17.52,17.52,0,0,1-2.4-.2,28.62,28.62,0,0,1-9.33-2.76,28,28,0,0,1-13.67-14.22,23.8,23.8,0,0,1-1.9-8.24,28,28,0,0,1,.07-4.2,28.34,28.34,0,0,1,.82-4.1,24.91,24.91,0,0,1,3.44-7.47,27.08,27.08,0,0,1,5.45-6,28.09,28.09,0,0,1,6.79-4.14l.9-.4.94-.32c.62-.21,1.23-.45,1.86-.62a31.72,31.72,0,0,1,3.8-.8,31.08,31.08,0,0,1,7.64-.19,34.61,34.61,0,0,1,3.71.64c.6.16,1.21.28,1.81.46l1.75.61a14.9,14.9,0,0,1,1.71.69c.55.26,1.12.5,1.66.78a29.31,29.31,0,0,1,3.09,1.89,28.1,28.1,0,0,1,5.3,4.71,26.28,26.28,0,0,1,5.93,12.07,23.77,23.77,0,0,1,.41,3.23c0,.54.05,1.07.08,1.61a4.6,4.6,0,0,0,.25,1.48,3.61,3.61,0,0,0,1.92,2.13,3.14,3.14,0,0,0,2.77-.13,3.67,3.67,0,0,0,1.73-2.17,7.93,7.93,0,0,0,.11-2.84,34,34,0,0,0-.7-5.6,35.13,35.13,0,0,0-3.8-9.75l-1.29-2.08c-.45-.67-1-1.28-1.43-1.91l-.7-.92c-.25-.3-.52-.57-.78-.85l-1.52-1.63a36.6,36.6,0,0,0-12.6-8,42,42,0,0,0-5.26-1.55c-1.57-.25-2.9-.49-4-.6l-2.47-.15Z" style="fill:#263238"></path><g style="opacity:0.30000000000000004"><polygon points="224.58 456.93 218.31 474.18 523.28 474.18 523.28 456.93 224.58 456.93"></polygon></g><path d="M243.38,436.5s.45,0,1.33,0h3.92l15.1,0,55.84.28,187,1.13-.26.26V412.58c0-79.76.05-151.95.07-204.21,0-26.13.07-47.27.09-61.89,0-7.3,0-13,0-16.82,0-1.92,0-3.39,0-4.38s0-1.49,0-1.49,0,.5,0,1.49,0,2.46,0,4.38c0,3.85,0,9.52.05,16.82,0,14.62.05,35.76.08,61.89,0,52.26.05,124.45.08,204.21v25.88h-.26l-186.95-1.29-55.85-.45-15.09-.14-3.92-.05Z" style="fill:#263238"></path><path d="M239.05,432.25l1.33,0h19l55.72.13,186.67.61-.26.26c0-8.6,0-17.75,0-27,.12-80,.22-152.43.29-204.87.06-26.2.11-47.41.15-62.08,0-7.32.05-13,.06-16.88,0-1.92,0-3.39,0-4.39s0-1.49,0-1.49,0,.5,0,1.49,0,2.47,0,4.39c0,3.87,0,9.56,0,16.88,0,14.67,0,35.88,0,62.08,0,52.44-.08,124.86-.13,204.87,0,9.25,0,18.4,0,27v.26h-.26l-186.67-.78-55.72-.28-15.06-.11-3.91,0Z" style="fill:#263238"></path><path d="M247.26,440.57h5.25l15.08.05,55.76.28L509.85,442l-.26.26c0-7.53.06-15.56.09-23.66.33-79.07.63-150.63.85-202.44.14-25.9.25-46.86.32-61.35,0-7.24.09-12.86.11-16.68,0-1.9,0-3.35.05-4.34s0-1.48,0-1.48,0,.51,0,1.48,0,2.44,0,4.34c0,3.82,0,9.44,0,16.68,0,14.49-.09,35.45-.15,61.35-.18,51.81-.43,123.37-.7,202.44,0,8.1-.06,16.13-.09,23.66v.26h-.26l-186.5-1.28-55.76-.44-15.08-.14-3.92-.05Z" style="fill:#263238"></path><polygon points="502.03 144.82 526.52 144.82 535.25 154.62 527.66 166.3 502.01 166.3 502.03 144.82" style="fill:#455a64"></polygon></g><g id="freepik--Folders--inject-18"><path d="M19.88,307.43A3.36,3.36,0,0,1,17,303.62l4.16-28.92a2.78,2.78,0,0,1,3.23-2.26l2.72.39a2.88,2.88,0,0,0,2.8-1.18l.76-1.1a2.89,2.89,0,0,1,2.8-1.17l12.91,1.85a3,3,0,0,1,2.27,1.66l.49,1.1a2.9,2.9,0,0,0,2.26,1.66L67.89,278a2.78,2.78,0,0,1,2.46,3.07l-4.26,29.59a3.36,3.36,0,0,1-3.8,2.85Z" style="fill:#455a64"></path><g style="opacity:0.30000000000000004"><path d="M19.88,307.43A3.36,3.36,0,0,1,17,303.62l4.16-28.92a2.78,2.78,0,0,1,3.23-2.26l2.72.39a2.88,2.88,0,0,0,2.8-1.18l.76-1.1a2.89,2.89,0,0,1,2.8-1.17l12.91,1.85a3,3,0,0,1,2.27,1.66l.49,1.1a2.9,2.9,0,0,0,2.26,1.66L67.89,278a2.78,2.78,0,0,1,2.46,3.07l-4.26,29.59a3.36,3.36,0,0,1-3.8,2.85Z"></path></g><path d="M49.8,275.42l-10.46-1.53L38.65,272a3.65,3.65,0,0,0-2.93-2.32l-10.24-1.47a3.23,3.23,0,0,0-3.74,2.62L21.57,272l-4.52,31.41a3.69,3.69,0,0,0,3.25,4.05l41.57,6a3.68,3.68,0,0,0,4.25-3l4.27-29.67a2.42,2.42,0,0,0-2-2.74Z" style="fill:#455a64"></path><rect x="32.58" y="286.5" width="25" height="10.52" transform="translate(41.98 -3.44) rotate(8.18)" style="fill:#fff"></rect><path d="M53.72,292.38c0,.09-3.83-.38-8.52-1.06s-8.49-1.3-8.48-1.39,3.83.38,8.53,1.06S53.74,292.28,53.72,292.38Z" style="fill:#263238"></path><path d="M53.4,294.59c0,.1-3.83-.38-8.52-1s-8.49-1.3-8.48-1.39,3.83.38,8.53,1.05S53.42,294.5,53.4,294.59Z" style="fill:#263238"></path><path d="M73,268.9A2.21,2.21,0,0,1,70.44,267L67.7,248a1.84,1.84,0,0,1,1.62-2l1.78-.25a1.92,1.92,0,0,0,1.56-1.27l.27-.83a1.87,1.87,0,0,1,1.55-1.26L83,241.15a1.94,1.94,0,0,1,1.73.63l.51.6A1.94,1.94,0,0,0,87,243l10.82-1.56a1.83,1.83,0,0,1,2.12,1.48l2.81,19.45a2.22,2.22,0,0,1-1.88,2.5Z" style="fill:#F43F5E"></path><g style="opacity:0.30000000000000004"><path d="M73,268.9A2.21,2.21,0,0,1,70.44,267L67.7,248a1.84,1.84,0,0,1,1.62-2l1.78-.25a1.92,1.92,0,0,0,1.56-1.27l.27-.83a1.87,1.87,0,0,1,1.55-1.26L83,241.15a1.94,1.94,0,0,1,1.73.63l.51.6A1.94,1.94,0,0,0,87,243l10.82-1.56a1.83,1.83,0,0,1,2.12,1.48l2.81,19.45a2.22,2.22,0,0,1-1.88,2.5Z"></path></g><path d="M85.88,243.16l-6.88,1-.78-1.06a2.39,2.39,0,0,0-2.28-.91l-6.73,1a2.12,2.12,0,0,0-1.88,2.34l.12.78,3,20.65a2.4,2.4,0,0,0,2.79,1.95l27.33-3.94a2.42,2.42,0,0,0,2.13-2.66l-2.82-19.51a1.58,1.58,0,0,0-1.8-1.34Z" style="fill:#F43F5E"></path><rect x="77.71" y="250.89" width="16.43" height="6.91" transform="translate(-35.44 14.88) rotate(-8.21)" style="fill:#fff"></rect><path d="M91.5,253.13c0,.06-2.49.47-5.57.92s-5.6.75-5.61.69,2.49-.47,5.58-.91S91.49,253.07,91.5,253.13Z" style="fill:#263238"></path><path d="M91.71,254.59c0,.06-2.49.47-5.57.91s-5.6.76-5.61.7,2.49-.47,5.58-.91S91.7,254.53,91.71,254.59Z" style="fill:#263238"></path></g><g id="freepik--speech-bubble-2--inject-18"><path d="M617.65,164l6.51.84a21,21,0,1,0-2.6-7h0Z" style="fill:#fff"></path><path d="M617.65,164s.1-.14.27-.41.43-.67.76-1.19c.67-1,1.66-2.58,2.93-4.58h-.11a.07.07,0,0,0,.09,0,.07.07,0,0,0,0-.07,20.85,20.85,0,0,1,.81-10.27,21.63,21.63,0,0,1,1.28-3,23.72,23.72,0,0,1,1.87-2.9,20.78,20.78,0,0,1,13.2-8,21.1,21.1,0,0,1,8.84.45,20.81,20.81,0,0,1,15.17,22.4,21.26,21.26,0,0,1-3.24,9,20.52,20.52,0,0,1-6.44,6.29,20.88,20.88,0,0,1-15.41,2.66l-.86-.2A4.87,4.87,0,0,1,636,174l-1.62-.56a30.31,30.31,0,0,1-2.91-1.44,20.8,20.8,0,0,1-7.25-7.24.05.05,0,0,0-.05,0l-4.83-.58-1.25-.15-.44-.05.41.06,1.23.18,4.86.66,0,0a20.85,20.85,0,0,0,7.26,7.35,28.57,28.57,0,0,0,2.93,1.46l1.64.58a5.93,5.93,0,0,0,.85.24l.88.21A21,21,0,0,0,653.26,172a20.74,20.74,0,0,0,6.54-6.36,21.36,21.36,0,0,0,3.28-9.13,20.79,20.79,0,0,0-1.31-10.06,9.35,9.35,0,0,0-.5-1.17l-.55-1.15-.65-1.08a8.27,8.27,0,0,0-.69-1.05c-.25-.34-.5-.67-.74-1a12.26,12.26,0,0,0-.82-.94c-.28-.3-.54-.63-.84-.91l-.91-.83a20.79,20.79,0,0,0-8.37-4.5A21.14,21.14,0,0,0,631,136.36a20.82,20.82,0,0,0-5.56,5.13,23.47,23.47,0,0,0-1.88,2.94,20.14,20.14,0,0,0-1.27,3,20.93,20.93,0,0,0-.76,10.37l.12,0h0a.07.07,0,0,0-.09,0l0,0-2.88,4.67-.73,1.19Z" style="fill:#263238"></path><path d="M636.43,150.34h2.85a2.43,2.43,0,0,1,2.49-2.44,2.31,2.31,0,0,1,2.24,1.48,2.56,2.56,0,0,1-.2,2.31c-.49.8-1.55,1.52-3.47,1.18v6.44h2.82v-3.77a5.51,5.51,0,0,0,4-5.39c0-4.17-3.74-5.14-5.35-5.14C640.55,145,636.37,145.31,636.43,150.34Z" style="fill:#263238"></path><rect x="640.33" y="160.64" width="2.87" height="2.68" style="fill:#263238"></rect></g><g id="freepik--speech-bubble-1--inject-18"><path d="M105.79,218l-7.33-.08a23.58,23.58,0,1,1,4.75-7h0Z" style="fill:#fff"></path><path d="M105.79,218l-.19-.47c-.12-.33-.29-.78-.52-1.36-.45-1.21-1.11-2.95-2-5.2l.19,0h0a.11.11,0,0,1-.19-.12,23.47,23.47,0,0,0,1.89-11.3,23.1,23.1,0,0,0-1.81-7.25,23.27,23.27,0,0,0-40.63-4.13c-.27.4-.54.79-.8,1.2l-.68,1.25-.33.63-.28.65-.56,1.3a23.94,23.94,0,0,0-1.29,5.41,23.35,23.35,0,0,0,29.94,25.07,23.28,23.28,0,0,0,9.82-5.88l.08,0,5.42.13,1.42,0,.49,0H98.46l.08,0a23.46,23.46,0,0,1-9.88,6.05,23.8,23.8,0,0,1-29.34-14.63,24.15,24.15,0,0,1,.11-16.36l.56-1.33.29-.67.34-.64.7-1.28c.26-.41.54-.81.81-1.22A23.73,23.73,0,0,1,98.87,185a23.38,23.38,0,0,1,4.68,7.19,22.92,22.92,0,0,1,1.79,7.37,23.56,23.56,0,0,1-2,11.42l-.19-.11h0a.1.1,0,0,1,.15,0,.1.1,0,0,1,0,0l1.86,5.32.46,1.35A3.75,3.75,0,0,1,105.79,218Z" style="fill:#263238"></path><path d="M80.5,206.54a7.65,7.65,0,1,1,4.3-1.33A7.63,7.63,0,0,1,80.5,206.54Zm0-13.29a5.59,5.59,0,0,0-3.18,1,5.67,5.67,0,1,0,3.18-1Z" style="fill:#263238"></path><path d="M88.64,211.83a1,1,0,0,1-.83-.44L83.41,205a1,1,0,0,1,.26-1.39,1,1,0,0,1,1.4.26l4.39,6.44a1,1,0,0,1-.26,1.39A1,1,0,0,1,88.64,211.83Z" style="fill:#263238"></path></g></svg>