<svg xmlns="http://www.w3.org/2000/svg" xmlns:xlink="http://www.w3.org/1999/xlink" width="425" height="360" fill="none" xmlns:v="https://vecta.io/nano"><style><![CDATA[.B{fill:#fff}.C{stroke-linejoin:round}.D{stroke:#263238}.E{opacity:.2}.F{fill:#0f172a}.G{stroke-linecap:round}.H{fill:#f43f5e}.I{fill:#263238}]]></style><g clip-path="url(#A)"><use xlink:href="#B" class="H"/><use xlink:href="#B" opacity=".7" class="B"/><g class="C"><path d="M202.96 128.85c-2.648-.542-5.088-1.825-7.036-3.7s-3.322-4.264-3.964-6.89c-2.19-9.12 3.65-11.68-2.19-15.69s-8-10.59-3.28-17.52 34.67-34.32 63.51-31.4 40.52 52.2 42.71 66.8-5.11 26.65-2.56 34 22.64 35 17.16 47.82-15 33.22-9.86 43.07-12 30.3-28.47 36.87c-12.54 5-35.77 6.94-47.82-15.33s-12-66.07-13.5-90.16-.37-33.22-.37-39.79-4.33-8.08-4.33-8.08z" class="D I"/><g stroke="#475569" class="G"><path d="M240.95 72.23s11.23 37.16 42.77 56.17m-41.48-64.81s18.58 23.33 29.82 40.18S288.53 131 288.53 131M257.8 61.86s32.41 41.05 32.41 66.11m-60.5-60.06s-37.59 15.16-38.89 20.74 5.19 9.07 5.19 9.07m35.43-35.43s-31.55 7.78-40.19 19.44m73.89 44.08s13 8.21 15.13 17.72-8.64 16-3.89 25.06 20.74 11.67 20.74 25.93"/></g></g><use xlink:href="#C" class="H"/><g class="E F"><path d="M250.3 214.41l2.56-6.52-.28-.1-2.56 6.51.28.11zm4.42-5.78l-.28-.11-2.56 6.51.28.11 2.56-6.51zm44.94 28.26l-.23.19 2.14 2.62h.39l-2.3-2.81z"/><use xlink:href="#D"/><use xlink:href="#E"/><use xlink:href="#F"/><path d="M284.89 236.29l-.29-.07-.36 1.42.21.4.44-1.75zm1.94.5l-.29-.08-.76 2.99h.31l.74-2.91zm-23.3-1.02l-.29-.09-1.14 4.02h.31l1.12-3.93zm.96 3.93l.96-3.39-.29-.08-.98 3.47h.31z"/><use xlink:href="#G"/><path d="M255.44 235.87l-.28.09 1.12 3.74h.31l-1.15-3.83zm8.18-14.9l3.48-6.07-.26-.15-3.48 6.07.26.15zm4.961-5.215l-3.48 6.073.26.15 3.48-6.074-.26-.149zm35.449 12.365l1.09.46-.2-.4-.77-.33-.12.27zm-22.35-27.78l3.48-6.07-.26-.15-3.48 6.08.26.14zm-1.73-.99l3.47-6.07-.26-.15-3.48 6.07.27.15zm-12.789-5.935l-.232.19 4.433 5.417.232-.19-4.433-5.417zm1.552-1.277l-.232.19 4.433 5.418.232-.19-4.433-5.418zm-9.303 3.098l-.282.102 2.377 6.584.282-.101-2.377-6.585zm1.883-.693l-.282.102 2.375 6.585.282-.102-2.375-6.585zm19.077 31.987l2.02 6.71.28-.09-2.01-6.7-.29.08zm10.22 2.74l6.93-.98-.04-.29-6.93.97.04.3zm7.17.71l-6.93.97.04.3 6.93-.98-.04-.29zm-1.83-7.26l.3.06 1.56-6.82-.29-.07-1.57 6.83zm2.25.51l1.46-6.38-.21-.45-1.55 6.76.3.07zm-23.3-4.4l.26.16 3.74-5.91-.25-.16-3.75 5.91zm5.69-4.68l-.25-.16-3.75 5.91.26.16 3.74-5.91zm-6.62-7.09l.11.27 6.42-2.79-.12-.28-6.41 2.8zm.8 1.83l.11.28 6.42-2.8-.12-.28-6.41 2.8zm-6.063-5.636l-1.905 6.736.288.082 1.905-6.736-.288-.082zm-1.935-.542l-1.905 6.735.289.082 1.905-6.736-.289-.081zm23.538-2.752l2.01 6.7.29-.08-2.02-6.71-.28.09zm-1.92.57l2.02 6.71.28-.09-2.01-6.7-.29.08zm-15.32-12.98l.18.24 5.59-4.22-.18-.24-5.59 4.22zm1.21 1.6l.18.24 5.59-4.22-.18-.24-5.59 4.22zm-6.88-12.19l1.94 6.72.29-.08-1.94-6.73-.29.09zm-1.92.55l1.94 6.72.29-.08-1.94-6.72-.29.08zm-6.688-.402l-.412 6.988.3.018.411-6.988-.299-.018zm1.997.111l-.411 6.988.299.017.412-6.988-.3-.017zm6.641 53.221l.24.18 4.25-5.56-.24-.18-4.25 5.56zm1.82 1.4l.57-.73 1.05-1.87-1.86 2.42.24.18zm-5.35-2.35l.21-.21-4.84-5.05-.22.21 4.85 5.05zm-6.29-3.67l4.84 5.05.22-.2-4.85-5.05-.21.2zm26.567-8.959l-.118.276 6.444 2.734.118-.276-6.444-2.734z"/><use xlink:href="#H"/><use xlink:href="#I"/><path d="M248.53 172.76l4.25 2.28.14-.26-4.39-2.37v.35zm0 12.46v.4l2.65-2.3-.19-.22-2.46 2.12z"/><use xlink:href="#J"/><path d="M248.53 193.73v.32l6.31-2.47-.12-.27-6.19 2.42zm0-1.82l5.58-2.19-.11-.28-5.47 2.14v.33z"/><use xlink:href="#K"/><path d="M248.53 201.09v.31l4.16.94.07-.29-4.23-.96zm3.71 24.75l.08-.29-3.79-.96v.31l3.71.94zm-3.71-3.01l4.2 1.07.08-.29-4.28-1.09v.31zm4.69 9.06l-.09-.28-4.6 1.52v.31l4.69-1.55zm-.62-1.89l-.1-.29-3.97 1.31v.32l4.07-1.34z"/><use xlink:href="#L"/><path d="M254.44 280.52l-2.56 6.51.28.11 2.56-6.51-.28-.11zm63.25-20.85l.2.23-.06-.34-.14.11zm-1.11-1.29l.88-.75c0-.11-.05-.23-.08-.33l-1 .86.2.22zm-63.34 50.15l.95 3.17h.31l-.97-3.25-.29.08zm1.92-.57l1.12 3.74h.31l-1.15-3.83-.28.09z"/><use xlink:href="#M"/><path d="M290.93 250.58l4.43 5.42.24-.19-4.44-5.42-.23.19zm20.17 14.651l-1.723 6.785.29.074 1.723-6.785-.29-.074zm1.918.452l-1.724 6.785.29.074 1.725-6.785-.291-.074zm-10.308 3.957l-1.72-.72.5.53 1.1.47.12-.28zm-44.05-18.57l.34-.61.08-1.36h-.3l-.12 1.97zm-.92 46.61l-.15.14.22.23-.07-.37zm50.81-38.83l-.23-.19-4.41 5.44.24.19 4.4-5.44zm-1.56-1.26l-.23-.19-4.4 5.44.23.19 4.4-5.44z"/><use xlink:href="#N"/><use xlink:href="#O"/><path d="M251.84 248.81l.14-.27-3.45-1.85v.34l3.31 1.78zm1.08-2.03l-4.39-2.36v.34l4.25 2.28.14-.26zm-4.39 10.84l2.65-2.3-.19-.22-2.46 2.12v.4zm1.35-3.81l-.2-.23-1.15 1v.39l1.35-1.16zm-1.35 11.92v.34l3.73-1.46v-.31l-3.73 1.43zm0-1.82l4.25-1.67.19-.4-4.44 1.74v.33zm3.72 12.38l.07-.29-3.79-.86v.31l3.72.84zm-3.72-2.89l4.16.94.07-.29-4.23-.96v.31zm3.71 24.44l.08-.29-3.79-.96v.31l3.71.94zm-3.71-3.01l4.2 1.07.08-.29-4.28-1.09v.31zm4.69 9.06l-.09-.28-4.6 1.52v.31l4.69-1.55zm-.62-1.89l-.1-.29-3.97 1.31v.32l4.07-1.34zm57.76-58.68l.26.15.77-1.34-.15-.33-.88 1.52zm1.74 1l.26.15v-.08l-.15-.34-.11.27zm-8-2.01l-2.14-2.61h-.39l2.29 2.8.24-.19z"/><use xlink:href="#P"/><path d="M293.26 239.7l2.25 6.23.28-.11-2.21-6.12h-.32z"/><use xlink:href="#Q"/><path d="M285.78 239.7l-.16.63.21.41.26-1-.31-.04zm-24.16 2.8l.79-2.8h-.31l-.77 2.72.29.08zm1.75.08l.63-1.14.5-1.74h-.32l-.81 2.88z"/><use xlink:href="#R"/><path d="M257.46 242.58l-.87-2.88h-.31l.89 2.96.29-.08zm-4.88 109.21l-2.56 6.51.28.11 2.56-6.52-.28-.1zm1.86.73l-2.33 5.93h.32l2.29-5.82-.28-.11z"/><use xlink:href="#S"/><path d="M261.296 338.546l-.283.102 2.376 6.584.282-.101-2.375-6.585zm6.444 13.064c0-.21-.09-.43-.13-.66l-.85 3 .29.08.69-2.42zm-.84-4.41l-.09-.5h-.07l-1.91 6.74.29.08 1.78-6.32zm-8.112-26.07l-.406 6.988.299.018.407-6.988-.3-.018zm2.006.12l-.406 6.989.299.017.407-6.988-.3-.018zm-8.954-.44l.14-.27-3.45-1.85v.34l3.31 1.78zm1.08-2.03l-4.39-2.36v.34l4.25 2.28.14-.26zm-4.39 10.84l2.65-2.3-.19-.22-2.46 2.12v.4zm1.35-3.81l-.2-.23-1.15 1v.39l1.35-1.16z"/><use xlink:href="#T"/><path d="M254.11 333.72l-.11-.28-5.47 2.14v.33l5.58-2.19zm-1.86 14.57l.07-.29-3.79-.86v.31l3.72.84zm.44-1.95l.07-.29-4.23-.96v.31l4.16.94zm2.57-31.1l.28-.09-1.04-3.45h-.31l1.07 3.54zm1.91-.58l.29-.08-.87-2.88h-.31l.89 2.96zm-16.73-146.97h.35l.74-1.29-.28-.11-.81 1.4zm2.65 0l.31-.54-.28-.11-.37.65h.34z"/><use xlink:href="#U"/><path d="M228.98 163.82l3.18 3.88h.38l-3.33-4.07-.23.19zm-7.57 3.42l-.28.1.13.36h.32l-.17-.46zm1.89-.68l-.29.1.38 1.04h.32l-.41-1.14zm-42.72 41.23l-2.56 6.51.28.11 2.56-6.52-.28-.1zm1.86.73l-2.56 6.51.28.11 2.56-6.51-.28-.11zm66.09-33.83l-2.72-1.47-.14.27 2.86 1.54v-.34zm-1.77-3.23l-.14.27 1.91 1.03v-.35l-1.77-.95z"/><use xlink:href="#V"/><path d="M244.58 186.38l3.95-3.41v-.39l-4.14 3.58.19.22z"/><use xlink:href="#W"/><path d="M247.48 192l.11.27.94-.36v-.33l-1.05.42zm-2.06 10.75l3.11.7v-.31l-3.04-.68-.07.29z"/><use xlink:href="#X"/><path d="M245.46 224.12l3.07.78v-.31l-3-.76-.07.29z"/><use xlink:href="#Y"/><path d="M248.53 233.44v-.31l-2.05.67.1.29 1.95-.65z"/><use xlink:href="#Z"/><path d="M207.37 171.24l-1.9-.81-.48.12 2.27 1 .11-.31zm-.78 1.83l-4.42-1.87-.51.1 4.82 2 .11-.23zm33.85 66.63h.35l1.31-2.3-.26-.15-1.4 2.45zm2.65 0l.75-1.31-.26-.15-.83 1.46h.34zm-15.66-2.62l2.14 2.62h.39l-2.3-2.81-.23.19zm1.55-1.26l3.18 3.88h.38l-3.33-4.07-.23.19zm-7.57 3.42l-.28.1.13.36h.32l-.17-.46zm1.6-.58l.38 1.04h.32l-.41-1.14-.29.1zm-10.12-2.36l-.29-.08-.88 3.48h.31l.86-3.4zm1.94.49l-.29-.08-.76 2.99h.31l.74-2.91zm-23.3-1.02l-.29-.09-1.14 4.02h.31l1.12-3.93zm1.92.54l-.29-.08-.98 3.47h.32l.95-3.39zm-12.21.22l.95 3.17h.31l-.97-3.25-.29.08zm1.92-.57l1.12 3.74h.31l-1.15-3.83-.28.09zm8.46-14.99l3.48-6.07-.26-.15-3.48 6.07.26.15zm1.74.99l3.48-6.07-.26-.15-3.48 6.08.26.14zm27.355-44.815l-.232.19 4.432 5.417.233-.19-4.433-5.417zm-3.377 1.158l-.231.189 4.41 5.39.231-.189-4.41-5.39zm-4.429 2.434l-.282.102 2.377 6.584.282-.101-2.377-6.585zm1.883-.691l-.283.102 2.376 6.584.282-.102-2.375-6.584zm18.018 46.234l6.45 2.74.11-.28-6.44-2.73-.12.27z"/><use xlink:href="#a"/><path d="M239.375 210.897l-1.904 6.736.288.082 1.905-6.736-.289-.082zm1.914.524l-1.911 6.734.289.082 1.91-6.734-.288-.082zm-12.329-5.811l2.01 6.71.29-.09-2.02-6.7-.28.08z"/><use xlink:href="#b"/><path d="M212.892 194.109l-3.48 6.074.26.149 3.48-6.074-.26-.149zm-1.73-.994l-3.479 6.075.261.149 3.479-6.074-.261-.15zm-16.005.303l-.232.19 4.433 5.418.232-.19-4.433-5.418zm1.552-1.286l-.232.19 4.432 5.417.232-.19-4.432-5.417zm-9.301 3.113l-.282.102 2.376 6.584.283-.102-2.377-6.584zm1.888-.695l-.282.102 2.376 6.584.282-.102-2.376-6.584z"/><use xlink:href="#c"/><path d="M241.018 193.685l-1.729 6.783.291.074 1.729-6.783-.291-.074zm-17.537 3.071l-.117.276 6.445 2.733.117-.277-6.445-2.732zm.791-1.84l-.117.276 6.444 2.734.117-.276-6.444-2.734z"/><use xlink:href="#d"/><path d="M210.67 233.15l-2.01-6.7-.29.08 2.02 6.71.28-.09zm7.92-3.88l6.93-.98-.04-.29-6.93.97.04.3zm7.21 1l-.04-.29-6.93.97.04.3 6.93-.98zm-.3-14.38l-1.57 6.83.3.06 1.56-6.82-.29-.07zm.68 7.34l1.56-6.82-.29-.07-1.57 6.82.3.07z"/><use xlink:href="#e"/><path d="M208.57 214.15l-.25-.16-3.75 5.91.25.16 3.75-5.91zm-.214-9.871l-6.417 2.798.12.275 6.417-2.798-.12-.275zm.811 1.799l-6.416 2.799.12.275 6.416-2.799-.12-.275zm-12.493-2.821l-1.904 6.736.288.082 1.905-6.736-.289-.082zm-1.924-.542l-1.905 6.736.289.081 1.905-6.736-.289-.081zm23.54-2.755l2.01 6.7.29-.08-2.02-6.71-.28.09zm-1.92.57l2.02 6.71.28-.09-2.01-6.7-.29.08zm-9.726-17.224l-5.588 4.216.18.239 5.589-4.215-.181-.24zm1.204 1.627l-5.59 4.213.181.24 5.589-4.214-.18-.239zm-11.784-8.755l-.288.084 1.96 6.72.288-.084-1.96-6.72zm-2.316 1.244l-.288.083 1.943 6.725.289-.083-1.944-6.725zm-6.966-.313l-.41 6.988.299.017.41-6.988-.299-.017zm1.997.12l-.41 6.988.299.018.41-6.988-.299-.018zm6.631 53.211l.24.18 4.25-5.56-.24-.18-4.25 5.56zm6.08-4.16l-.24-.18-4.25 5.56.23.18 4.26-5.56zm-9.61 3.21l.21-.21-4.84-5.05-.22.21 4.85 5.05zm-6.29-3.67l4.85 5.05.21-.2-4.85-5.05-.21.2zm46.32-33.72l.24.19 4.4-5.44-.23-.19-4.41 5.44zm-1.32-1.07l4.4-5.44-.23-.19-4.4 5.44.23.19zm4.32-9.02l.3.04.78-6.96-.29-.03-.79 6.95zm-1.2-7.18l-.79 6.96.3.03.79-6.95-.3-.04zm-21.565 42.032l-.117.276 6.444 2.734.117-.276-6.444-2.734zm.665-1.582l6.45 2.74.11-.28-6.44-2.73-.12.27zm-35.17-39.66l2.2 1.19.14-.27-2.07-1.11-.27.19zm3.14-.55l.15-.26-1-.52-.34.16 1.19.62zm-1.59 8.25l-.2-.22-2.46 2.12v.4l2.66-2.3zm-1.31-1.51l-.2-.23-1.15 1v.39l1.35-1.16zm4.84 9.5l-6.19 2.42v.32l6.31-2.47-.12-.27zm-6.19.27v.33l5.58-2.19-.11-.28-5.47 2.14zm3.72 12.71l.07-.29-3.79-.86v.31l3.72.84zm-3.72-2.89l4.16.94.07-.29-4.23-.96v.31zm3.79 24.15l-3.79-.96v.31l3.71.94.08-.29zm.49-1.94l-4.28-1.09v.31l4.21 1.07.07-.29zm-4.28 9.52v.31l4.69-1.55-.09-.28-4.6 1.52zm4.07-3.13l-.1-.29-3.97 1.31v.32l4.07-1.34zm57.76-58.68l.26.15 2.17-3.77h-.35l-2.08 3.62zm1.74 1l.26.15 2.73-4.77h-.34l-2.65 4.62z"/><use xlink:href="#f"/><path d="M233.41 169.23l.23-.19-1.1-1.34h-.38l1.25 1.53zm-9.62 4.59l-2.21-6.12h-.32l2.25 6.22.28-.1zm1.88-.68l-1.96-5.44h-.32l2 5.55.28-.11zM210.88 171l.29.08.59-2.35-.33.1-.55 2.17zm1.93.5l.3.07.9-3.55-.34.12-.86 3.36zm-32.23 108.29l-2.56 6.51.28.11 2.56-6.52-.28-.1zm1.86.73l-2.56 6.51.28.11 2.56-6.51-.28-.11zm63.23-35.03l2.86 1.54v-.34l-2.72-1.47-.14.27zm1.09-2.03l-.14.27 1.91 1.03v-.34l-1.77-.96zm-1.07 16.21l.2.23 2.64-2.28v-.4l-2.84 2.45zm2.84-4.7v-.39l-4.14 3.58.19.22 3.95-3.41zm-.32 10.89l.11.28.21-.09v-.32l-.32.13zm-.73-1.86l.11.27.94-.36v-.33l-1.05.42z"/><use xlink:href="#g"/><path d="M245.93 272.51l-.07.29 2.67.6v-.31l-2.6-.58zm2.6 24.08l-3-.76-.07.29 3.07.78v-.31zm-2.5-2.7l-.08.29 2.58.65v-.31l-2.5-.63zm2.5 11.55v-.31l-2.05.67.1.29 1.95-.65zm0-2.1v-.32l-2.67.88.09.29 2.58-.85zm-41.16-60.1l-6.44-2.73-.12.27 6.45 2.74.11-.28zm-7.217-.872l-.117.277 6.444 2.734.117-.277-6.444-2.734zM242.1 309.4l-.26-.15-1.4 2.45h.35l1.31-2.3zm1.74.99l-.26-.15-.83 1.46h.34l.75-1.31zm-16.41-1.31l2.14 2.62h.39l-2.3-2.81-.23.19zm1.55-1.26l3.18 3.88h.38l-3.33-4.07-.23.19zm-7.57 3.42l-.28.1.13.36h.32l-.17-.46zm1.6-.58l.38 1.04h.32l-.41-1.14-.29.1zm-10.12-2.36l-.29-.08-.88 3.48h.31l.86-3.4zm1.94.49l-.29-.08-.76 2.99h.31l.74-2.91zm-23.3-1.02l-.29-.09-1.14 4.02h.31l1.12-3.93zm1.92.54l-.29-.08-.98 3.47h.32l.95-3.39zm-12.21.22l.95 3.17h.31l-.97-3.25-.29.08zm1.92-.57l1.12 3.74h.31l-1.15-3.83-.28.09zm11.68-21.21l-3.48 6.07.26.15 3.48-6.07-.26-.15zm2 1.14l-.26-.15-3.48 6.08.26.14 3.48-6.07zm28.3-33.35l-4.43-5.41-.23.19 4.43 5.41.23-.19zm-1.54 1.27l-4.44-5.42-.23.19 4.43 5.42.24-.19zm-10.693-3.07l-.282.101 2.377 6.585.282-.102-2.377-6.584zm1.891-.688l-.282.102 2.376 6.585.282-.102-2.376-6.585zm24.572 48.688l-6.44-2.73-.12.27 6.45 2.74.11-.28zm-7.216-.872l-.117.276 6.444 2.734.117-.276-6.444-2.734zm7.224-16.959l-1.904 6.736.288.082 1.905-6.736-.289-.082zm1.917.514l-1.911 6.735.289.081 1.91-6.734-.288-.082zm-10.035.807l-2.02-6.7-.28.08 2.01 6.71.29-.09zm1.91-.58l-2.01-6.7-.29.08 2.02 6.71.28-.09zm-20.27-17.53l-3.48 6.08.26.14 3.48-6.07-.26-.15zm-1.48-.84l-.26-.15-3.47 6.07.25.15 3.48-6.07z"/><use xlink:href="#h"/><path d="M201.14 269.54l-4.43-5.41-.23.19 4.43 5.41.23-.19zm-13.734-2.303l-.282.102 2.377 6.584.282-.102-2.377-6.584zm1.897-.691l-.282.102 2.375 6.584.283-.101-2.376-6.585zm49.78-1.348l-1.729 6.783.291.074 1.729-6.783-.291-.074zm1.944.481l-1.729 6.783.291.074 1.729-6.783-.291-.074zm-11.107 5.801l-6.44-2.73-.12.28 6.45 2.73.11-.28zm.79-1.84l-6.45-2.73-.11.27 6.44 2.74.12-.28zm-21.95 36.09l-2.02-6.7-.28.08 2.01 6.71.29-.09zm1.91-.58l-2.01-6.7-.29.08 2.02 6.71.28-.09zm7.92-3.88l6.93-.98-.04-.29-6.93.97.04.3zm7.21 1l-.04-.29-6.93.97.04.3 6.93-.98zm-.3-14.38l-1.57 6.83.3.06 1.56-6.82-.29-.07zm1.95.45l-1.57 6.82.3.07 1.56-6.82-.29-.07zm-20.57-3.26l-.25-.16-3.75 5.91.25.16 3.75-5.91zm1.69 1.07l-.25-.16-3.75 5.91.25.16 3.75-5.91zm-.215-9.873l-6.417 2.798.12.275 6.417-2.798-.12-.275zm.81 1.81l-6.416 2.8.12.275 6.416-2.8-.12-.275zm-12.488-2.833l-1.911 6.734.289.082 1.91-6.735-.288-.081zm-1.953-.595l-1.912 6.734.289.082 1.912-6.734-.289-.082zm25.866 3.921l-2.02-6.71-.28.09 2.01 6.7.29-.08zm-1.92.57l-2.01-6.7-.29.08 2.02 6.71.28-.09zm-12.03-23.82l-5.59 4.22.18.24 5.59-4.22-.18-.24zm1.209 1.607l-5.59 4.214.18.239 5.59-4.213-.18-.24zm-10.239-1.347l-1.94-6.72-.29.09 1.94 6.72.29-.09zm-4.15-6.08l1.94 6.73.29-.09-1.94-6.72-.29.08zm-6.672-.384l-.407 6.989.3.017.406-6.988-.299-.018zm1.996.121l-.407 6.988.3.017.406-6.988-.299-.017zM199.9 297.06l-.24-.18-4.25 5.56.24.18 4.25-5.56zm1.59 1.22l-.24-.18-4.25 5.56.23.18 4.26-5.56zm-14.46-1.84l4.85 5.05.21-.21-4.84-5.05-.22.21zm3.62 6.23l-4.85-5.05-.21.2 4.85 5.05.21-.2zm45.9-43.82l-.23-.19-4.41 5.44.24.19 4.4-5.44zm-1.79-1.45l-4.4 5.44.23.19 4.4-5.44-.23-.19zm1.23-10.31l-.29-.03-.79 6.95.3.04.78-6.96zm-2.28-.26l-.79 6.96.3.03.79-6.95-.3-.04zm-21.563 42.043l-.117.276 6.444 2.734.117-.276-6.444-2.734zm.663-1.593l6.45 2.74.11-.28-6.44-2.73-.12.27zm-32.97-38.47l.14-.27-3.45-1.85v.34l3.31 1.78zm.94-1.77l.15-.26-4.4-2.36v.34l4.25 2.28zm-1.59 8.28l-.2-.22-2.46 2.12v.4l2.66-2.3zm-1.31-1.51l-.2-.23-1.15 1v.39l1.35-1.16zm4.84 9.5l-6.19 2.42v.32l6.31-2.47-.12-.27zm-.61-1.59l-.11-.28-5.47 2.14v.33l5.58-2.19zm-1.86 14.57l.07-.29-3.79-.86v.31l3.72.84zm-3.72-2.89l4.16.94.07-.29-4.23-.96v.31zm3.71 24.44l.08-.29-3.79-.96v.31l3.71.94zm-3.71-3.01l4.21 1.07.07-.29-4.28-1.09v.31zm4.69 9.06l-.09-.28-4.6 1.52v.31l4.69-1.55zm-.62-1.89l-.1-.29-3.97 1.31v.32l4.07-1.34zm57.76-58.68l.26.15 2.17-3.77h-.35l-2.08 3.62zm1.74 1l.26.14 2.73-4.76h-.34l-2.65 4.62zm-8.24-1.82l.24-.19-2.14-2.61h-.39l2.29 2.8zm1.55-1.27l.23-.19-1.1-1.34h-.38l1.25 1.53z"/><use xlink:href="#i"/><path d="M225.39 245.25l.28-.11-1.96-5.44h-.32l2 5.55zm-13.67-5.55l-.84 3.3.29.08.86-3.38h-.31zm1.38 3.87l.99-3.87h-.31l-.97 3.8.29.07zm-23.48-1.07l.79-2.8h-.31l-.77 2.72.29.08zm2.56-2.8l-.92 3.26.29.09.95-3.35h-.32zm-8.92 3.54l.28-.09-1.04-3.45h-.31l1.07 3.54zm1.91-.58l.29-.08-.87-2.88h-.31l.89 2.96zm-4.59 109.13l-2.56 6.51.28.11 2.56-6.52-.28-.1zm1.86.73l-2.33 5.93h.32l2.29-5.82-.28-.11zm63.23-35.03l2.86 1.54v-.34l-2.72-1.47-.14.27zm1.09-2.03l-.14.27 1.91 1.03v-.34l-1.77-.96zm-1.07 16.21l.2.23 2.64-2.28v-.4l-2.84 2.45zm2.84-4.7v-.39l-4.14 3.58.19.22 3.95-3.41zm-.32 10.89l.11.28.21-.09v-.32l-.32.13zm.32-2.28l-1.05.42.11.27.94-.36v-.33zm0 11.56l-3.04-.68-.07.29 3.11.7v-.31zm0-2.05l-2.6-.58-.07.29 2.67.6v-.31zm-41.16-29.85l-6.44-2.73-.12.27 6.45 2.74.11-.28zm-7.226-.871l-.117.277 6.444 2.734.118-.277-6.445-2.734zm24.996 12.171l-4.43-5.41-.23.19 4.43 5.41.23-.19zm-1.54 1.27l-4.44-5.42-.23.19 4.43 5.42.24-.19zm-10.694-3.068l-.283.102 2.377 6.584.282-.102-2.376-6.584zm1.898-.693l-.282.101 2.376 6.585.282-.102-2.376-6.584zm24.566 30.831l-1.02 3.57h.32l.99-3.49-.29-.08zm1.92.54l-.86 3.03h.31l.84-2.95-.29-.08zm-10.03.81l-2.02-6.7-.28.08 2.01 6.71.29-.09zm1.91-.58l-2.01-6.7-.29.08 2.02 6.71.28-.09zm-20.01-17.38l-.26-.15-3.48 6.08.26.14 3.48-6.07zm-2-1.14l-3.47 6.07.25.15 3.48-6.07-.26-.15zm-11.56 5.68l-4.44-5.42-.23.19 4.44 5.42.23-.19zm1.54-1.27l-4.43-5.41-.23.19 4.43 5.41.23-.19zm-13.736-2.301l-.282.102 2.377 6.584.282-.102-2.377-6.584zm1.895-.686l-.282.101 2.376 6.585.282-.102-2.376-6.584zm49.803-1.331l-1.729 6.783.291.074 1.729-6.783-.291-.074zm1.924.451l-1.729 6.783.291.074 1.729-6.783-.291-.074zm-11.106 5.807l-6.44-2.73-.12.28 6.45 2.73.11-.28zm.79-1.84l-6.45-2.73-.11.27 6.44 2.74.12-.28zm-24.08 15.28l-.98 1.53h.36l.87-1.37-.25-.16zm1.69 1.07l-.3.46h.36l.19-.3-.25-.16zm.034-9.715l-6.417 2.798.12.275 6.417-2.798-.12-.275zm.803 1.81l-6.416 2.801.12.275 6.416-2.801-.12-.275zm-12.474-2.819L194.772 354l.289.082 1.91-6.734-.288-.082zm-1.956-.613l-1.912 6.734.289.082 1.911-6.734-.288-.082zm25.863 3.927l-2.02-6.71-.28.09 2.01 6.7.29-.08zm-1.92.57l-2.01-6.7-.29.08 2.02 6.71.28-.09zm-11.85-23.58l-.18-.24-5.59 4.22.18.24 5.59-4.22zm1.019 1.371l-5.589 4.214.18.239 5.59-4.213-.181-.24zm-10.229-1.351l-1.94-6.72-.29.09 1.94 6.72.29-.09zm-4.15-6.08l1.94 6.73.29-.09-1.94-6.72-.29.08zm-6.674-.381l-.406 6.988.299.017.407-6.988-.3-.017zm2.006.12l-.406 6.988.299.018.407-6.989-.3-.017zm47.528 9.411l-4.41 5.44.24.19 4.4-5.44-.23-.19zm-5.73 4.37l4.4-5.44-.23-.19-4.4 5.44.23.19zm5.4-15.94l-.29-.03-.79 6.95.3.04.78-6.96zm-2.28-.26l-.79 6.96.3.03.79-6.95-.3-.04zm-53.87 1.98l.14-.27-3.45-1.85v.34l3.31 1.78zm1.09-2.03l-4.4-2.36v.34l4.25 2.28.15-.26zm-4.4 10.84l2.66-2.3-.2-.22-2.46 2.12v.4zm1.35-3.81l-.2-.23-1.15 1v.39l1.35-1.16zm4.84 9.5l-6.19 2.42v.32l6.31-2.47-.12-.27zm-.61-1.59l-.11-.28-5.47 2.14v.33l5.58-2.19zm-1.86 14.57l.07-.29-3.79-.86v.31l3.72.84zm.44-1.95l.07-.29-4.23-.96v.31l4.16.94zm57.93-30.87l2.17-3.77h-.35l-2.08 3.62.26.15zm4.13-3.77l-2.65 4.62.26.14 2.73-4.76h-.34zm-10.89 2.8l.24-.19-2.14-2.61h-.39l2.29 2.8zm1.55-1.27l.23-.19-1.1-1.34h-.38l1.25 1.53zm-9.62 4.59l-2.21-6.12h-.32l2.25 6.23.28-.11zm1.6-.57l.28-.11-1.96-5.44h-.32l2 5.55zm-14.22-2.17l.86-3.38h-.31l-.84 3.3.29.08zm2.92-3.38h-.31l-.97 3.8.29.07.99-3.87zm-24.47 2.8l.79-2.8h-.31l-.77 2.72.29.08zm2.56-2.8l-.92 3.26.29.09.95-3.35h-.32zm-8.92 3.54l.28-.09-1.04-3.45h-.31l1.07 3.54zm1.91-.58l.29-.08-.87-2.88h-.31l.89 2.96zm-8.64-129.44l-2.84 2.45.2.23 2.64-2.28v-.4zm-3.95 1.16l3.95-3.41v-.39l-4.15 3.58.2.22zm3.63 7.48l.11.28.21-.09v-.32l-.32.13zm-.73-1.86l.11.27.94-.36v-.33l-1.05.42zm-2.06 10.75l3.11.7v-.31l-3.04-.68-.07.29zm.51-2.24l-.07.29 2.67.6v-.31l-2.6-.58zm-.4 23.32l-.07.29 3.07.78v-.31l-3-.76zm.5-1.94l-.08.29 2.58.65v-.31l-2.5-.63zm.45 11.91l.1.29 1.95-.65v-.31l-2.05.67zm2.05-2.46v-.32l-2.67.88.09.29 2.58-.85zm-8.09 8.36h.35l1.31-2.3-.26-.15-1.4 2.45zm2.31 0h.34l.75-1.31-.26-.15-.83 1.46zm-15.32-2.62l2.14 2.62h.39l-2.3-2.81-.23.19zm1.55-1.26l3.18 3.88h.38l-3.33-4.07-.23.19zm-7.57 3.42l-.28.1.13.36h.32l-.17-.46zm1.6-.58l.38 1.04h.32l-.41-1.14-.29.1zm-10.98 1.04l.35-1.41-.46.59-.2.82h.31zm2.51-2.99l-.76 2.99h.31l.74-2.91-.29-.08zm18.27-10.43l6.45 2.74.11-.28-6.44-2.73-.12.27zm-.658 1.578l-.117.276 6.444 2.734.117-.276-6.444-2.734zm7.221-16.954l-1.911 6.734.289.082 1.911-6.734-.289-.082zm1.923.513l-1.91 6.734.288.082 1.911-6.734-.289-.082zm-10.326.903l.29-.09-.87-2.89-.2.38.78 2.6zm1.92-.58l.28-.09-1.46-4.85-.19.38 1.37 4.56zm6.2-18.537l-1.729 6.783.291.074 1.729-6.783-.291-.074zm1.934.491l-1.729 6.783.291.074 1.729-6.783-.291-.074zM153.53 228.29V228l-6.07.85-.23.33 6.3-.89zm.221 1.693l-6.931.98.042.298 6.931-.981-.042-.297zm-1.821-7.263l.3.06.74-3.24-.53 1-.51 2.18zm1.95.44l.3.07 1.56-6.82-.29-.07-1.57 6.82zm22.65 23.53l-2.72-1.47-.14.27 2.86 1.54v-.34zm0-2.27l-1.77-.96-.14.27 1.91 1.03v-.34zm0 12.8l-1.9 1.64v.36l1.86-1.6.04-.4zm0-2.64l-2.16 1.86v.36l2.16-1.83v-.39zm-.32 11.28l.11.28.21-.09v-.32l-.32.13zm.32-2.28l-1.05.42.11.27.94-.36v-.33zm0 11.56l-3.04-.68-.07.29 3.11.7v-.31zm-2.6-2.63l-.07.29 2.67.6v-.31l-2.6-.58zm2.6 24.08l-3-.76-.07.29 3.07.78v-.31zm-2.5-2.7l-.08.29 2.58.65v-.31l-2.5-.63zm2.5 11.55v-.31l-2.05.67.1.29 1.95-.65zm0-2.1v-.32l-2.67.88.09.29 2.58-.85zm-8.09 8.36h.35l1.31-2.3-.26-.15-1.4 2.45zm3.4-1.31l-.26-.15-.83 1.46h.34l.75-1.31zm-23.36-61.07l4.43 5.41.23-.19-4.43-5.41-.23.19zm3.12 6.49l-4.44-5.42-.23.19 4.44 5.42.23-.19zm-10.695-3.072l-.282.102 2.377 6.584.282-.102-2.377-6.584zm1.897-.689l-.283.102 2.376 6.584.282-.102-2.375-6.584zm-1.642 14.221l-.26-.15-3.48 6.08.26.14 3.48-6.07zm-1.74-.99l-.26-.15-3.47 6.07.25.15 3.48-6.07zm-11.82 5.53l-4.44-5.42-.13.11c-.005.057-.005.114 0 .17l4.36 5.33.21-.19zm1.54-1.27l-4.43-5.41-.23.19 4.43 5.41.23-.19zm6.52 7.03l-1.46.64a14.91 14.91 0 0 0 1.46-.64zm-11.04-1.2l.24.28.09-.34-.29-.08-.04.14zm10.2-19.8l-.18-.24-5.59 4.22.18.24 5.59-4.22zm1.015 1.388l-5.594 4.208.18.24 5.594-4.208-.18-.24zm27.695-8.388c.11-.14.22-.26.34-.39l.12-1.09h-.29l-.17 1.48zm-2 2.22l.45-3.92h-.3l-.49 4.35.34-.43z"/><path d="M166.36 243.32l.26.15 2.17-3.77h-.35l-2.08 3.62zm3.17-1.54l1-1.07.58-1h-.34l-1.24 2.07zm-9.66.72l.23-.19-2.14-2.61h-.39l2.3 2.8zm1.54-1.27l.23-.19-1.1-1.34h-.38l1.25 1.53zm-9.62 4.59l-2.21-6.12h-.32l2.25 6.23.28-.11zm1.6-.57l.28-.11-1.96-5.44h-.32l2 5.55zM138.88 243l.29.08.86-3.38h-.31l-.84 3.3zm1.93.5l.29.07.99-3.87h-.31l-.97 3.8zm32.86 73.99l2.86 1.54v-.34l-2.72-1.47-.14.27zm1.09-2.03l-.14.27 1.91 1.03v-.34l-1.77-.96zm-1.07 16.21l.2.23 2.64-2.28v-.4l-2.84 2.45zm2.84-4.7v-.39l-4.15 3.58.2.22 3.95-3.41zm-.32 10.89l.11.28.21-.09v-.32l-.32.13zm.32-2.28l-1.05.42.11.27.94-.36v-.33zm0 11.56l-3.04-.68-.07.29 3.11.7v-.31zm0-2.05l-2.6-.58-.07.29 2.67.6v-.31zm-9.16 9.79l-1.02 3.57h.32l.99-3.49-.29-.08zm1.92.54l-.86 3.03h.32l.83-2.95-.29-.08zm-8.4.32l.28-.09-.94-3.13c0 .23-.08.44-.12.65l.78 2.57zm6.208-18.506l-1.723 6.784.291.074 1.723-6.784-.291-.074zm1.934.448l-1.729 6.783.291.074 1.729-6.783-.291-.074zm-4.502-6.832l-.23-.19-.25.31c0 .2-.07.41-.11.61l.59-.73zm2.44-16.59l-.15.86 2-3.42h-.35l-1.5 2.56zm3.78-2.56l-2.65 4.62.26.14 2.73-4.76h-.34z"/></g><g class="F"><path d="M272.78 208.95L245.9 248.5c-8.34 11.43-18.85 11.74-16.37 19.15s16.37 92.42 16.37 92.42h25.34l-16.71-96.12 24.1-46.66s12.56 48.75 23.27 54.19 16.28.81 16.9-9.7-18.23-45.11-22.25-55-11.12-18.85-16.68-24.41-30.26-13.3-30.26-13.3l-8.65 8s29.35 12.36 31.51 16.07.31 15.81.31 15.81z" class="E"/><use xlink:href="#j" class="E"/></g><g class="C D"><path d="M172.3 238.72s-1.1-11.31 2.92-21.17 7.3-13.87 9.49-21.17" class="G"/><use xlink:href="#C"/><g class="B"><path d="M219.75 165.72a39.93 39.93 0 0 1-7.21 2.77c.15 5.79.49 16.6 1 22.05.73 7.66 1.09 14.6 1.09 14.6l36.9-34.68-11.68-4.74s-12.8-5.11-20.1 0z"/></g></g><use xlink:href="#k" class="B"/><path d="M219.46 156.25l13.07 11.44-7 18.78c6.39-6.43 16.82-18.2 16.82-18.2l4-29.57-26.65 13.51-.24 4.04z" class="E F"/><use xlink:href="#k" class="C D"/><use xlink:href="#l" class="B"/><path d="M234.83 84.07c1.05 5.85 2.7 12.64 5.25 17.93 5.62 11.67 7.78 15.56 7.78 15.56s-2.16 14.3-7.33 22.51c-4.26 6.76-16.13 12.92-21.89 15.62h.22c9.67 0 27.68-12.31 28.56-15.38s3.07-8.79 3.07-8.79 7.91 0 9.67-2.64a22.75 22.75 0 0 0 2.64-6.15s-19.4-15.17-27.97-38.66z" class="E F"/><g class="C D"><use xlink:href="#l"/><g class="G"><path d="M220.16 106.94l-4 11.86c-.48 1.76 3.08 4.39 7 2.2"/><g stroke-width="2"><path d="M207.53 95.39a9.59 9.59 0 0 1 11.64-2.84m11.6 1.99a9.25 9.25 0 0 1 11.36 3.41"/></g><path d="M232.76 102.78s4-4 5.68 1.42m-29.26-2.56s4.83-4.54 7.1 0"/></g></g><g class="I"><path d="M212.31 111.72c.939 0 1.7-1.334 1.7-2.98s-.761-2.98-1.7-2.98-1.7 1.335-1.7 2.98.761 2.98 1.7 2.98zm23.57-.14c0 1.65-.76 3-1.7 3s-1.71-1.34-1.71-3 .76-3 1.71-3 1.7 1.36 1.7 3zm-13.63 21.02c0 2-1.35 3.69-3 3.69s-3-1.65-3-3.69 1.35-3.69 3-3.69 3 1.65 3 3.69z"/></g><g class="C D"><g class="G"><path d="M207.19 111.87s4.26 0 6.54 1.13m18.17 1.99s5.4-1.13 7.67 0"/></g><g class="B"><path d="M274.22 177.66s2.59-.43 2.16-9.07a41.45 41.45 0 0 1 2.59-16s-2.16-3.46-3.89.43-1.73 9.05-2.55 11.68-3.46 8.21-3.46 8.21l5.15 4.75z"/></g></g><use xlink:href="#m" class="B"/><use xlink:href="#n" class="E F"/><use xlink:href="#m" class="C D"/><use xlink:href="#o" class="H"/><g class="E F"><path d="M320.53 265.73v.34l1.56-.61v-.31l-1.56.58zm1.25-2.31l-.06-.3-1.19.46v.33l1.25-.49zm-1.25 9.98l.46.1.15-.27-.61-.16v.33zm-21.1-36.32l2.14 2.62h.39l-2.3-2.81-.23.19z"/><use xlink:href="#D"/><use xlink:href="#E"/><use xlink:href="#F"/><path d="M283.72 239.7h.31l.86-3.4-.29-.08-.88 3.48zm2.82-2.99l-.76 2.99h.31l.74-2.91-.29-.08zm11.22-6.73l-3.91.55-.76.41 4.71-.67-.04-.29zm20.13 29.92l2.35-2c0-.1-.08-.2-.11-.3l-2.44 2.1.2.2zm1.64-4.03l-.12-.3-3 2.59.19.22 2.93-2.51zm.68 9.99l.11.28.21-.09v-.32l-.32.13zm.32-2.28l-1.05.42.11.27.94-.36v-.33zm-.57 11.43l-2.47-.55-.07.29 2.31.52c.08-.08.15-.2.23-.26zm-2.03-2.5l-.07.29 2.67.6v-.31l-2.6-.58z"/><use xlink:href="#M"/><path d="M295.6 255.81l-4.44-5.42-.23.19 4.43 5.42.24-.19zm-9.07-3.65l.34.94 2.1 5.62.22-.08-2.39-6.57-.27.09zm24.577 13.069l-1.729 6.783.291.074 1.729-6.783-.291-.074zm1.914.451l-1.729 6.783.291.074 1.729-6.783-.291-.074zm-11.101 5.8l-6.44-2.73-.12.28 6.45 2.73.11-.28zm.79-1.84l-6.45-2.73-.11.27 6.44 2.74.12-.28zm5.84-10.79l-.23-.19-4.41 5.44.24.19 4.4-5.44zm-1.79-1.45l-4.4 5.44.23.19 4.4-5.44-.23-.19z"/><use xlink:href="#N"/><use xlink:href="#O"/><path d="M311.93 241.2l-.19-.28-1.38 2.4.26.15 1.31-2.27zm.17 3.12l.26.15.77-1.35-.18-.29-.85 1.49zm-8.24-1.82l.24-.19-2.14-2.61h-.39l2.29 2.8z"/><use xlink:href="#P"/><path d="M295.79 245.82l-2.21-6.12h-.32l2.25 6.23.28-.11z"/><use xlink:href="#Q"/><path d="M282.88 243l.29.08.86-3.38h-.31l-.84 3.3zm1.93.5l.29.07.99-3.87h-.31l-.97 3.8z"/></g><use xlink:href="#n" class="E F"/><g class="C D"><use xlink:href="#o"/><path d="M128.8 164.97l10.62 45a3.87 3.87 0 0 0 1.477 2.257c.747.551 1.668.815 2.593.743l16.61-1.24a3.89 3.89 0 0 0 1.595-.475 3.9 3.9 0 0 0 1.25-1.099c.333-.453.563-.971.676-1.521s.106-1.118-.021-1.665l-10.61-45.22c-.209-.915-.743-1.723-1.502-2.274a3.88 3.88 0 0 0-2.628-.726l-16.63 1.49c-.551.051-1.085.218-1.566.492s-.898.647-1.223 1.095-.55.96-.661 1.502a3.88 3.88 0 0 0 .02 1.641h0z" class="I"/></g><use xlink:href="#p" class="B"/><path d="M147.79 258.86l-4.69-31.79a38.51 38.51 0 0 0 3.65-5.11c.75-1.31-.92-4.66-3.16-8.44.23 1.37.64 5-.73 7.39-1.538 2.442-3.274 4.753-5.19 6.91l-8.64 23.77s-2.06 23.28-.17 29.14c5.11-.73 15.13-10.42 15.13-10.42l3.8-11.45z" class="E F"/><use xlink:href="#p" class="C D G"/><use xlink:href="#q" class="H"/><g class="E F"><path d="M140.905 252.738l-.282.102 2.377 6.584.282-.102-2.377-6.584zm1.897-.689l-.283.102 2.376 6.584.282-.102-2.375-6.584zm-1.642 14.221l-.26-.15-3.48 6.08.26.14 3.48-6.07zm-1.74-.99l-.26-.15-3.47 6.07.25.15 3.48-6.07zm-11.82 5.53l-4.44-5.42-.23.19 4.44 5.42.23-.19zm1.54-1.27l-4.43-5.41-.23.19 4.43 5.41.23-.19zm.8 9.53l.12.28 6.32-2.76.09-.07-.11-.25-6.42 2.8zm-5.28-3.84l-.84 3 .24.27.89-3.15-.29-.12zm-2.33.89l.21.35.49-1.7-.29-.09-.41 1.44zm12.49-20.55l-.18-.24-5.59 4.22.18.24 5.59-4.22zm1.015 1.388l-5.594 4.208.18.24 5.594-4.208-.18-.24zM125.61 255.6l-1.82-6.3-.17.47 1.7 5.91.29-.08zm-1.92.55l-1.06-3.67-.17.49.94 3.27.29-.09z"/></g><use xlink:href="#j" class="E F"/><use xlink:href="#q" class="C D G"/><use xlink:href="#r" class="B"/><use xlink:href="#r" class="C D G"/><use xlink:href="#s" class="B"/><g class="C D"><g class="G"><use xlink:href="#s"/><path d="M386.74 358.45h8.63m-365.37 0h345.76"/></g><path d="M167.64 89.67a24.66 24.66 0 0 0-1.62-33.672 24.66 24.66 0 0 0-33.706-.592A24.66 24.66 0 0 0 129.512 89a24.66 24.66 0 0 0 33.338 5l8.17 3.79-3.38-8.12z" class="I"/></g><path d="M145.16 58.83a3.17 3.17 0 0 1 0-.39 2.69 2.69 0 0 1 .263-1.291 2.68 2.68 0 0 1 .847-1.009 4.56 4.56 0 0 1 5.22 0 2.69 2.69 0 0 1 .834 1.013c.19.401.278.843.256 1.287.013.13.013.26 0 .39l-1.89 20.24a2.24 2.24 0 0 1-.63 1.43 1.74 1.74 0 0 1-2.44 0 2.19 2.19 0 0 1-.63-1.43l-1.83-20.24zm1.25 32.24c-.635-.644-.99-1.511-.99-2.415a3.44 3.44 0 0 1 .99-2.415c.327-.333.72-.594 1.154-.766a3.35 3.35 0 0 1 1.366-.234c.461-.006.918.079 1.345.25s.817.426 1.145.75a3.22 3.22 0 0 1 .759 1.108c.172.419.255.869.241 1.322a3.36 3.36 0 0 1-.253 1.317c-.171.418-.426.796-.747 1.113a3.62 3.62 0 0 1-5 0l-.01-.03z" class="B"/></g><defs><clipPath id="A"><path d="M0 0h425v360H0z" class="B"/></clipPath><path id="B" d="M55.25 137.32s-13.83 61 26.14 114.46S190.53 326.4 246.2 345s107.5-2.11 126.7-48.86-20.37-72.27-29.46-133.56-2.27-78.89-43.09-125.77-124-46.33-179.89 1.17-65.21 99.34-65.21 99.34z"/><path id="C" d="M219.75 165.72s-4.38 2.55-17.52 5.47-21.53-.36-26.64 6.57-19.35 36.87-26.29 48.19-23 28.1-25.55 36.5-.36 16.79 8.4 15.33 20.44-16.79 28.47-25.92l11.68-13.14 2.56 22.27c.73 7.27-15.7 97.46-15.7 97.46h109.87l-16.79-94.91c.73-2.91 23.36-42.7 23.36-42.7l20.81 40.88c2.92 6.21 7.3 12 15.7 12.77s6.93-10.58 5.11-17.88-15.34-34.31-19.69-44.54-5.47-15-13.14-24.83-28.47-15-32.85-16.79l-11.68-4.74s-12.81-5.1-20.11.01z"/><path id="D" d="M300.98 235.82l3.18 3.88h.38l-3.33-4.07-.23.19z"/><path id="E" d="M293.41 239.24l-.28.1.13.36h.32l-.17-.46z"/><path id="F" d="M295.01 238.66l.38 1.04h.32l-.41-1.14-.29.1z"/><path id="G" d="M253.24 236.53l.95 3.17h.31l-.97-3.25-.29.08z"/><path id="H" d="M284.81 215.28l6.45 2.74.11-.28-6.44-2.73-.12.27z"/><path id="I" d="M251.84 176.81l.14-.27-3.45-1.85v.34l3.31 1.78z"/><path id="J" d="M249.88 181.81l-.2-.23-1.15 1v.39l1.35-1.16z"/><path id="K" d="M252.25 204.29l.07-.29-3.79-.86v.31l3.72.84z"/><path id="L" d="M252.58 279.79l-2.56 6.51.28.11 2.56-6.52-.28-.1z"/><path id="M" d="M297.14 254.54l-4.43-5.41-.23.19 4.43 5.41.23-.19z"/><path id="N" d="M307.99 247.09l-.29-.03-.79 6.95.3.04.78-6.96z"/><path id="O" d="M305.71 246.83l-.79 6.96.3.03.79-6.95-.3-.04z"/><path id="P" d="M305.41 241.23l.23-.19-1.1-1.34h-.38l1.25 1.53z"/><path id="Q" d="M297.39 245.25l.28-.11-1.96-5.44h-.32l2 5.55z"/><path id="R" d="M255.26 243.24l.28-.09-1.04-3.45h-.31l1.07 3.54z"/><path id="S" d="M259.406 339.241l-.282.102 2.377 6.584.282-.102-2.377-6.584z"/><path id="T" d="M254.72 335.31l-6.19 2.42v.32l6.31-2.47-.12-.27z"/><path id="U" d="M227.43 165.08l2.14 2.62h.39l-2.3-2.81-.23.19z"/><path id="V" d="M245.69 187.67l.2.23 2.64-2.28v-.4l-2.84 2.45z"/><path id="W" d="M248.21 193.86l.11.28.21-.09v-.32l-.32.13z"/><path id="X" d="M245.93 200.51l-.07.29 2.67.6v-.31l-2.6-.58z"/><path id="Y" d="M246.03 221.89l-.08.29 2.58.65v-.31l-2.5-.63z"/><path id="Z" d="M248.53 231.34v-.32l-2.67.88.09.29 2.58-.85z"/><path id="a" d="M232.153 227.867l-.117.276 6.444 2.734.117-.276-6.444-2.734z"/><path id="b" d="M233.17 211.65l-2.01-6.7-.29.08 2.02 6.71.28-.09z"/><path id="c" d="M239.084 193.194l-1.729 6.783.291.074 1.729-6.783-.291-.074z"/><path id="d" d="M208.76 233.73l-2.02-6.7-.28.08 2.01 6.71.29-.09z"/><path id="e" d="M206.88 213.08l-.25-.16-3.75 5.91.25.16 3.75-5.91z"/><path id="f" d="M231.86 170.5l.24-.19-2.14-2.61h-.39l2.29 2.8z"/><path id="g" d="M248.53 275.14l-3.04-.68-.07.29 3.11.7v-.31z"/><path id="h" d="M199.6 270.81l-4.44-5.42-.23.19 4.44 5.42.23-.19z"/><path id="i" d="M223.79 245.82l-2.21-6.12h-.32l2.25 6.23.28-.11z"/><path id="j" d="M182.61 201.86s2.59-10.8 0-8.64-35.87 59.2-35.87 59.2l-1.29-7.78s-14.69-.43-16.42 6.92-4.76 31.11 1.29 32.4 42.35-41.48 42.35-41.48-1-11.8.79-18.36 9.15-22.26 9.15-22.26z"/><path id="k" d="M219.75 152.21l-1.46 20.08s.73 18.25 2.56 18.25 21.54-22.27 21.54-22.27l4-29.57-26.64 13.51z"/><path id="l" d="M231.58 71.79s-30.75 20.65-30.75 22.84-2.2 34.27-1.3 36.44 9.66 24.61 19.33 24.61 27.68-12.31 28.56-15.38 3.07-8.79 3.07-8.79 7.91 0 9.67-2.64a22.75 22.75 0 0 0 2.64-6.15s-26.39-20.65-31.22-50.93z"/><path id="m" d="M273.41 190.9s2.92-14.23 1.1-20.44-5.84-27.39-5.84-27.39-2.19-1.83-3.29 1.46 1.46 18.61 1.46 18.61l-6.57-19s-1.82-1.82-3.28-.36a9.7 9.7 0 0 0 0 3.65c.36 2.19 4.74 16.79 4.74 16.79l-9.12-16.06s-1.1-1.46-1.83.73 7.67 22.26 7.67 22.26l-9.86-13.08s-2.55-.36-1.09 3.29 7.3 13.87 7.3 13.87-2.92 11-.37 16.42 10.59 13.51 10.59 13.51 23 47.82 24.45 55.48 13.87 21.54 26.29 17.16 4.38-22.63-2.2-33.95c-4.95-8.53-12.44-15.91-19-23.2-4.47-5-9.73-9.23-14-14.4-2.83-3.42-8.15-10.47-7.15-15.35z"/><path id="n" d="M259.53 172.91l-2.31-4.72 1.23 3-9.86-13.12c-.348-.031-.697.045-1 .22l11.08 20.26s.95 13 2.64 16c1.44 2.54 33.13 63 46.14 83.66a14.92 14.92 0 0 0 8.32-.44c12.41-4.38 4.38-22.63-2.2-33.95-4.95-8.53-12.44-15.91-19-23.2-4.47-5-9.73-9.23-14-14.4-2.82-3.4-8.14-10.45-7.14-15.33 0 0 2.92-14.23 1.1-20.44s-5.86-27.38-5.86-27.38a2.38 2.38 0 0 0-1.36-.5l-.44.5s4.32 19 3.46 21.61-3.49-1.54-3.49-1.54l-6.57-19c-.394-.373-.865-.656-1.38-.83l-1.9.47 8.15 22.61-3.41-2.17-9.12-16.06s-1.1-1.46-1.83.73l10 22.25-1.25 1.77z"/><path id="o" d="M313.53 243.83c-3.52-6.06-8.32-11.55-13.16-16.83l-20.14 10.84c4.62 10.26 8.63 19.72 9.21 22.78 1.46 7.67 13.87 21.54 26.29 17.16s4.41-22.63-2.2-33.95z"/><path id="p" d="M147.79 258.86l-4.69-31.79a38.51 38.51 0 0 0 3.65-5.11c1.46-2.55-6.21-12.77-9.49-19s-4.73-16.07-8.73-14.25-3.65 8-2.92 14.24 8 22.63 8 22.63-9.86 21.9-13.14 33.58 3.28 22.27 8.39 21.54 15.13-10.42 15.13-10.42"/><path id="q" d="M147.79 258.86l-1.81-12.26c-2.71 2.65-6 5-9.45 5.63a12.23 12.23 0 0 1-6.71-.588c-2.137-.82-4.001-2.224-5.38-4.052-1.6 4.19-3 8.29-4 11.57-3.29 11.68 3.28 22.27 8.39 21.54 3.72-.53 11.06-6.8 15.13-10.42"/><path id="r" d="M124.85 194.19s2.55-9.86 6.93-15.33 10.22-12 12.05-10.59c3.93 3.14-8.05 14.73-9.13 17.52-1.82 4.75-3.65 10.59-3.65 10.59"/><path id="s" d="M130.69 197.84s7.66-10.22 11.68-14.6 12.41-4 11.31-1.46-7.66 5.47-9.85 8.39-9.49 13.51-9.49 13.51 6.57-8.4 11.31-10.95 11.68-3.65 11.68-1.1-1.09 1.83-5.11 5.11-5.11 3.29-8 6.57-5.11 6.21-5.11 6.21h12.42c3.29 0 7.67 1.1 7.67 2.19s.36 2.19-4.38 2.56-13.51 1.46-13.51 1.46"/></defs></svg>