<svg xmlns="http://www.w3.org/2000/svg" viewBox="0 0 500 500"><g id="freepik--Shadow--inject-619"><ellipse id="freepik--path--inject-619" cx="250" cy="416.24" rx="193.89" ry="11.32" style="fill:#f5f5f5"></ellipse></g><g id="freepik--exams-sheet--inject-619"><path d="M381.66,382.87H228.17a6.52,6.52,0,0,1-6.59-7.16l19.35-248.24a7.87,7.87,0,0,1,7.71-7.16H402.12a6.53,6.53,0,0,1,6.6,7.16L389.37,375.71A7.88,7.88,0,0,1,381.66,382.87Z" style="fill:#2e353a"></path><path d="M381.66,382.87H228.17a6.52,6.52,0,0,1-6.59-7.16l19.35-248.24a7.87,7.87,0,0,1,7.71-7.16H402.12a6.53,6.53,0,0,1,6.6,7.16L389.37,375.71A7.88,7.88,0,0,1,381.66,382.87Z" style="fill:#fff;opacity:0.2"></path><path d="M360.87,136.54h-73.5a2.28,2.28,0,0,1-2.31-2.5l1.13-14.51a2.76,2.76,0,0,1,2.7-2.51h73.5a2.28,2.28,0,0,1,2.3,2.51L363.56,134A2.75,2.75,0,0,1,360.87,136.54Z" style="fill:#F43F5E"></path><path d="M360.87,136.54h-73.5a2.28,2.28,0,0,1-2.31-2.5l1.13-14.51a2.76,2.76,0,0,1,2.7-2.51h73.5a2.28,2.28,0,0,1,2.3,2.51L363.56,134A2.75,2.75,0,0,1,360.87,136.54Z" style="opacity:0.2;isolation:isolate"></path><path d="M331,121.53h-11.5l.45-5.76a6.32,6.32,0,0,1,6.19-5.75h0a5.25,5.25,0,0,1,5.31,5.75Z" style="fill:#F43F5E"></path><path d="M331,121.53h-11.5l.45-5.76a6.32,6.32,0,0,1,6.19-5.75h0a5.25,5.25,0,0,1,5.31,5.75Z" style="fill:#fff;opacity:0.4"></path><polygon points="379.59 372.5 231.85 372.5 250.71 130.67 398.44 130.67 379.59 372.5" style="fill:#fff"></polygon><path d="M347.2,143.33H300a5.38,5.38,0,0,1-5.43-5.9l.6-7.68a6.49,6.49,0,0,1,6.35-5.9h47.21a5.39,5.39,0,0,1,5.44,5.9l-.6,7.68A6.51,6.51,0,0,1,347.2,143.33Zm-45.86-17.47a4.28,4.28,0,0,0-4.19,3.89l-.6,7.68a3.55,3.55,0,0,0,3.58,3.9h47.22a4.29,4.29,0,0,0,4.2-3.9l.6-7.68a3.56,3.56,0,0,0-3.59-3.89Z" style="fill:#F43F5E"></path><g style="opacity:0.4"><path d="M347.2,143.33H300a5.38,5.38,0,0,1-5.43-5.9l.6-7.68a6.49,6.49,0,0,1,6.35-5.9h47.21a5.39,5.39,0,0,1,5.44,5.9l-.6,7.68A6.51,6.51,0,0,1,347.2,143.33Zm-45.86-17.47a4.28,4.28,0,0,0-4.19,3.89l-.6,7.68a3.55,3.55,0,0,0,3.58,3.9h47.22a4.29,4.29,0,0,0,4.2-3.9l.6-7.68a3.56,3.56,0,0,0-3.59-3.89Z" style="fill:#fff"></path></g><path d="M344.76,128.28h-40a1.25,1.25,0,0,1-1.27-1.37l.31-4a1.52,1.52,0,0,1,1.49-1.37h40a1.24,1.24,0,0,1,1.26,1.37l-.31,4A1.51,1.51,0,0,1,344.76,128.28Z" style="fill:#F43F5E"></path><polygon points="378.63 166 266.63 166 267.58 153.78 379.58 153.78 378.63 166" style="fill:#F43F5E"></polygon><polygon points="333.3 183.01 258.74 183.01 258.99 179.86 333.55 179.86 333.3 183.01" style="fill:#F43F5E"></polygon><polygon points="332.6 192.11 258.04 192.11 258.28 188.95 332.84 188.95 332.6 192.11" style="fill:#F43F5E"></polygon><polygon points="331.89 201.21 257.33 201.21 257.57 198.05 332.13 198.05 331.89 201.21" style="fill:#F43F5E"></polygon><polygon points="331.18 210.3 256.62 210.3 256.86 207.15 331.42 207.15 331.18 210.3" style="fill:#F43F5E"></polygon><polygon points="380.1 210.3 349.68 210.3 352.06 179.86 382.48 179.86 380.1 210.3" style="fill:#F43F5E"></polygon><path d="M371.68,191.16c.14-1.78-1.24-3-3.74-3a6.44,6.44,0,0,0-5.16,2.2l-1.92-1.45a9.41,9.41,0,0,1,7.45-3.12c4,0,6.46,1.87,6.21,5-.36,4.65-5.31,5-5.59,8.61h-2.79C366.49,195,371.43,194.36,371.68,191.16Zm-6.28,12.73a1.92,1.92,0,0,1,2-1.78,1.59,1.59,0,0,1,1.64,1.78,1.93,1.93,0,0,1-1.92,1.78A1.61,1.61,0,0,1,365.4,203.89Z" style="fill:#fff"></path><polygon points="329.71 229.08 255.15 229.08 255.4 225.92 329.96 225.92 329.71 229.08" style="fill:#F43F5E"></polygon><polygon points="329 238.17 254.44 238.17 254.69 235.02 329.25 235.02 329 238.17" style="fill:#F43F5E"></polygon><polygon points="328.3 247.27 253.74 247.27 253.98 244.12 328.54 244.12 328.3 247.27" style="fill:#F43F5E"></polygon><polygon points="327.59 256.37 253.03 256.37 253.27 253.21 327.83 253.21 327.59 256.37" style="fill:#F43F5E"></polygon><polygon points="376.51 256.37 346.09 256.37 348.46 225.92 378.88 225.92 376.51 256.37" style="fill:#F43F5E"></polygon><path d="M368.09,237.23c.14-1.79-1.24-3-3.74-3a6.44,6.44,0,0,0-5.16,2.2L357.27,235a9.38,9.38,0,0,1,7.45-3.12c4,0,6.46,1.87,6.21,5-.36,4.65-5.31,5-5.59,8.61h-2.79C362.89,241,367.84,240.43,368.09,237.23ZM361.81,250a1.92,1.92,0,0,1,1.95-1.79A1.59,1.59,0,0,1,365.4,250a1.94,1.94,0,0,1-1.92,1.78A1.61,1.61,0,0,1,361.81,250Z" style="fill:#fff"></path><polygon points="326.12 275.14 251.56 275.14 251.81 271.99 326.37 271.99 326.12 275.14" style="fill:#F43F5E"></polygon><polygon points="325.41 284.24 250.85 284.24 251.1 281.08 325.66 281.08 325.41 284.24" style="fill:#F43F5E"></polygon><polygon points="324.7 293.34 250.15 293.34 250.39 290.18 324.95 290.18 324.7 293.34" style="fill:#F43F5E"></polygon><polygon points="324 302.43 249.44 302.43 249.68 299.28 324.24 299.28 324 302.43" style="fill:#F43F5E"></polygon><polygon points="372.92 302.43 342.5 302.43 344.87 271.99 375.29 271.99 372.92 302.43" style="fill:#F43F5E"></polygon><path d="M364.5,283.29c.14-1.78-1.24-3-3.75-3a6.43,6.43,0,0,0-5.15,2.2L353.68,281a9.38,9.38,0,0,1,7.45-3.12c4,0,6.45,1.86,6.21,4.95-.36,4.66-5.31,5-5.59,8.61H359C359.3,287.11,364.25,286.49,364.5,283.29ZM358.22,296a1.92,1.92,0,0,1,1.95-1.78,1.59,1.59,0,0,1,1.64,1.78,1.93,1.93,0,0,1-1.92,1.78A1.6,1.6,0,0,1,358.22,296Z" style="fill:#fff"></path><polygon points="322.53 321.21 247.97 321.21 248.22 318.05 322.78 318.05 322.53 321.21" style="fill:#F43F5E"></polygon><polygon points="321.82 330.31 247.26 330.31 247.51 327.15 322.07 327.15 321.82 330.31" style="fill:#F43F5E"></polygon><polygon points="321.11 339.4 246.55 339.4 246.8 336.25 321.36 336.25 321.11 339.4" style="fill:#F43F5E"></polygon><polygon points="320.4 348.5 245.84 348.5 246.09 345.34 320.65 345.34 320.4 348.5" style="fill:#F43F5E"></polygon><polygon points="369.33 348.5 338.91 348.5 341.28 318.05 371.7 318.05 369.33 348.5" style="fill:#F43F5E"></polygon><path d="M360.91,329.36c.14-1.79-1.24-3-3.75-3a6.42,6.42,0,0,0-5.15,2.2l-1.92-1.45a9.38,9.38,0,0,1,7.45-3.12c4,0,6.45,1.87,6.21,5-.36,4.65-5.31,5-5.59,8.61h-2.79C355.71,333.17,360.66,332.56,360.91,329.36Zm-6.28,12.73a1.92,1.92,0,0,1,1.95-1.79,1.59,1.59,0,0,1,1.64,1.79,1.94,1.94,0,0,1-1.92,1.78A1.61,1.61,0,0,1,354.63,342.09Z" style="fill:#fff"></path><polygon points="378.63 166 266.63 166 267.58 153.78 379.58 153.78 378.63 166" style="fill:#fff;opacity:0.7000000000000001"></polygon><polygon points="333.3 183.01 258.74 183.01 258.99 179.86 333.55 179.86 333.3 183.01" style="fill:#fff;opacity:0.7000000000000001"></polygon><polygon points="332.6 192.11 258.04 192.11 258.28 188.95 332.84 188.95 332.6 192.11" style="fill:#fff;opacity:0.7000000000000001"></polygon><polygon points="331.89 201.21 257.33 201.21 257.57 198.05 332.13 198.05 331.89 201.21" style="fill:#fff;opacity:0.7000000000000001"></polygon><polygon points="331.18 210.3 256.62 210.3 256.86 207.15 331.42 207.15 331.18 210.3" style="fill:#fff;opacity:0.7000000000000001"></polygon><polygon points="380.1 210.3 349.68 210.3 352.06 179.86 382.48 179.86 380.1 210.3" style="fill:#fff;opacity:0.7000000000000001"></polygon><polygon points="329.71 229.08 255.15 229.08 255.4 225.92 329.96 225.92 329.71 229.08" style="fill:#fff;opacity:0.7000000000000001"></polygon><polygon points="329 238.17 254.44 238.17 254.69 235.02 329.25 235.02 329 238.17" style="fill:#fff;opacity:0.7000000000000001"></polygon><polygon points="328.3 247.27 253.74 247.27 253.98 244.12 328.54 244.12 328.3 247.27" style="fill:#fff;opacity:0.7000000000000001"></polygon><polygon points="327.59 256.37 253.03 256.37 253.27 253.21 327.83 253.21 327.59 256.37" style="fill:#fff;opacity:0.7000000000000001"></polygon><polygon points="376.51 256.37 346.09 256.37 348.46 225.92 378.88 225.92 376.51 256.37" style="fill:#fff;opacity:0.7000000000000001"></polygon><polygon points="326.12 275.14 251.56 275.14 251.81 271.99 326.37 271.99 326.12 275.14" style="fill:#fff;opacity:0.7000000000000001"></polygon><polygon points="325.41 284.24 250.85 284.24 251.1 281.08 325.66 281.08 325.41 284.24" style="fill:#fff;opacity:0.7000000000000001"></polygon><polygon points="324.7 293.34 250.15 293.34 250.39 290.18 324.95 290.18 324.7 293.34" style="fill:#fff;opacity:0.7000000000000001"></polygon><polygon points="324 302.43 249.44 302.43 249.68 299.28 324.24 299.28 324 302.43" style="fill:#fff;opacity:0.7000000000000001"></polygon><polygon points="372.92 302.43 342.5 302.43 344.87 271.99 375.29 271.99 372.92 302.43" style="fill:#fff;opacity:0.7000000000000001"></polygon><polygon points="322.53 321.21 247.97 321.21 248.22 318.05 322.78 318.05 322.53 321.21" style="fill:#fff;opacity:0.7000000000000001"></polygon><polygon points="321.82 330.31 247.26 330.31 247.51 327.15 322.07 327.15 321.82 330.31" style="fill:#fff;opacity:0.7000000000000001"></polygon><polygon points="321.11 339.4 246.55 339.4 246.8 336.25 321.36 336.25 321.11 339.4" style="fill:#fff;opacity:0.7000000000000001"></polygon><polygon points="320.4 348.5 245.84 348.5 246.09 345.34 320.65 345.34 320.4 348.5" style="fill:#fff;opacity:0.7000000000000001"></polygon><polygon points="369.33 348.5 338.91 348.5 341.28 318.05 371.7 318.05 369.33 348.5" style="fill:#fff;opacity:0.7000000000000001"></polygon></g><g id="freepik--Chair--inject-619"><path d="M200,257v27.54a21,21,0,0,1-5.85,14.57L168.45,326H183l26.7-26.28a21.08,21.08,0,0,0,6.3-15V257Z" style="fill:#F43F5E"></path><path d="M216,257v27.69a20.24,20.24,0,0,1-.52,4.61,20.91,20.91,0,0,1-5.78,10.42L183,326H168.45l25.7-26.89A21,21,0,0,0,200,284.54V257Z" style="fill:#fff;opacity:0.4"></path><path d="M216,257v27.69a20.24,20.24,0,0,1-.52,4.61L200,283.05V257Z" style="opacity:0.2;isolation:isolate"></path><path d="M158.34,329,136.8,411.06a3.48,3.48,0,0,1-3.37,2.61H94.94a2.08,2.08,0,0,1-1.64-.81,2.05,2.05,0,0,1-.36-1.79L114.49,329h-4.14L89.07,410.05a6.09,6.09,0,0,0,5.87,7.62h38.49a7.49,7.49,0,0,0,7.24-5.59L162.47,329Z" style="fill:#F43F5E"></path><g style="opacity:0.4;isolation:isolate"><path d="M158.34,329,136.8,411.06a3.48,3.48,0,0,1-3.37,2.61H94.94a2.08,2.08,0,0,1-1.64-.81,2.05,2.05,0,0,1-.36-1.79L114.49,329h-4.14L89.07,410.05a6.09,6.09,0,0,0,5.87,7.62h38.49a7.49,7.49,0,0,0,7.24-5.59L162.47,329Z" style="fill:#fff"></path></g><polygon points="167.15 417.67 143.6 327.87 139.73 328.88 163.01 417.67 167.15 417.67" style="fill:#F43F5E"></polygon><polygon points="215.15 417.67 191.6 327.87 187.73 328.88 211.01 417.67 215.15 417.67" style="fill:#F43F5E"></polygon><g style="opacity:0.5"><polygon points="167.15 417.67 143.6 327.87 139.73 328.88 163.01 417.67 167.15 417.67" style="fill:#fff"></polygon></g><g style="opacity:0.5"><polygon points="215.15 417.67 191.6 327.87 187.73 328.88 211.01 417.67 215.15 417.67" style="fill:#fff"></polygon></g><polygon points="110.35 329 114.49 329 111.24 341.37 107.41 340.2 110.35 329" style="opacity:0.2;isolation:isolate"></polygon><polygon points="143.6 327.87 148.95 348.28 144.46 346.92 139.73 328.88 143.6 327.87" style="opacity:0.2;isolation:isolate"></polygon><polygon points="158.34 329 162.47 329 155.69 354.9 151.85 353.73 158.34 329" style="opacity:0.2;isolation:isolate"></polygon><polygon points="201.05 364.15 196.54 362.77 187.73 329.13 191.6 328.03 201.05 364.15" style="opacity:0.2;isolation:isolate"></polygon><path d="M106.7,330.37,88,229.14l-.25-1.53a6.58,6.58,0,0,1,1.35-5.41,6.13,6.13,0,0,1,4.81-2.2h40.48a8.66,8.66,0,0,1,8.06,6.92l.3,1.71,18.69,101-3.94.72-18.75-101.3-.24-1.42a4.62,4.62,0,0,0-4.12-3.63H93.87a2.18,2.18,0,0,0-1.74.76,2.63,2.63,0,0,0-.48,2.17l.28,1.68,18.71,101Z" style="fill:#F43F5E"></path><g style="opacity:0.5;isolation:isolate"><path d="M106.7,330.37,88,229.14l-.25-1.53a6.58,6.58,0,0,1,1.35-5.41,6.13,6.13,0,0,1,4.81-2.2h40.48a8.66,8.66,0,0,1,8.06,6.92l.3,1.71,18.69,101-3.94.72-18.75-101.3-.24-1.42a4.62,4.62,0,0,0-4.12-3.63H93.87a2.18,2.18,0,0,0-1.74.76,2.63,2.63,0,0,0-.48,2.17l.28,1.68,18.71,101Z" style="fill:#fff"></path></g><path d="M114.88,320.33h76.93a5,5,0,0,1,5,5V332a0,0,0,0,1,0,0H109.88a0,0,0,0,1,0,0v-6.69A5,5,0,0,1,114.88,320.33Z" style="fill:#F43F5E"></path><rect x="106.67" y="326.18" width="93.35" height="5.84" rx="2.01" style="fill:#F43F5E"></rect><rect x="106.67" y="326.18" width="93.35" height="5.84" rx="2.01" style="fill:#fff;opacity:0.6000000000000001;isolation:isolate"></rect><polygon points="148.33 270 97.5 270 89.92 229 140.74 229 148.26 269.62 148.33 270" style="fill:#F43F5E"></polygon></g><g id="freepik--Lightbulb--inject-619"><path d="M172.36,109.13a19.13,19.13,0,1,0-25.91,22.7,5.45,5.45,0,0,1,2.89,2.78l.65,1.47,18.41-5-.19-1.6a5.61,5.61,0,0,1,1.09-3.89A19.26,19.26,0,0,0,172.36,109.13Z" style="fill:#F43F5E"></path><path d="M156,136.12s-2.77-8.69-7.66-12.54l2.71-.74.21-4.17,4.43,6.41-.36-7.8,4.37,7.11.44-4,3.87-1a22.2,22.2,0,0,0-1.07,15.11" style="fill:none;stroke:#fff;stroke-linecap:round;stroke-linejoin:round"></path><path d="M159.48,134.66c-3.26.89-5.08,4.64-4.06,8.37s4.48,6,7.74,5.14,5.07-4.63,4.06-8.36S162.74,133.78,159.48,134.66Z" style="fill:#2e353a"></path><path d="M165.76,144.74l-6.56,1.79a6.44,6.44,0,0,1-7.76-4.06l-2.15-6.07a.92.92,0,0,1,.63-1.2L168,130.27a.92.92,0,0,1,1.15.72l1.23,6.31A6.44,6.44,0,0,1,165.76,144.74Z" style="fill:#F43F5E"></path><path d="M165.76,144.74l-6.56,1.79a6.44,6.44,0,0,1-7.76-4.06l-2.15-6.07a.92.92,0,0,1,.63-1.2L168,130.27a.92.92,0,0,1,1.15.72l1.23,6.31A6.44,6.44,0,0,1,165.76,144.74Z" style="fill:#fff;opacity:0.4"></path><path d="M128.38,128.25a31,31,0,0,0-5.43-.51,22.15,22.15,0,0,0-2.71.15c-.45.07-.9.12-1.33.23-.22.06-.44.09-.65.17l-.63.2-.72.23.43-.63a24.12,24.12,0,0,0,2.87-5.8,17.83,17.83,0,0,0,.75-3.13,14.22,14.22,0,0,0,.14-1.59,14.06,14.06,0,0,0,0-1.59,11.71,11.71,0,0,0-.22-1.56l-.19-.76-.25-.75a9.55,9.55,0,0,0-.65-1.42,11.26,11.26,0,0,0-.83-1.32,13.16,13.16,0,0,0-1-1.2l-.55-.56-.6-.52c-.39-.36-.85-.64-1.26-1s-.9-.56-1.35-.85l-1-.66,1.11-.53c.53-.26,1.09-.57,1.62-.89s1.06-.65,1.58-1a26.18,26.18,0,0,0,2.93-2.32c.45-.42.89-.85,1.32-1.3s.82-.93,1.19-1.41.73-1,1-1.51a14.46,14.46,0,0,0,.87-1.59,13.42,13.42,0,0,0,.68-1.68l.26-.86.19-.89a11.83,11.83,0,0,0,.2-1.78,13.6,13.6,0,0,0-.32-3.59l-.2-.89-.28-.87c-.17-.59-.44-1.14-.66-1.71s-.54-1.1-.81-1.66l-1.43-3,2.74,1.76c.48.32,1,.63,1.57.92s1.1.57,1.66.82a27.14,27.14,0,0,0,3.44,1.33c.59.17,1.18.33,1.77.46a15.55,15.55,0,0,0,1.79.3,13.54,13.54,0,0,0,1.79.11,14.75,14.75,0,0,0,1.77-.12l.86-.15.85-.23a11.71,11.71,0,0,0,1.6-.66,5.48,5.48,0,0,0,.74-.43,5,5,0,0,0,.71-.5,13,13,0,0,0,1.3-1.16,13.28,13.28,0,0,0,1.11-1.37,12.49,12.49,0,0,0,.95-1.52c.31-.51.52-1.09.79-1.63s.43-1.14.65-1.71l1.25-3.28.62,3.42a12.2,12.2,0,0,0,.43,1.65,15.65,15.65,0,0,0,2.38,4.65,12.11,12.11,0,0,0,2.43,2.42,10.34,10.34,0,0,0,1.44.92,11,11,0,0,0,1.57.7,13.12,13.12,0,0,0,1.66.46,14.39,14.39,0,0,0,1.73.24,17,17,0,0,0,1.75,0c.59,0,1.18-.08,1.77-.13s1.18-.19,1.76-.28l1.75-.42,1.73-.52,1.71-.61,2.37-.85-1.36,2.11c-.25.37-.5.82-.73,1.25s-.44.87-.64,1.33a16.21,16.21,0,0,0-.93,2.78,12.16,12.16,0,0,0-.33,2.87,8.69,8.69,0,0,0,.49,2.78l.27.66L172,97a8.62,8.62,0,0,0,.83,1.15,9.73,9.73,0,0,0,1,1,11.27,11.27,0,0,0,1.17.89,13.15,13.15,0,0,0,1.26.76c.43.24.89.42,1.34.64l1.4.53,1.44.45,1,.32-.84.65a14.17,14.17,0,0,0-1.59,1.44,15.57,15.57,0,0,0-1.38,1.66c-.23.29-.41.6-.61.9a8.62,8.62,0,0,0-.52.94,6.23,6.23,0,0,0-.44,1,6.07,6.07,0,0,0-.33,1c-.07.35-.19.69-.23,1l-.1,1.07c0,.36,0,.72.06,1.08a4.8,4.8,0,0,0,.18,1.06,6.25,6.25,0,0,0,.28,1l.41,1a5.89,5.89,0,0,0,.51,1l.56,1,.21.35h-.39a17.17,17.17,0,0,0-4.38.58,9.59,9.59,0,0,0-2.06.81,4.57,4.57,0,0,0-.47.29,2.36,2.36,0,0,0-.45.33,3.62,3.62,0,0,0-.42.36l-.39.41.37-.43a3,3,0,0,1,.4-.39,3.13,3.13,0,0,1,.44-.36c.15-.1.3-.22.46-.31a10.27,10.27,0,0,1,2.05-.94,16.38,16.38,0,0,1,4.45-.79l-.17.35-.62-1a6,6,0,0,1-.58-1l-.47-1a5.85,5.85,0,0,1-.34-1.1,4.84,4.84,0,0,1-.24-1.13c0-.38-.09-.77-.1-1.15l0-1.17c0-.38.14-.76.2-1.14a7.17,7.17,0,0,1,.32-1.12,6.23,6.23,0,0,1,.43-1.08,8.28,8.28,0,0,1,.52-1,10.85,10.85,0,0,1,.6-1,15.58,15.58,0,0,1,1.43-1.81,15.24,15.24,0,0,1,1.69-1.61l.19,1-1.51-.43-1.49-.53c-.49-.21-1-.4-1.46-.65a12.73,12.73,0,0,1-1.39-.79,12.13,12.13,0,0,1-1.31-.95A9.68,9.68,0,0,1,171.78,99a9.18,9.18,0,0,1-1-1.33l-.41-.72-.33-.77A10,10,0,0,1,169.4,93a13.07,13.07,0,0,1,.29-3.25,18.15,18.15,0,0,1,.94-3.07c.2-.5.42-1,.66-1.46s.49-.94.8-1.43l1,1.26-1.78.65-1.81.56c-.62.17-1.24.31-1.86.46s-1.25.24-1.89.31a17.72,17.72,0,0,1-1.93.16,18.15,18.15,0,0,1-2,0,16.12,16.12,0,0,1-1.94-.26,15.82,15.82,0,0,1-1.91-.51,14.71,14.71,0,0,1-1.82-.79,12.29,12.29,0,0,1-1.69-1.06,14,14,0,0,1-2.82-2.77,16.38,16.38,0,0,1-2-3.36,17.56,17.56,0,0,1-.71-1.82,15.07,15.07,0,0,1-.52-1.93l1.87.14c-.23.62-.44,1.25-.69,1.86a20,20,0,0,1-.86,1.81,14,14,0,0,1-1,1.73,16,16,0,0,1-1.28,1.6,13.53,13.53,0,0,1-1.54,1.38,6.17,6.17,0,0,1-.86.58,8.08,8.08,0,0,1-.9.52,13.43,13.43,0,0,1-1.93.78l-1,.25-1,.18a14,14,0,0,1-2,.11,15,15,0,0,1-2-.13,18.44,18.44,0,0,1-2-.35c-.65-.14-1.29-.32-1.92-.52a27.54,27.54,0,0,1-3.66-1.44c-.6-.27-1.18-.57-1.75-.88s-1.13-.64-1.72-1l1.31-1.19c.29.6.6,1.18.86,1.8a20,20,0,0,1,.71,1.87l.3,1,.22,1a19.48,19.48,0,0,1,.3,2,17.17,17.17,0,0,1,0,2,13.59,13.59,0,0,1-.24,2l-.22,1-.3,1a15.49,15.49,0,0,1-.78,1.88,14.32,14.32,0,0,1-1,1.75A19.18,19.18,0,0,1,124.15,99c-.43.52-.87,1-1.33,1.49s-.95.92-1.44,1.36a30.15,30.15,0,0,1-3.15,2.37q-.83.54-1.68,1c-.58.32-1.15.62-1.78.9l.07-1.19c.47.32,1,.61,1.42.94s.92.67,1.33,1.07l.64.58.59.62a15.43,15.43,0,0,1,1.08,1.34,12.47,12.47,0,0,1,.89,1.49,11.57,11.57,0,0,1,.68,1.58l.25.83.18.84a12.45,12.45,0,0,1,.2,1.71,16.57,16.57,0,0,1-1.16,6.63,25,25,0,0,1-3.19,5.86l-.29-.4.67-.19c.23-.07.46-.1.69-.15.45-.1.91-.13,1.37-.19a23.15,23.15,0,0,1,2.76,0A31.89,31.89,0,0,1,128.38,128.25Z" style="fill:#F43F5E"></path><path d="M128.38,128.25a31,31,0,0,0-5.43-.51,22.15,22.15,0,0,0-2.71.15c-.45.07-.9.12-1.33.23-.22.06-.44.09-.65.17l-.63.2-.72.23.43-.63a24.12,24.12,0,0,0,2.87-5.8,17.83,17.83,0,0,0,.75-3.13,14.22,14.22,0,0,0,.14-1.59,14.06,14.06,0,0,0,0-1.59,11.71,11.71,0,0,0-.22-1.56l-.19-.76-.25-.75a9.55,9.55,0,0,0-.65-1.42,11.26,11.26,0,0,0-.83-1.32,13.16,13.16,0,0,0-1-1.2l-.55-.56-.6-.52c-.39-.36-.85-.64-1.26-1s-.9-.56-1.35-.85l-1-.66,1.11-.53c.53-.26,1.09-.57,1.62-.89s1.06-.65,1.58-1a26.18,26.18,0,0,0,2.93-2.32c.45-.42.89-.85,1.32-1.3s.82-.93,1.19-1.41.73-1,1-1.51a14.46,14.46,0,0,0,.87-1.59,13.42,13.42,0,0,0,.68-1.68l.26-.86.19-.89a11.83,11.83,0,0,0,.2-1.78,13.6,13.6,0,0,0-.32-3.59l-.2-.89-.28-.87c-.17-.59-.44-1.14-.66-1.71s-.54-1.1-.81-1.66l-1.43-3,2.74,1.76c.48.32,1,.63,1.57.92s1.1.57,1.66.82a27.14,27.14,0,0,0,3.44,1.33c.59.17,1.18.33,1.77.46a15.55,15.55,0,0,0,1.79.3,13.54,13.54,0,0,0,1.79.11,14.75,14.75,0,0,0,1.77-.12l.86-.15.85-.23a11.71,11.71,0,0,0,1.6-.66,5.48,5.48,0,0,0,.74-.43,5,5,0,0,0,.71-.5,13,13,0,0,0,1.3-1.16,13.28,13.28,0,0,0,1.11-1.37,12.49,12.49,0,0,0,.95-1.52c.31-.51.52-1.09.79-1.63s.43-1.14.65-1.71l1.25-3.28.62,3.42a12.2,12.2,0,0,0,.43,1.65,15.65,15.65,0,0,0,2.38,4.65,12.11,12.11,0,0,0,2.43,2.42,10.34,10.34,0,0,0,1.44.92,11,11,0,0,0,1.57.7,13.12,13.12,0,0,0,1.66.46,14.39,14.39,0,0,0,1.73.24,17,17,0,0,0,1.75,0c.59,0,1.18-.08,1.77-.13s1.18-.19,1.76-.28l1.75-.42,1.73-.52,1.71-.61,2.37-.85-1.36,2.11c-.25.37-.5.82-.73,1.25s-.44.87-.64,1.33a16.21,16.21,0,0,0-.93,2.78,12.16,12.16,0,0,0-.33,2.87,8.69,8.69,0,0,0,.49,2.78l.27.66L172,97a8.62,8.62,0,0,0,.83,1.15,9.73,9.73,0,0,0,1,1,11.27,11.27,0,0,0,1.17.89,13.15,13.15,0,0,0,1.26.76c.43.24.89.42,1.34.64l1.4.53,1.44.45,1,.32-.84.65a14.17,14.17,0,0,0-1.59,1.44,15.57,15.57,0,0,0-1.38,1.66c-.23.29-.41.6-.61.9a8.62,8.62,0,0,0-.52.94,6.23,6.23,0,0,0-.44,1,6.07,6.07,0,0,0-.33,1c-.07.35-.19.69-.23,1l-.1,1.07c0,.36,0,.72.06,1.08a4.8,4.8,0,0,0,.18,1.06,6.25,6.25,0,0,0,.28,1l.41,1a5.89,5.89,0,0,0,.51,1l.56,1,.21.35h-.39a17.17,17.17,0,0,0-4.38.58,9.59,9.59,0,0,0-2.06.81,4.57,4.57,0,0,0-.47.29,2.36,2.36,0,0,0-.45.33,3.62,3.62,0,0,0-.42.36l-.39.41.37-.43a3,3,0,0,1,.4-.39,3.13,3.13,0,0,1,.44-.36c.15-.1.3-.22.46-.31a10.27,10.27,0,0,1,2.05-.94,16.38,16.38,0,0,1,4.45-.79l-.17.35-.62-1a6,6,0,0,1-.58-1l-.47-1a5.85,5.85,0,0,1-.34-1.1,4.84,4.84,0,0,1-.24-1.13c0-.38-.09-.77-.1-1.15l0-1.17c0-.38.14-.76.2-1.14a7.17,7.17,0,0,1,.32-1.12,6.23,6.23,0,0,1,.43-1.08,8.28,8.28,0,0,1,.52-1,10.85,10.85,0,0,1,.6-1,15.58,15.58,0,0,1,1.43-1.81,15.24,15.24,0,0,1,1.69-1.61l.19,1-1.51-.43-1.49-.53c-.49-.21-1-.4-1.46-.65a12.73,12.73,0,0,1-1.39-.79,12.13,12.13,0,0,1-1.31-.95A9.68,9.68,0,0,1,171.78,99a9.18,9.18,0,0,1-1-1.33l-.41-.72-.33-.77A10,10,0,0,1,169.4,93a13.07,13.07,0,0,1,.29-3.25,18.15,18.15,0,0,1,.94-3.07c.2-.5.42-1,.66-1.46s.49-.94.8-1.43l1,1.26-1.78.65-1.81.56c-.62.17-1.24.31-1.86.46s-1.25.24-1.89.31a17.72,17.72,0,0,1-1.93.16,18.15,18.15,0,0,1-2,0,16.12,16.12,0,0,1-1.94-.26,15.82,15.82,0,0,1-1.91-.51,14.71,14.71,0,0,1-1.82-.79,12.29,12.29,0,0,1-1.69-1.06,14,14,0,0,1-2.82-2.77,16.38,16.38,0,0,1-2-3.36,17.56,17.56,0,0,1-.71-1.82,15.07,15.07,0,0,1-.52-1.93l1.87.14c-.23.62-.44,1.25-.69,1.86a20,20,0,0,1-.86,1.81,14,14,0,0,1-1,1.73,16,16,0,0,1-1.28,1.6,13.53,13.53,0,0,1-1.54,1.38,6.17,6.17,0,0,1-.86.58,8.08,8.08,0,0,1-.9.52,13.43,13.43,0,0,1-1.93.78l-1,.25-1,.18a14,14,0,0,1-2,.11,15,15,0,0,1-2-.13,18.44,18.44,0,0,1-2-.35c-.65-.14-1.29-.32-1.92-.52a27.54,27.54,0,0,1-3.66-1.44c-.6-.27-1.18-.57-1.75-.88s-1.13-.64-1.72-1l1.31-1.19c.29.6.6,1.18.86,1.8a20,20,0,0,1,.71,1.87l.3,1,.22,1a19.48,19.48,0,0,1,.3,2,17.17,17.17,0,0,1,0,2,13.59,13.59,0,0,1-.24,2l-.22,1-.3,1a15.49,15.49,0,0,1-.78,1.88,14.32,14.32,0,0,1-1,1.75A19.18,19.18,0,0,1,124.15,99c-.43.52-.87,1-1.33,1.49s-.95.92-1.44,1.36a30.15,30.15,0,0,1-3.15,2.37q-.83.54-1.68,1c-.58.32-1.15.62-1.78.9l.07-1.19c.47.32,1,.61,1.42.94s.92.67,1.33,1.07l.64.58.59.62a15.43,15.43,0,0,1,1.08,1.34,12.47,12.47,0,0,1,.89,1.49,11.57,11.57,0,0,1,.68,1.58l.25.83.18.84a12.45,12.45,0,0,1,.2,1.71,16.57,16.57,0,0,1-1.16,6.63,25,25,0,0,1-3.19,5.86l-.29-.4.67-.19c.23-.07.46-.1.69-.15.45-.1.91-.13,1.37-.19a23.15,23.15,0,0,1,2.76,0A31.89,31.89,0,0,1,128.38,128.25Z" style="fill:#fff;opacity:0.7000000000000001"></path></g></svg>