<svg width="317" height="317" viewBox="0 0 317 317" fill="none" xmlns="http://www.w3.org/2000/svg">
<path d="M67.914 76.7678C73.9229 76.7678 78.7941 71.8967 78.7941 65.8878C78.7941 59.8789 73.9229 55.0078 67.914 55.0078C61.9052 55.0078 57.0341 59.8789 57.0341 65.8878C57.0341 71.8967 61.9052 76.7678 67.914 76.7678Z" fill="white" stroke="white" stroke-width="0.5" stroke-miterlimit="10"/>
<path d="M71.5239 65.1478H64.4339C63.7683 65.1478 63.1298 65.4122 62.6591 65.883C62.1884 66.3537 61.924 66.9921 61.924 67.6578V73.6578C63.6578 75.0085 65.7968 75.7345 67.9946 75.7182C70.1924 75.7018 72.3204 74.9442 74.034 73.5678V67.7078C74.0406 67.374 73.9806 67.0422 73.8574 66.7319C73.7343 66.4216 73.5504 66.1389 73.3167 65.9006C73.083 65.6622 72.804 65.4728 72.4962 65.3435C72.1883 65.2143 71.8578 65.1477 71.5239 65.1478V65.1478Z" fill="#F43F5E"/>
<path d="M67.854 64.0578C69.8478 64.0578 71.464 62.4415 71.464 60.4478C71.464 58.4541 69.8478 56.8378 67.854 56.8378C65.8603 56.8378 64.244 58.4541 64.244 60.4478C64.244 62.4415 65.8603 64.0578 67.854 64.0578Z" fill="#F43F5E"/>
<path d="M98.5654 264.057C100.752 258.46 97.9875 252.15 92.3907 249.963C86.7938 247.777 80.484 250.541 78.2974 256.138C76.1108 261.735 78.8753 268.045 84.4722 270.231C90.069 272.418 96.3788 269.654 98.5654 264.057Z" fill="white" stroke="white" stroke-width="0.5" stroke-miterlimit="10"/>
<path d="M92.044 259.368H84.944C84.2809 259.368 83.645 259.631 83.1762 260.1C82.7074 260.569 82.444 261.205 82.444 261.868V267.818C84.1762 269.168 86.3135 269.893 88.5096 269.877C90.7057 269.861 92.832 269.103 94.544 267.728V261.868C94.544 261.205 94.2806 260.569 93.8117 260.1C93.3429 259.631 92.707 259.368 92.044 259.368Z" fill="#F43F5E"/>
<path d="M88.374 258.268C89.088 258.268 89.786 258.056 90.3796 257.659C90.9733 257.263 91.436 256.699 91.7092 256.039C91.9825 255.38 92.054 254.654 91.9147 253.954C91.7754 253.253 91.4316 252.61 90.9267 252.105C90.4218 251.6 89.7786 251.256 89.0783 251.117C88.378 250.978 87.6522 251.049 86.9926 251.323C86.3329 251.596 85.7691 252.059 85.3724 252.652C84.9758 253.246 84.764 253.944 84.764 254.658C84.764 255.132 84.8574 255.601 85.0388 256.039C85.2203 256.477 85.4862 256.875 85.8214 257.21C86.1566 257.546 86.5546 257.812 86.9926 257.993C87.4305 258.174 87.9 258.268 88.374 258.268V258.268Z" fill="#F43F5E"/>
<path d="M230.524 230.524C272.962 188.086 272.962 119.28 230.524 76.8413C188.086 34.403 119.28 34.403 76.8413 76.8413C34.403 119.28 34.403 188.086 76.8413 230.524C119.28 272.962 188.086 272.962 230.524 230.524Z" fill="white"/>
<path opacity="0.18" d="M230.524 230.524C272.962 188.086 272.962 119.28 230.524 76.8413C188.086 34.403 119.28 34.403 76.8413 76.8413C34.403 119.28 34.403 188.086 76.8413 230.524C119.28 272.962 188.086 272.962 230.524 230.524Z" fill="#091E42"/>
<path opacity="0.86" d="M153.684 200.108C130.293 200.106 107.525 192.559 88.7644 178.588C70.0033 164.617 56.2489 144.968 49.5441 122.558C44.7082 138.777 43.7279 155.902 46.6811 172.568C49.6343 189.234 56.4394 204.979 66.5541 218.549C76.6689 232.12 89.8135 243.14 104.941 250.732C120.068 258.323 136.759 262.277 153.684 262.277C170.609 262.277 187.3 258.323 202.428 250.732C217.555 243.14 230.699 232.12 240.814 218.549C250.929 204.979 257.734 189.234 260.687 172.568C263.64 155.902 262.66 138.777 257.824 122.558C251.118 144.967 237.363 164.616 218.602 178.586C199.841 192.557 177.075 200.104 153.684 200.108V200.108Z" fill="white"/>
<path d="M149.774 103.378L160.094 108.018L162.924 112.658L167.574 114.468L168.084 119.368L166.284 122.208L162.674 122.978L154.934 119.878V118.878L159.314 117.078L157.764 111.658L150.764 109.078L147.674 104.958L149.774 103.378ZM214.774 222.528L206.524 219.178L196.434 215.568H188.434L180.984 214.018L172.724 215.828L168.084 216.078H165.244L159.834 219.178L154.674 221.238L147.674 216.858L149.474 209.638L145.094 207.828H139.934L139.164 205.508L139.674 200.868L137.874 198.288L134.264 198.798L133.264 201.378L128.884 201.638L125.014 197.018L123.434 190.808L127.304 183.588L134.784 184.098L136.844 185.908H139.944L143.814 183.588L147.164 184.588L151.804 192.588L153.614 192.338L153.094 186.398L151.554 183.308L152.064 178.408L161.604 174.278L162.894 164.738L167.024 161.388L170.374 155.458L172.954 154.938L178.884 151.068L179.144 149.008L175.014 149.268L174.244 147.198H171.434L167.054 148.198L169.114 144.848L178.114 142.268L180.174 139.948L183.784 145.618L186.114 147.948L189.724 146.948L188.174 143.598L182.754 139.728L176.564 132.728L170.114 128.338L163.924 127.338L160.834 124.248L156.704 123.248L156.194 124.248L155.674 131.728L156.674 134.308L154.434 142.578L149.274 138.448L150.054 134.838L144.634 132.258L142.314 129.428L143.604 122.978L151.084 117.558L151.604 111.368L148.764 111.628L146.954 109.308L146.184 105.438L144.374 105.178L143.374 109.308L140.544 109.828L139.254 100.828L137.184 99.5378L133.574 97.9878L129.434 100.018L134.584 104.928L135.584 109.308L126.304 102.308L119.854 95.3078L119.344 88.3078L112.634 86.2478L107.434 89.7078C106.184 90.4668 104.892 91.1546 103.564 91.7678C101.528 92.2531 99.4591 92.5874 97.374 92.7678L96.374 97.1578L90.444 97.4178L90.964 100.248L100.504 101.798L105.404 107.218V116.218L102.564 124.218L103.084 132.728L95.864 145.368L94.314 164.188L96.634 175.028L99.984 183.278L103.854 183.798L102.564 179.668L100.504 176.568L99.214 170.898L101.534 170.378L105.144 179.668L107.734 188.018V194.728L112.634 200.658L121.434 207.018L134.844 210.628L138.974 214.498L142.064 218.618L146.704 221.458L152.384 223.008L158.054 222.748C158.054 222.748 157.794 225.328 157.794 226.618C157.794 227.908 154.184 232.288 154.184 232.288L151.354 237.448L153.414 243.118L159.084 245.448L167.084 253.698L170.694 255.248V259.108L171.144 260.918C191.207 257.673 209.952 248.846 225.234 235.448L225.374 233.578L232.374 220.938L229.024 218.618L214.774 222.528ZM241.604 120.658L238.764 115.758L235.154 110.078L234.154 102.348L238.794 103.118L239.054 100.538L235.694 100.278L238.534 98.9878L241.634 97.1878V94.6078L238.534 90.4778L237.874 84.9278C222.878 66.5827 202.301 53.6363 179.273 48.057C156.244 42.4777 132.024 44.5707 110.294 54.0178L116.244 58.2278L112.634 62.8778L107.734 63.8778L107.214 70.8778L105.154 71.6478L102.574 74.4878L102.834 79.1278L107.214 79.6478L105.434 84.0178H109.814L117.294 74.4778L118.074 70.3578L125.294 69.8378L127.094 66.7378L134.574 65.9678L135.354 61.5878L140.764 61.3278C140.764 61.3278 144.634 59.2678 145.414 59.2678C146.903 59.5887 148.367 60.0165 149.794 60.5478L153.664 63.6478H159.074L163.724 60.8078L169.654 61.3278C170.507 61.8826 171.481 62.2254 172.494 62.3278C173.784 62.3278 177.644 60.5178 177.644 60.5178L185.124 65.1678L188.224 67.4878V71.3578L192.094 71.8678L193.384 69.5478L196.734 71.0978L196.474 73.1578L188.734 75.2278L193.124 80.8978L202.404 86.0578L206.274 91.2178L211.954 91.7278L213.244 89.1478L215.304 88.6378L208.594 83.4778L204.434 83.0178L207.784 82.0178L204.684 77.6378L209.074 77.3778L214.744 80.4678L216.034 86.6578L218.874 90.0178L221.194 97.4978L226.864 101.618V110.128L232.804 113.998L232.544 116.838L231.764 120.188L233.314 124.828L233.834 127.158L238.214 127.928L240.284 123.538L241.604 120.658ZM244.954 94.6578V96.1378L243.664 100.258L244.434 103.868L247.274 104.868V109.768L244.174 108.478L243.434 122.458L240.344 128.138L242.404 135.358L245.754 138.448V152.378L249.104 163.208L252.724 171.468L258.654 173.008L260.714 167.848L261.554 167.198C262.112 162.716 262.393 158.204 262.394 153.688C262.415 132.743 256.353 112.243 244.944 94.6778L244.954 94.6578ZM185.364 93.0178L168.364 85.5378L160.884 85.7978L159.074 90.6978L155.984 87.3478L150.314 88.6378L149.794 97.1478L154.434 100.498L157.784 95.5978L161.654 99.4678L169.654 106.468L171.204 113.948L177.904 122.458L188.734 120.658L188.484 116.788L186.164 112.398L185.644 102.088L188.224 97.6978L185.364 93.0178ZM199.294 98.6978L195.424 97.6978L192.074 100.538L193.874 108.018H197.234L199.294 98.6978ZM223.294 103.598L214.514 99.0178L212.704 95.9278L210.644 96.6978L212.444 101.858L213.994 108.568L217.864 110.108L218.634 109.108L216.314 105.238L223.024 107.818L223.294 103.598ZM147.984 196.698L146.984 197.698L154.724 200.018L157.814 203.628L162.724 204.148L164.524 201.308L158.594 200.308L147.984 196.698ZM170.984 201.598L165.564 203.148L166.344 205.208H173.044L174.334 203.148L172.014 203.408L170.984 201.598Z" fill="#F43F5E"/>
<path opacity="0.65" d="M153.684 200.108C130.293 200.106 107.525 192.559 88.7644 178.588C70.0033 164.617 56.2489 144.968 49.5441 122.558C44.7082 138.777 43.7279 155.902 46.6811 172.568C49.6343 189.234 56.4394 204.979 66.5541 218.549C76.6689 232.12 89.8135 243.14 104.941 250.732C120.068 258.323 136.759 262.277 153.684 262.277C170.609 262.277 187.3 258.323 202.428 250.732C217.555 243.14 230.699 232.12 240.814 218.549C250.929 204.979 257.734 189.234 260.687 172.568C263.64 155.902 262.66 138.777 257.824 122.558C251.118 144.967 237.363 164.616 218.602 178.586C199.841 192.557 177.075 200.104 153.684 200.108V200.108Z" fill="white"/>
<path d="M149.774 103.378L160.094 108.018L162.924 112.658L167.574 114.468L168.084 119.368L166.284 122.208L162.674 122.978L154.934 119.878V118.878L159.314 117.078L157.764 111.658L150.764 109.078L147.674 104.958L149.774 103.378ZM214.774 222.528L206.524 219.178L196.434 215.568H188.434L180.984 214.018L172.724 215.828L168.084 216.078H165.244L159.834 219.178L154.674 221.238L147.674 216.858L149.474 209.638L145.094 207.828H139.934L139.164 205.508L139.674 200.868L137.874 198.288L134.264 198.798L133.264 201.378L128.884 201.638L125.014 197.018L123.434 190.808L127.304 183.588L134.784 184.098L136.844 185.908H139.944L143.814 183.588L147.164 184.588L151.804 192.588L153.614 192.338L153.094 186.398L151.554 183.308L152.064 178.408L161.604 174.278L162.894 164.738L167.024 161.388L170.374 155.458L172.954 154.938L178.884 151.068L179.144 149.008L175.014 149.268L174.244 147.198H171.434L167.054 148.198L169.114 144.848L178.114 142.268L180.174 139.948L183.784 145.618L186.114 147.948L189.724 146.948L188.174 143.598L182.754 139.728L176.564 132.728L170.114 128.338L163.924 127.338L160.834 124.248L156.704 123.248L156.194 124.248L155.674 131.728L156.674 134.308L154.434 142.578L149.274 138.448L150.054 134.838L144.634 132.258L142.314 129.428L143.604 122.978L151.084 117.558L151.604 111.368L148.764 111.628L146.954 109.308L146.184 105.438L144.374 105.178L143.374 109.308L140.544 109.828L139.254 100.828L137.184 99.5378L133.574 97.9878L129.434 100.018L134.584 104.928L135.584 109.308L126.304 102.308L119.854 95.3078L119.344 88.3078L112.634 86.2478L107.434 89.7078C106.184 90.4668 104.892 91.1546 103.564 91.7678C101.528 92.2531 99.4591 92.5874 97.374 92.7678L96.374 97.1578L90.444 97.4178L90.964 100.248L100.504 101.798L105.404 107.218V116.218L102.564 124.218L103.084 132.728L95.864 145.368L94.314 164.188L96.634 175.028L99.984 183.278L103.854 183.798L102.564 179.668L100.504 176.568L99.214 170.898L101.534 170.378L105.144 179.668L107.734 188.018V194.728L112.634 200.658L121.434 207.018L134.844 210.628L138.974 214.498L142.064 218.618L146.704 221.458L152.384 223.008L158.054 222.748C158.054 222.748 157.794 225.328 157.794 226.618C157.794 227.908 154.184 232.288 154.184 232.288L151.354 237.448L153.414 243.118L159.084 245.448L167.084 253.698L170.694 255.248V259.108L171.144 260.918C191.207 257.673 209.952 248.846 225.234 235.448L225.374 233.578L232.374 220.938L229.024 218.618L214.774 222.528ZM241.604 120.658L238.764 115.758L235.154 110.078L234.154 102.348L238.794 103.118L239.054 100.538L235.694 100.278L238.534 98.9878L241.634 97.1878V94.6078L238.534 90.4778L237.874 84.9278C222.878 66.5827 202.301 53.6363 179.273 48.057C156.244 42.4777 132.024 44.5707 110.294 54.0178L116.244 58.2278L112.634 62.8778L107.734 63.8778L107.214 70.8778L105.154 71.6478L102.574 74.4878L102.834 79.1278L107.214 79.6478L105.434 84.0178H109.814L117.294 74.4778L118.074 70.3578L125.294 69.8378L127.094 66.7378L134.574 65.9678L135.354 61.5878L140.764 61.3278C140.764 61.3278 144.634 59.2678 145.414 59.2678C146.903 59.5887 148.367 60.0165 149.794 60.5478L153.664 63.6478H159.074L163.724 60.8078L169.654 61.3278C170.507 61.8826 171.481 62.2254 172.494 62.3278C173.784 62.3278 177.644 60.5178 177.644 60.5178L185.124 65.1678L188.224 67.4878V71.3578L192.094 71.8678L193.384 69.5478L196.734 71.0978L196.474 73.1578L188.734 75.2278L193.124 80.8978L202.404 86.0578L206.274 91.2178L211.954 91.7278L213.244 89.1478L215.304 88.6378L208.594 83.4778L204.434 83.0178L207.784 82.0178L204.684 77.6378L209.074 77.3778L214.744 80.4678L216.034 86.6578L218.874 90.0178L221.194 97.4978L226.864 101.618V110.128L232.804 113.998L232.544 116.838L231.764 120.188L233.314 124.828L233.834 127.158L238.214 127.928L240.284 123.538L241.604 120.658ZM244.954 94.6578V96.1378L243.664 100.258L244.434 103.868L247.274 104.868V109.768L244.174 108.478L243.434 122.458L240.344 128.138L242.404 135.358L245.754 138.448V152.378L249.104 163.208L252.724 171.468L258.654 173.008L260.714 167.848L261.554 167.198C262.112 162.716 262.393 158.204 262.394 153.688C262.415 132.743 256.353 112.243 244.944 94.6778L244.954 94.6578ZM185.364 93.0178L168.364 85.5378L160.884 85.7978L159.074 90.6978L155.984 87.3478L150.314 88.6378L149.794 97.1478L154.434 100.498L157.784 95.5978L161.654 99.4678L169.654 106.468L171.204 113.948L177.904 122.458L188.734 120.658L188.484 116.788L186.164 112.398L185.644 102.088L188.224 97.6978L185.364 93.0178ZM199.294 98.6978L195.424 97.6978L192.074 100.538L193.874 108.018H197.234L199.294 98.6978ZM223.294 103.598L214.514 99.0178L212.704 95.9278L210.644 96.6978L212.444 101.858L213.994 108.568L217.864 110.108L218.634 109.108L216.314 105.238L223.024 107.818L223.294 103.598ZM147.984 196.698L146.984 197.698L154.724 200.018L157.814 203.628L162.724 204.148L164.524 201.308L158.594 200.308L147.984 196.698ZM170.984 201.598L165.564 203.148L166.344 205.208H173.044L174.334 203.148L172.014 203.408L170.984 201.598Z" stroke="#263238" stroke-miterlimit="10"/>
<path d="M230.524 230.524C272.962 188.086 272.962 119.28 230.524 76.8413C188.086 34.403 119.28 34.403 76.8413 76.8413C34.403 119.28 34.403 188.086 76.8413 230.524C119.28 272.962 188.086 272.962 230.524 230.524Z" stroke="#263238" stroke-miterlimit="10"/>
<path d="M289.819 109.336C295.75 108.37 299.774 102.779 298.808 96.8484C297.843 90.9176 292.252 86.8928 286.321 87.8587C280.39 88.8246 276.366 94.4154 277.331 100.346C278.297 106.277 283.888 110.302 289.819 109.336Z" fill="white" stroke="white" stroke-width="0.5" stroke-miterlimit="10"/>
<path d="M291.674 97.8678H284.574C284.245 97.8678 283.919 97.9328 283.615 98.0591C283.311 98.1853 283.035 98.3704 282.803 98.6036C282.57 98.8368 282.386 99.1135 282.261 99.418C282.136 99.7225 282.073 100.049 282.074 100.378V106.328C283.806 107.678 285.944 108.403 288.14 108.387C290.336 108.371 292.462 107.613 294.174 106.238V100.378C294.175 100.049 294.112 99.7225 293.987 99.418C293.862 99.1135 293.678 98.8368 293.445 98.6036C293.213 98.3704 292.937 98.1853 292.633 98.0591C292.329 97.9328 292.003 97.8678 291.674 97.8678V97.8678Z" fill="#F43F5E"/>
<path d="M288.004 96.7678C288.718 96.7678 289.416 96.5561 290.01 96.1594C290.603 95.7627 291.066 95.1989 291.339 94.5393C291.612 93.8796 291.684 93.1538 291.545 92.4535C291.405 91.7533 291.062 91.11 290.557 90.6051C290.052 90.1003 289.409 89.7565 288.708 89.6172C288.008 89.4779 287.282 89.5494 286.623 89.8226C285.963 90.0958 285.399 90.5585 285.002 91.1522C284.606 91.7458 284.394 92.4438 284.394 93.1578C284.394 93.6319 284.487 94.1013 284.669 94.5393C284.85 94.9773 285.116 95.3752 285.451 95.7104C285.787 96.0457 286.185 96.3116 286.623 96.493C287.061 96.6744 287.53 96.7678 288.004 96.7678V96.7678Z" fill="#F43F5E"/>
<path d="M211.394 65.8178C217.403 65.8178 222.274 60.9467 222.274 54.9378C222.274 48.9289 217.403 44.0578 211.394 44.0578C205.385 44.0578 200.514 48.9289 200.514 54.9378C200.514 60.9467 205.385 65.8178 211.394 65.8178Z" fill="white" stroke="white" stroke-width="0.5" stroke-miterlimit="10"/>
<path d="M214.994 54.1978H207.904C207.245 54.2083 206.617 54.4774 206.155 54.947C205.693 55.4165 205.434 56.049 205.434 56.7078V62.7078C207.168 64.0585 209.307 64.7845 211.505 64.7682C213.702 64.7518 215.83 63.9941 217.544 62.6178V56.7078C217.544 56.3748 217.478 56.0451 217.349 55.7379C217.221 55.4308 217.032 55.1523 216.795 54.9187C216.557 54.6851 216.276 54.501 215.967 54.3773C215.658 54.2535 215.327 54.1925 214.994 54.1978V54.1978Z" fill="#F43F5E"/>
<path d="M211.324 53.0978C213.318 53.0978 214.934 51.4816 214.934 49.4878C214.934 47.4941 213.318 45.8778 211.324 45.8778C209.33 45.8778 207.714 47.4941 207.714 49.4878C207.714 51.4816 209.33 53.0978 211.324 53.0978Z" fill="#F43F5E"/>
<path d="M16.312 131.846C22.2427 130.88 26.2675 125.29 25.3016 119.359C24.3357 113.428 18.7449 109.403 12.8142 110.369C6.88348 111.335 2.85868 116.926 3.82456 122.857C4.79044 128.787 10.3812 132.812 16.312 131.846Z" fill="white" stroke="white" stroke-width="0.5" stroke-miterlimit="10"/>
<path d="M18.174 120.368H11.074C10.7448 120.368 10.4189 120.433 10.115 120.559C9.811 120.685 9.53496 120.87 9.30269 121.104C9.07041 121.337 8.88647 121.614 8.76142 121.918C8.63637 122.222 8.57268 122.549 8.57399 122.878V128.828C10.3063 130.178 12.4436 130.903 14.6396 130.887C16.8357 130.871 18.962 130.113 20.674 128.738V122.878C20.6753 122.549 20.6116 122.222 20.4866 121.918C20.3615 121.614 20.1776 121.337 19.9453 121.104C19.713 120.87 19.437 120.685 19.133 120.559C18.829 120.433 18.5031 120.368 18.174 120.368V120.368Z" fill="#F43F5E"/>
<path d="M14.504 119.268C15.218 119.268 15.916 119.056 16.5097 118.659C17.1033 118.263 17.566 117.699 17.8392 117.039C18.1125 116.38 18.184 115.654 18.0447 114.954C17.9054 114.253 17.5616 113.61 17.0567 113.105C16.5518 112.6 15.9086 112.256 15.2083 112.117C14.508 111.978 13.7822 112.049 13.1226 112.323C12.4629 112.596 11.8991 113.059 11.5024 113.652C11.1058 114.246 10.894 114.944 10.894 115.658C10.894 116.615 11.2744 117.533 11.9514 118.21C12.6284 118.887 13.5466 119.268 14.504 119.268Z" fill="#F43F5E"/>
<path d="M23.3218 200.34C29.2526 199.374 33.2774 193.784 32.3115 187.853C31.3456 181.922 25.7548 177.897 19.8241 178.863C13.8934 179.829 9.86857 185.42 10.8344 191.351C11.8003 197.281 17.3911 201.306 23.3218 200.34Z" fill="white" stroke="white" stroke-width="0.5" stroke-miterlimit="10"/>
<path d="M25.174 188.868H18.074C17.7448 188.868 17.4189 188.933 17.115 189.059C16.811 189.185 16.535 189.37 16.3027 189.604C16.0704 189.837 15.8865 190.114 15.7614 190.418C15.6364 190.722 15.5727 191.049 15.574 191.378V197.328C17.3063 198.678 19.4436 199.403 21.6396 199.387C23.8357 199.371 25.962 198.613 27.674 197.238V191.378C27.6753 191.049 27.6116 190.722 27.4866 190.418C27.3615 190.114 27.1776 189.837 26.9453 189.604C26.713 189.37 26.437 189.185 26.133 189.059C25.829 188.933 25.5031 188.868 25.174 188.868V188.868Z" fill="#F43F5E"/>
<path d="M21.504 187.768C22.218 187.768 22.916 187.556 23.5097 187.159C24.1033 186.763 24.566 186.199 24.8392 185.539C25.1125 184.88 25.184 184.154 25.0447 183.454C24.9054 182.753 24.5616 182.11 24.0567 181.605C23.5518 181.1 22.9086 180.756 22.2083 180.617C21.508 180.478 20.7822 180.549 20.1226 180.823C19.4629 181.096 18.8991 181.559 18.5024 182.152C18.1058 182.746 17.894 183.444 17.894 184.158C17.894 185.115 18.2744 186.033 18.9514 186.71C19.6284 187.387 20.5466 187.768 21.504 187.768V187.768Z" fill="#F43F5E"/>
<path d="M76.058 138.583C78.2593 132.992 75.5113 126.675 69.9201 124.473C64.329 122.272 58.012 125.02 55.8107 130.611C53.6094 136.202 56.3575 142.519 61.9486 144.721C67.5397 146.922 73.8567 144.174 76.058 138.583Z" fill="white" stroke="white" stroke-width="0.5" stroke-miterlimit="10"/>
<path d="M69.544 133.868H62.434C61.7709 133.868 61.135 134.131 60.6662 134.6C60.1974 135.069 59.934 135.705 59.934 136.368V142.368C61.6662 143.718 63.8035 144.443 65.9996 144.427C68.1957 144.411 70.322 143.653 72.034 142.278V136.418C72.0406 136.086 71.9812 135.756 71.8591 135.448C71.7371 135.14 71.5549 134.859 71.3232 134.621C71.0914 134.384 70.8147 134.195 70.5093 134.066C70.2038 133.936 69.8757 133.869 69.544 133.868V133.868Z" fill="#F43F5E"/>
<path d="M65.874 132.768C66.588 132.768 67.286 132.556 67.8796 132.159C68.4733 131.763 68.936 131.199 69.2092 130.539C69.4825 129.88 69.554 129.154 69.4147 128.454C69.2754 127.753 68.9316 127.11 68.4267 126.605C67.9218 126.1 67.2786 125.756 66.5783 125.617C65.878 125.478 65.1522 125.549 64.4926 125.823C63.8329 126.096 63.2691 126.559 62.8724 127.152C62.4758 127.746 62.264 128.444 62.264 129.158C62.264 129.632 62.3574 130.101 62.5388 130.539C62.7203 130.977 62.9862 131.375 63.3214 131.71C63.6566 132.046 64.0546 132.312 64.4926 132.493C64.9305 132.674 65.4 132.768 65.874 132.768Z" fill="#F43F5E"/>
<path d="M137.704 252.228C143.713 252.228 148.584 247.357 148.584 241.348C148.584 235.339 143.713 230.468 137.704 230.468C131.695 230.468 126.824 235.339 126.824 241.348C126.824 247.357 131.695 252.228 137.704 252.228Z" fill="white" stroke="white" stroke-width="0.5" stroke-miterlimit="10"/>
<path d="M141.314 240.618H134.224C133.558 240.618 132.92 240.882 132.449 241.353C131.978 241.824 131.714 242.462 131.714 243.128V249.078C133.448 250.429 135.587 251.154 137.785 251.138C139.982 251.122 142.11 250.364 143.824 248.988V243.128C143.824 242.462 143.56 241.824 143.089 241.353C142.618 240.882 141.98 240.618 141.314 240.618Z" fill="#F43F5E"/>
<path d="M137.644 239.518C139.638 239.518 141.254 237.902 141.254 235.908C141.254 233.914 139.638 232.298 137.644 232.298C135.65 232.298 134.034 233.914 134.034 235.908C134.034 237.902 135.65 239.518 137.644 239.518Z" fill="#F43F5E"/>
<path d="M215.934 273.148C221.943 273.148 226.814 268.277 226.814 262.268C226.814 256.259 221.943 251.388 215.934 251.388C209.925 251.388 205.054 256.259 205.054 262.268C205.054 268.277 209.925 273.148 215.934 273.148Z" fill="white" stroke="white" stroke-width="0.5" stroke-miterlimit="10"/>
<path d="M219.534 261.538H212.434C211.77 261.538 211.133 261.801 210.663 262.269C210.192 262.738 209.927 263.374 209.924 264.038V270.038C211.658 271.389 213.797 272.114 215.995 272.098C218.192 272.082 220.32 271.324 222.034 269.948V264.018C222.029 263.358 221.763 262.727 221.295 262.263C220.826 261.798 220.194 261.538 219.534 261.538V261.538Z" fill="#F43F5E"/>
<path d="M215.864 260.438C217.858 260.438 219.474 258.822 219.474 256.828C219.474 254.834 217.858 253.218 215.864 253.218C213.87 253.218 212.254 254.834 212.254 256.828C212.254 258.822 213.87 260.438 215.864 260.438Z" fill="#F43F5E"/>
<path d="M281.152 203.349C283.224 197.709 280.333 191.457 274.693 189.384C269.053 187.311 262.8 190.203 260.727 195.843C258.654 201.483 261.546 207.735 267.186 209.808C272.826 211.881 279.079 208.989 281.152 203.349Z" fill="white" stroke="white" stroke-width="0.5" stroke-miterlimit="10"/>
<path d="M274.544 198.868H267.434C266.771 198.868 266.135 199.131 265.666 199.6C265.197 200.069 264.934 200.705 264.934 201.368V207.368C266.666 208.718 268.804 209.443 271 209.427C273.196 209.411 275.322 208.653 277.034 207.278V201.418C277.041 201.086 276.981 200.756 276.859 200.448C276.737 200.14 276.555 199.859 276.323 199.621C276.091 199.384 275.815 199.195 275.509 199.066C275.204 198.936 274.876 198.869 274.544 198.868V198.868Z" fill="#F43F5E"/>
<path d="M270.874 197.768C271.588 197.768 272.286 197.556 272.88 197.159C273.473 196.763 273.936 196.199 274.209 195.539C274.482 194.88 274.554 194.154 274.415 193.454C274.275 192.753 273.931 192.11 273.427 191.605C272.922 191.1 272.278 190.756 271.578 190.617C270.878 190.478 270.152 190.549 269.492 190.823C268.833 191.096 268.269 191.559 267.872 192.152C267.476 192.746 267.264 193.444 267.264 194.158C267.264 195.115 267.644 196.033 268.321 196.71C268.998 197.387 269.917 197.768 270.874 197.768Z" fill="#F43F5E"/>
<path d="M249.294 101.658C264.654 114.108 273.764 129.658 273.764 146.438C273.764 187.438 219.594 220.698 152.764 220.698C85.934 220.698 31.764 187.448 31.764 146.438C31.764 128.498 42.134 112.048 59.394 99.2078" stroke="white" stroke-width="0.5" stroke-miterlimit="10"/>
<path d="M83.434 70.7678C94.324 52.9178 109.634 41.0178 127.774 38.3678C170.394 32.2278 212.504 79.8378 221.844 144.708C231.184 209.578 204.214 267.138 161.604 273.278C142.204 276.068 122.904 267.728 106.754 251.688" stroke="white" stroke-width="0.5" stroke-miterlimit="10"/>
<path d="M247.078 228.151C261.24 204.968 226.235 157.776 168.892 122.746C111.548 87.7163 53.5817 78.1127 39.4194 101.296C25.2571 124.479 60.2622 171.671 117.606 206.701C174.949 241.731 232.916 251.334 247.078 228.151Z" stroke="white" stroke-width="0.5" stroke-miterlimit="10"/>
<path d="M177.8 201.253C236.647 165.304 272.871 117.368 258.709 94.1849C244.546 71.0015 185.361 81.3497 126.514 117.298C67.6671 153.247 31.4431 201.182 45.6054 224.366C59.7677 247.549 118.953 237.201 177.8 201.253Z" stroke="white" stroke-width="0.5" stroke-miterlimit="10"/>
<path d="M203.504 85.0178C203.504 84.6222 203.387 84.2356 203.167 83.9067C202.947 83.5778 202.635 83.3214 202.269 83.17C201.904 83.0187 201.502 82.9791 201.114 83.0562C200.726 83.1334 200.37 83.3239 200.09 83.6036C199.81 83.8833 199.62 84.2396 199.542 84.6276C199.465 85.0156 199.505 85.4177 199.656 85.7832C199.808 86.1486 200.064 86.461 200.393 86.6807C200.722 86.9005 201.108 87.0178 201.504 87.0178C202.034 87.0178 202.543 86.8071 202.918 86.432C203.293 86.0569 203.504 85.5482 203.504 85.0178Z" fill="white" stroke="white" stroke-width="0.5" stroke-miterlimit="10"/>
<path d="M225.504 166.888C225.504 166.492 225.387 166.106 225.167 165.777C224.947 165.448 224.635 165.191 224.269 165.04C223.904 164.889 223.502 164.849 223.114 164.926C222.726 165.003 222.37 165.194 222.09 165.474C221.81 165.753 221.62 166.11 221.542 166.498C221.465 166.886 221.505 167.288 221.656 167.653C221.808 168.019 222.064 168.331 222.393 168.551C222.722 168.77 223.108 168.888 223.504 168.888C224.034 168.888 224.543 168.677 224.918 168.302C225.293 167.927 225.504 167.418 225.504 166.888Z" fill="white" stroke="white" stroke-width="0.5" stroke-miterlimit="10"/>
<path d="M221.104 208.478C221.104 208.082 220.987 207.696 220.767 207.367C220.547 207.038 220.235 206.781 219.869 206.63C219.504 206.479 219.102 206.439 218.714 206.516C218.326 206.593 217.97 206.784 217.69 207.064C217.41 207.343 217.22 207.7 217.142 208.088C217.065 208.476 217.105 208.878 217.256 209.243C217.408 209.609 217.664 209.921 217.993 210.141C218.322 210.36 218.708 210.478 219.104 210.478C219.634 210.478 220.143 210.267 220.518 209.892C220.893 209.517 221.104 209.008 221.104 208.478Z" fill="white" stroke="white" stroke-width="0.5" stroke-miterlimit="10"/>
<path d="M208.344 240.158C208.344 239.762 208.227 239.376 208.007 239.047C207.787 238.718 207.475 238.461 207.109 238.31C206.744 238.159 206.342 238.119 205.954 238.196C205.566 238.273 205.209 238.464 204.93 238.744C204.65 239.023 204.46 239.38 204.382 239.768C204.305 240.156 204.345 240.558 204.496 240.923C204.648 241.289 204.904 241.601 205.233 241.821C205.562 242.041 205.948 242.158 206.344 242.158C206.874 242.158 207.383 241.947 207.758 241.572C208.133 241.197 208.344 240.688 208.344 240.158Z" fill="white" stroke="white" stroke-width="0.5" stroke-miterlimit="10"/>
<path d="M246.434 195.018C246.434 194.622 246.317 194.236 246.097 193.907C245.877 193.578 245.565 193.321 245.199 193.17C244.834 193.019 244.432 192.979 244.044 193.056C243.656 193.133 243.299 193.324 243.02 193.604C242.74 193.883 242.55 194.24 242.472 194.628C242.395 195.016 242.435 195.418 242.586 195.783C242.738 196.149 242.994 196.461 243.323 196.681C243.652 196.9 244.038 197.018 244.434 197.018C244.964 197.018 245.473 196.807 245.848 196.432C246.223 196.057 246.434 195.548 246.434 195.018Z" fill="white" stroke="white" stroke-width="0.5" stroke-miterlimit="10"/>
<path d="M143.654 220.138C143.654 219.742 143.537 219.356 143.317 219.027C143.097 218.698 142.785 218.441 142.419 218.29C142.054 218.139 141.652 218.099 141.264 218.176C140.876 218.253 140.52 218.444 140.24 218.724C139.96 219.003 139.77 219.36 139.692 219.748C139.615 220.136 139.655 220.538 139.806 220.903C139.958 221.269 140.214 221.581 140.543 221.801C140.872 222.02 141.258 222.138 141.654 222.138C142.184 222.138 142.693 221.927 143.068 221.552C143.443 221.177 143.654 220.668 143.654 220.138Z" fill="white" stroke="white" stroke-width="0.5" stroke-miterlimit="10"/>
<path d="M52.564 186.918C52.564 186.522 52.4467 186.136 52.2269 185.807C52.0071 185.478 51.6948 185.221 51.3293 185.07C50.9639 184.919 50.5618 184.879 50.1738 184.956C49.7858 185.033 49.4295 185.224 49.1498 185.504C48.8701 185.783 48.6796 186.14 48.6024 186.528C48.5252 186.916 48.5648 187.318 48.7162 187.683C48.8676 188.049 49.1239 188.361 49.4528 188.581C49.7817 188.8 50.1684 188.918 50.564 188.918C51.0944 188.918 51.6031 188.707 51.9782 188.332C52.3533 187.957 52.564 187.448 52.564 186.918Z" fill="white" stroke="white" stroke-width="0.5" stroke-miterlimit="10"/>
<path d="M67.964 166.228C67.964 165.832 67.8467 165.446 67.6269 165.117C67.4072 164.788 67.0948 164.531 66.7294 164.38C66.3639 164.229 65.9618 164.189 65.5738 164.266C65.1858 164.343 64.8295 164.534 64.5498 164.814C64.2701 165.093 64.0796 165.45 64.0024 165.838C63.9253 166.226 63.9648 166.628 64.1162 166.993C64.2676 167.359 64.5239 167.671 64.8528 167.891C65.1817 168.11 65.5684 168.228 65.964 168.228C66.4944 168.228 67.0031 168.017 67.3782 167.642C67.7533 167.267 67.964 166.758 67.964 166.228Z" fill="white" stroke="white" stroke-width="0.5" stroke-miterlimit="10"/>
<path d="M143.874 108.368C143.874 107.972 143.757 107.586 143.537 107.257C143.317 106.928 143.005 106.671 142.639 106.52C142.274 106.369 141.872 106.329 141.484 106.406C141.096 106.483 140.74 106.674 140.46 106.954C140.18 107.233 139.99 107.59 139.912 107.978C139.835 108.366 139.875 108.768 140.026 109.133C140.178 109.499 140.434 109.811 140.763 110.031C141.092 110.251 141.478 110.368 141.874 110.368C142.404 110.368 142.913 110.157 143.288 109.782C143.663 109.407 143.874 108.898 143.874 108.368Z" fill="white" stroke="white" stroke-width="0.5" stroke-miterlimit="10"/>
<path d="M262.684 113.428C262.684 113.032 262.567 112.646 262.347 112.317C262.127 111.988 261.815 111.731 261.449 111.58C261.084 111.429 260.682 111.389 260.294 111.466C259.906 111.543 259.549 111.734 259.27 112.014C258.99 112.293 258.8 112.65 258.722 113.038C258.645 113.426 258.685 113.828 258.836 114.193C258.988 114.559 259.244 114.871 259.573 115.091C259.902 115.31 260.288 115.428 260.684 115.428C261.214 115.428 261.723 115.217 262.098 114.842C262.473 114.467 262.684 113.958 262.684 113.428Z" fill="white" stroke="white" stroke-width="0.5" stroke-miterlimit="10"/>
<path d="M40.024 123.108C40.024 122.712 39.9068 122.326 39.687 121.997C39.4672 121.668 39.1549 121.411 38.7894 121.26C38.424 121.109 38.0218 121.069 37.6339 121.146C37.2459 121.223 36.8895 121.414 36.6098 121.694C36.3301 121.973 36.1396 122.33 36.0625 122.718C35.9853 123.106 36.0249 123.508 36.1763 123.873C36.3277 124.239 36.584 124.551 36.9129 124.771C37.2418 124.99 37.6285 125.108 38.024 125.108C38.5545 125.108 39.0632 124.897 39.4383 124.522C39.8133 124.147 40.024 123.638 40.024 123.108Z" fill="white" stroke="white" stroke-width="0.5" stroke-miterlimit="10"/>
<path d="M262.664 112.638L278.384 104.178" stroke="white" stroke-width="0.5" stroke-miterlimit="10"/>
<path d="M36.064 123.108L25.444 121.108" stroke="white" stroke-width="0.5" stroke-miterlimit="10"/>
<path d="M65.984 164.248V145.478" stroke="white" stroke-width="0.5" stroke-miterlimit="10"/>
<path d="M48.604 186.918L32.444 189.608" stroke="white" stroke-width="0.5" stroke-miterlimit="10"/>
<path d="M141.224 222.088L139.744 230.788" stroke="white" stroke-width="0.5" stroke-miterlimit="10"/>
<path d="M207.114 242.068L211.744 252.148" stroke="white" stroke-width="0.5" stroke-miterlimit="10"/>
<path d="M246.404 195.058L259.844 197.938" stroke="white" stroke-width="0.5" stroke-miterlimit="10"/>
<path d="M217.524 207.028L204.474 194.468" stroke="white" stroke-width="0.5" stroke-miterlimit="10"/>
<path d="M202.324 83.2378L208.274 65.5478" stroke="white" stroke-width="0.5" stroke-miterlimit="10"/>
<path d="M75.814 73.9678L78.334 75.8578" stroke="white" stroke-width="0.5" stroke-miterlimit="10"/>
<path d="M95.0341 251.328L97.864 247.548" stroke="white" stroke-width="0.5" stroke-miterlimit="10"/>
<path d="M206.619 190.928C208.737 185.305 205.895 179.03 200.272 176.912C194.649 174.793 188.373 177.635 186.255 183.258C184.137 188.881 186.979 195.157 192.602 197.275C198.225 199.393 204.501 196.552 206.619 190.928Z" fill="white" stroke="white" stroke-width="0.5" stroke-miterlimit="10"/>
<path d="M200.044 186.368H192.944C192.281 186.368 191.645 186.631 191.176 187.1C190.707 187.569 190.444 188.205 190.444 188.868V194.868C192.176 196.218 194.314 196.943 196.51 196.927C198.706 196.911 200.832 196.153 202.544 194.778V188.918C202.551 188.585 202.491 188.255 202.368 187.946C202.246 187.637 202.062 187.355 201.83 187.118C201.597 186.88 201.319 186.692 201.012 186.563C200.706 186.434 200.376 186.368 200.044 186.368V186.368Z" fill="#F43F5E"/>
<path d="M196.374 185.268C197.088 185.268 197.786 185.056 198.38 184.659C198.973 184.263 199.436 183.699 199.709 183.039C199.982 182.38 200.054 181.654 199.915 180.954C199.775 180.253 199.431 179.61 198.927 179.105C198.422 178.6 197.778 178.256 197.078 178.117C196.378 177.978 195.652 178.049 194.992 178.323C194.333 178.596 193.769 179.059 193.372 179.652C192.976 180.246 192.764 180.944 192.764 181.658C192.764 182.615 193.144 183.533 193.821 184.21C194.498 184.887 195.417 185.268 196.374 185.268V185.268Z" fill="#F43F5E"/>
<path d="M231.137 139.417C233.24 133.789 230.382 127.521 224.753 125.417C219.125 123.314 212.857 126.172 210.753 131.8C208.65 137.429 211.508 143.697 217.136 145.801C222.765 147.904 229.033 145.046 231.137 139.417Z" fill="white" stroke="white" stroke-width="0.5" stroke-miterlimit="10"/>
<path d="M224.544 134.868H217.434C216.771 134.868 216.135 135.131 215.666 135.6C215.197 136.069 214.934 136.705 214.934 137.368V143.368C216.666 144.718 218.804 145.443 221 145.427C223.196 145.411 225.322 144.653 227.034 143.278V137.418C227.041 137.086 226.981 136.756 226.859 136.448C226.737 136.14 226.555 135.859 226.323 135.621C226.091 135.384 225.815 135.195 225.509 135.066C225.204 134.936 224.876 134.869 224.544 134.868V134.868Z" fill="#F43F5E"/>
<path d="M220.874 133.768C221.588 133.768 222.286 133.556 222.88 133.159C223.473 132.763 223.936 132.199 224.209 131.539C224.482 130.88 224.554 130.154 224.415 129.454C224.275 128.753 223.931 128.11 223.427 127.605C222.922 127.1 222.278 126.756 221.578 126.617C220.878 126.478 220.152 126.549 219.492 126.823C218.833 127.096 218.269 127.559 217.872 128.152C217.476 128.746 217.264 129.444 217.264 130.158C217.264 131.115 217.644 132.033 218.321 132.71C218.998 133.387 219.917 133.768 220.874 133.768Z" fill="#F43F5E"/>
</svg>
