<svg xmlns="http://www.w3.org/2000/svg" viewBox="0 0 500 500"><g id="freepik--background-complete--inject-418"><rect x="62.77" y="59.04" width="35.16" height="11.19" style="fill:#ebebeb"></rect><path d="M437.73,159.25H401.57V147.06h36.16Zm-35.16-1h34.16V148.06H402.57Z" style="fill:#ebebeb"></path><path d="M78.32,44.93c-5.84.1-20.81.35-26.45.42l-8.71,0,.46-.46,0,11.19-.5-.5c5.84,0,20.73.08,26.37.16l8.79.11-.24.23.24-11.19Zm0,0,.23,11.19v.24h-.24c-4.39.06-13.2.16-17.58.19l-17.58.07h-.5v-.5l0-11.19v-.45h.45l8.87,0c5.6.06,20.5.31,26.29.41Z" style="fill:#ebebeb"></path><path d="M137.08,311.75c-5.84.1-20.82.35-26.45.42l-8.71,0,.45-.46,0,11.19-.5-.5c5.84,0,20.73.08,26.37.16l8.79.11-.24.23.24-11.19Zm0,0,.23,11.19v.24h-.24c-4.39.06-13.2.16-17.58.2l-17.58.06h-.5v-.51l0-11.19v-.45h.46l8.87,0c5.6.06,20.5.32,26.29.41Z" style="fill:#ebebeb"></path><path d="M117.46,297.64c-5.84.1-20.81.35-26.44.42l-8.71,0,.45-.46,0,11.19-.5-.5c5.83,0,20.72.08,26.36.16l8.79.11-.23.23.23-11.19Zm0,0,.24,11.19v.24h-.25c-4.38.06-13.19.16-17.58.2l-17.57.06H81.8v-.51l0-11.19v-.45h.46l8.86,0c5.61.06,20.51.32,26.29.41Z" style="fill:#ebebeb"></path><rect x="62.77" y="311.75" width="35.16" height="11.19" style="fill:#ebebeb"></rect><rect x="421.68" y="44.93" width="35.16" height="11.19" style="fill:#ebebeb"></rect><rect x="402.07" y="436.89" width="35.16" height="11.19" style="fill:#ebebeb"></rect><path d="M456.84,422.78c-5.84.1-20.81.35-26.45.42l-8.71,0,.46-.46,0,11.19-.5-.5c5.84,0,20.73.07,26.37.16l8.79.1-.24.24.24-11.19Zm0,0,.24,11.19v.24h-.24c-4.39.06-13.19.16-17.58.19l-17.58.07h-.5V434l.05-11.19v-.46h.45l8.87,0c5.6.06,20.51.31,26.29.41Z" style="fill:#ebebeb"></path><path d="M78.32,436.89c-5.84.1-20.81.35-26.45.41l-8.71.05.46-.46,0,11.19-.5-.5c5.84,0,20.73.07,26.37.15l8.79.11-.24.24.24-11.19Zm0,0,.23,11.19v.24h-.24c-4.39.06-13.2.16-17.58.19l-17.58.07h-.5v-.5l0-11.19v-.46h.45l8.87,0c5.6.06,20.5.31,26.29.41Z" style="fill:#ebebeb"></path><rect x="215.46" y="41.64" width="236.76" height="171.04" style="fill:#fff"></rect><path d="M455.12,215.58H212.56V38.73H455.12Zm-236.76-5.81h231V44.54h-231Z" style="fill:#ebebeb"></path><path d="M389.58,168.88a.52.52,0,0,1-.27-.07l-12.55-7.24a.57.57,0,0,1-.28-.48V146.6a.56.56,0,0,1,.28-.48l12.55-7.25a.54.54,0,0,1,.55,0l12.55,7.25a.56.56,0,0,1,.28.48v14.49a.57.57,0,0,1-.28.48l-12.55,7.24A.53.53,0,0,1,389.58,168.88Zm-12-8.11,12,6.92,12-6.92V146.92l-12-6.93-12,6.93Z" style="fill:#ebebeb"></path><path d="M414.68,168.88a.55.55,0,0,1-.28-.07l-12.54-7.24a.55.55,0,0,1-.28-.48V146.6a.54.54,0,0,1,.28-.48l12.54-7.25a.56.56,0,0,1,.56,0l12.54,7.25a.54.54,0,0,1,.28.48v14.49a.55.55,0,0,1-.28.48L415,168.81A.55.55,0,0,1,414.68,168.88Zm-12-8.11,12,6.92,12-6.92V146.92l-12-6.93-12,6.93Z" style="fill:#ebebeb"></path><path d="M414.68,139.91a.55.55,0,0,1-.55-.56v-8.6a.55.55,0,0,1,1.1,0v8.6A.55.55,0,0,1,414.68,139.91Z" style="fill:#ebebeb"></path><path d="M427.23,147.15a.54.54,0,0,1-.49-.29.56.56,0,0,1,.22-.75l7.3-4a.55.55,0,0,1,.75.22.55.55,0,0,1-.22.75l-7.3,4A.48.48,0,0,1,427.23,147.15Z" style="fill:#ebebeb"></path><path d="M379.32,160a.56.56,0,0,1-.55-.56V148.4a.55.55,0,0,1,.55-.55.55.55,0,0,1,.55.55v11.06A.55.55,0,0,1,379.32,160Z" style="fill:#ebebeb"></path><path d="M405.22,160a.55.55,0,0,1-.55-.56V148.4a.55.55,0,0,1,1.1,0v11.06A.55.55,0,0,1,405.22,160Z" style="fill:#ebebeb"></path><path d="M399.58,148.36a.48.48,0,0,1-.28-.08l-9.56-5.56a.55.55,0,0,1-.2-.75.54.54,0,0,1,.76-.2l9.56,5.56a.55.55,0,0,1,.2.75A.56.56,0,0,1,399.58,148.36Z" style="fill:#ebebeb"></path><path d="M424.51,148.36a.48.48,0,0,1-.28-.08l-9.56-5.56a.54.54,0,0,1-.2-.75.54.54,0,0,1,.75-.2l9.56,5.56a.55.55,0,0,1-.27,1Z" style="fill:#ebebeb"></path><path d="M350.47,137.11a.58.58,0,0,1-.28-.07l-12.54-7.24a.57.57,0,0,1-.28-.48V114.83a.56.56,0,0,1,.28-.48l12.54-7.25a.61.61,0,0,1,.56,0l12.55,7.25a.55.55,0,0,1,.27.48v14.49a.56.56,0,0,1-.27.48L350.75,137A.55.55,0,0,1,350.47,137.11Zm-12-8.11,12,6.92,12-6.92V115.15l-12-6.93-12,6.93Z" style="fill:#ebebeb"></path><path d="M350.47,108.14a.56.56,0,0,1-.55-.56V99a.55.55,0,0,1,.55-.55A.55.55,0,0,1,351,99v8.6A.55.55,0,0,1,350.47,108.14Z" style="fill:#ebebeb"></path><path d="M374.31,106.2a.55.55,0,0,1-.55-.55v-8.6a.54.54,0,0,1,.55-.55.55.55,0,0,1,.55.55v8.6A.55.55,0,0,1,374.31,106.2Z" style="fill:#ebebeb"></path><path d="M363,115.38a.54.54,0,0,1-.49-.29.57.57,0,0,1,.22-.75l7.3-4a.55.55,0,0,1,.75.22.55.55,0,0,1-.22.75l-7.3,4A.48.48,0,0,1,363,115.38Z" style="fill:#ebebeb"></path><path d="M385.44,115.38a.48.48,0,0,1-.26-.07l-7.3-4a.55.55,0,0,1-.22-.75.55.55,0,0,1,.75-.22l7.3,4a.56.56,0,0,1,.22.75A.54.54,0,0,1,385.44,115.38Z" style="fill:#ebebeb"></path><path d="M360.62,128.25a.56.56,0,0,1-.55-.56V116.63a.55.55,0,0,1,.55-.55.55.55,0,0,1,.55.55v11.06A.55.55,0,0,1,360.62,128.25Z" style="fill:#ebebeb"></path><path d="M340.72,116.59a.56.56,0,0,1-.48-.27.55.55,0,0,1,.2-.76L350,110a.55.55,0,0,1,.55,1L341,116.52A.58.58,0,0,1,340.72,116.59Z" style="fill:#ebebeb"></path><path d="M278.9,83.38a.64.64,0,0,1-.27-.07l-12.55-7.25a.56.56,0,0,1-.28-.48V61.09a.57.57,0,0,1,.28-.48l12.55-7.24a.54.54,0,0,1,.55,0l12.55,7.24a.56.56,0,0,1,.27.48V75.58a.55.55,0,0,1-.27.48l-12.55,7.25A.68.68,0,0,1,278.9,83.38Zm-12-8.12,12,6.93,12-6.93V61.41l-12-6.92-12,6.92Z" style="fill:#ebebeb"></path><path d="M291.45,61.65a.58.58,0,0,1-.49-.29.57.57,0,0,1,.22-.75l7.3-4a.56.56,0,0,1,.76.22.57.57,0,0,1-.22.75l-7.3,4A.68.68,0,0,1,291.45,61.65Z" style="fill:#ebebeb"></path><path d="M269.15,74.51a.54.54,0,0,1-.55-.55V62.9a.54.54,0,0,1,.55-.55.55.55,0,0,1,.55.55V74A.55.55,0,0,1,269.15,74.51Z" style="fill:#ebebeb"></path><path d="M289,62.86a.53.53,0,0,1-.27-.08l-9.56-5.56a.54.54,0,0,1-.2-.76.55.55,0,0,1,.75-.2l9.56,5.56a.56.56,0,0,1,.2.76A.55.55,0,0,1,289,62.86Z" style="fill:#ebebeb"></path><path d="M279.44,80.64a.55.55,0,0,1-.27-1l9.56-5.56a.54.54,0,0,1,.75.2.56.56,0,0,1-.2.76l-9.56,5.56A.55.55,0,0,1,279.44,80.64Z" style="fill:#ebebeb"></path><path d="M416.74,95.84a.57.57,0,0,1-.28-.08l-12.55-7.24a.55.55,0,0,1-.27-.48V73.55a.55.55,0,0,1,.27-.48l12.55-7.24a.54.54,0,0,1,.55,0l12.55,7.24a.56.56,0,0,1,.28.48V88a.56.56,0,0,1-.28.48L417,95.76A.53.53,0,0,1,416.74,95.84Zm-12-8.12,12,6.93,12-6.93V73.87l-12-6.92-12,6.92Z" style="fill:#ebebeb"></path><path d="M429.28,74.1a.55.55,0,0,1-.26-1l7.3-4a.55.55,0,0,1,.53,1l-7.3,4A.63.63,0,0,1,429.28,74.1Z" style="fill:#ebebeb"></path><path d="M407,87a.55.55,0,0,1-.55-.55V75.36a.56.56,0,0,1,1.11,0V86.42A.56.56,0,0,1,407,87Z" style="fill:#ebebeb"></path><path d="M426.84,75.31a.55.55,0,0,1-.28-.07L417,69.68a.56.56,0,1,1,.56-1l9.56,5.56a.57.57,0,0,1,.2.76A.55.55,0,0,1,426.84,75.31Z" style="fill:#ebebeb"></path><path d="M417.28,93.1a.55.55,0,0,1-.28-1l9.56-5.56a.55.55,0,1,1,.56.95L417.56,93A.58.58,0,0,1,417.28,93.1Z" style="fill:#ebebeb"></path><rect x="81.26" y="120.11" width="214.71" height="292.85" transform="translate(-32.38 26.17) rotate(-7.31)" style="fill:#ebebeb"></rect><rect x="72.68" y="134.37" width="9.49" height="292.85" transform="translate(189.95 549.46) rotate(172.69)" style="fill:#dbdbdb"></rect><rect x="64.49" y="121.18" width="214.71" height="29.23" transform="translate(-15.88 22.97) rotate(-7.31)" style="fill:#dbdbdb"></rect><rect x="55.9" y="135.44" width="9.49" height="29.23" transform="translate(-18.6 8.94) rotate(-7.31)" style="fill:#a6a6a6"></rect><rect x="75.04" y="163.99" width="0.5" height="263.62" transform="translate(-37.03 11.99) rotate(-7.31)" style="fill:#c7c7c7"></rect><rect x="76.18" y="163.85" width="0.5" height="263.63" transform="translate(-37 12.13) rotate(-7.31)" style="fill:#c7c7c7"></rect><rect x="77.32" y="163.7" width="0.5" height="263.62" transform="translate(-36.97 12.27) rotate(-7.31)" style="fill:#c7c7c7"></rect><rect x="78.46" y="163.55" width="0.5" height="263.62" transform="matrix(0.99, -0.13, 0.13, 0.99, -36.94, 12.42)" style="fill:#c7c7c7"></rect><rect x="79.6" y="163.41" width="0.5" height="263.63" transform="matrix(0.99, -0.13, 0.13, 0.99, -36.92, 12.56)" style="fill:#c7c7c7"></rect><rect x="80.74" y="163.26" width="0.5" height="263.63" transform="translate(-36.89 12.7) rotate(-7.31)" style="fill:#c7c7c7"></rect><rect x="81.88" y="163.11" width="0.5" height="263.62" transform="translate(-36.86 12.85) rotate(-7.31)" style="fill:#c7c7c7"></rect><rect x="83.02" y="162.97" width="0.5" height="263.63" transform="translate(-36.83 12.99) rotate(-7.31)" style="fill:#c7c7c7"></rect><rect x="104.79" y="245.25" width="77.73" height="1.62" transform="matrix(-0.99, 0.13, -0.13, -0.99, 317.46, 471.84)" style="fill:#c7c7c7"></rect><rect x="105.88" y="253.75" width="77.73" height="1.62" transform="translate(320.72 488.64) rotate(172.69)" style="fill:#c7c7c7"></rect><rect x="103.34" y="231.01" width="167.99" height="1.62" transform="translate(402.64 437.91) rotate(172.69)" style="fill:#c7c7c7"></rect><rect x="101.15" y="214" width="167.99" height="1.62" transform="translate(396.13 404.32) rotate(172.69)" style="fill:#c7c7c7"></rect><rect x="100.06" y="205.5" width="167.99" height="1.62" transform="translate(392.88 387.52) rotate(172.69)" style="fill:#c7c7c7"></rect><rect x="97.88" y="188.49" width="167.99" height="1.62" transform="translate(386.37 353.93) rotate(172.69)" style="fill:#c7c7c7"></rect><rect x="96.79" y="179.99" width="167.99" height="1.62" transform="translate(383.11 337.13) rotate(172.69)" style="fill:#c7c7c7"></rect><rect x="106.98" y="262.26" width="77.73" height="1.62" transform="translate(323.97 505.44) rotate(172.69)" style="fill:#c7c7c7"></rect><rect x="108.07" y="270.76" width="77.73" height="1.62" transform="translate(327.22 522.23) rotate(172.69)" style="fill:#c7c7c7"></rect><rect x="109.16" y="279.26" width="77.73" height="1.62" transform="translate(330.48 539.03) rotate(172.69)" style="fill:#c7c7c7"></rect><rect x="110.25" y="287.76" width="77.73" height="1.62" transform="translate(333.73 555.83) rotate(172.69)" style="fill:#c7c7c7"></rect><rect x="111.34" y="296.26" width="77.73" height="1.62" transform="translate(336.99 572.63) rotate(172.69)" style="fill:#c7c7c7"></rect><rect x="112.43" y="304.77" width="77.73" height="1.62" transform="translate(340.24 589.42) rotate(172.69)" style="fill:#c7c7c7"></rect><rect x="113.52" y="313.27" width="77.73" height="1.62" transform="translate(343.5 606.22) rotate(172.69)" style="fill:#c7c7c7"></rect><rect x="114.61" y="321.77" width="77.73" height="1.62" transform="translate(346.75 623.02) rotate(172.69)" style="fill:#c7c7c7"></rect><rect x="116.79" y="338.78" width="77.73" height="1.62" transform="translate(353.26 656.61) rotate(172.69)" style="fill:#c7c7c7"></rect><rect x="117.88" y="347.28" width="77.73" height="1.62" transform="translate(356.51 673.41) rotate(172.69)" style="fill:#c7c7c7"></rect><rect x="194.32" y="233.77" width="77.73" height="1.62" transform="translate(494.33 437.57) rotate(172.69)" style="fill:#c7c7c7"></rect><rect x="195.41" y="242.27" width="77.73" height="1.62" transform="translate(497.58 454.37) rotate(172.69)" style="fill:#c7c7c7"></rect><rect x="196.5" y="250.77" width="77.73" height="1.62" transform="translate(500.84 471.17) rotate(172.69)" style="fill:#c7c7c7"></rect><rect x="197.59" y="259.27" width="77.73" height="1.62" transform="translate(504.09 487.97) rotate(172.69)" style="fill:#c7c7c7"></rect><rect x="198.68" y="267.77" width="77.73" height="1.62" transform="translate(507.35 504.76) rotate(172.69)" style="fill:#c7c7c7"></rect><rect x="200.87" y="284.78" width="77.73" height="1.62" transform="translate(513.85 538.36) rotate(172.69)" style="fill:#c7c7c7"></rect><rect x="201.96" y="293.28" width="77.73" height="1.62" transform="translate(517.11 555.15) rotate(172.69)" style="fill:#c7c7c7"></rect><rect x="203.05" y="301.78" width="77.73" height="1.62" transform="translate(520.36 571.95) rotate(172.69)" style="fill:#c7c7c7"></rect><rect x="204.14" y="310.29" width="77.73" height="1.62" transform="translate(523.62 588.75) rotate(172.69)" style="fill:#c7c7c7"></rect><rect x="205.23" y="318.79" width="77.73" height="1.62" transform="translate(526.87 605.54) rotate(172.69)" style="fill:#c7c7c7"></rect><rect x="206.32" y="327.29" width="77.73" height="1.62" transform="translate(530.13 622.34) rotate(172.69)" style="fill:#c7c7c7"></rect><rect x="207.41" y="335.79" width="77.73" height="1.62" transform="translate(533.38 639.14) rotate(172.69)" style="fill:#c7c7c7"></rect><path d="M91.38,144a5,5,0,1,1-5.59-4.32A5,5,0,0,1,91.38,144Z" style="opacity:0.1"></path><path d="M89.42,144.21A3,3,0,1,1,86,141.6,3,3,0,0,1,89.42,144.21Z" style="fill:#263238"></path><path d="M117.24,140.64a5,5,0,1,1-5.59-4.32A5,5,0,0,1,117.24,140.64Z" style="opacity:0.1"></path><path d="M115.28,140.89a3,3,0,1,1-3.38-2.61A3,3,0,0,1,115.28,140.89Z" style="fill:#263238"></path><path d="M143.1,137.33a5,5,0,1,1-5.59-4.32A5,5,0,0,1,143.1,137.33Z" style="opacity:0.1"></path><path d="M141.15,137.58a3,3,0,1,1-3.39-2.62A3,3,0,0,1,141.15,137.58Z" style="fill:#263238"></path><path d="M169,134a5,5,0,1,1-5.59-4.32A5,5,0,0,1,169,134Z" style="opacity:0.1"></path><path d="M167.09,134.25a3,3,0,1,1-3.39-2.62A3,3,0,0,1,167.09,134.25Z" style="fill:#263238"></path><path d="M195,130.67a5,5,0,1,1-5.59-4.32A5,5,0,0,1,195,130.67Z" style="opacity:0.1"></path><path d="M193,130.92a3,3,0,1,1-3.39-2.61A3,3,0,0,1,193,130.92Z" style="fill:#263238"></path><path d="M220.8,127.36a5,5,0,1,1-5.59-4.32A5,5,0,0,1,220.8,127.36Z" style="opacity:0.1"></path><path d="M218.85,127.61a3,3,0,1,1-3.39-2.62A3,3,0,0,1,218.85,127.61Z" style="fill:#263238"></path><path d="M246.69,124a5,5,0,1,1-5.59-4.32A5,5,0,0,1,246.69,124Z" style="opacity:0.1"></path><path d="M244.73,124.29a3,3,0,1,1-3.38-2.62A3,3,0,0,1,244.73,124.29Z" style="fill:#263238"></path><path d="M272.66,120.71a5,5,0,1,1-5.59-4.32A5,5,0,0,1,272.66,120.71Z" style="opacity:0.1"></path><path d="M270.7,121a3,3,0,1,1-3.38-2.62A3,3,0,0,1,270.7,121Z" style="fill:#263238"></path><path d="M87.51,133.81c.32,2.47,1.08,10.56,1.08,10.56.36,2.8-4,3.35-4.33.56s-1-7.75-1.58-12.29c-.8-6.2-3.78-8.09-6.47-7.74-3.35.43-4.82,4.72-4.28,9l-4.35.56c-1.24-9.65,2.89-14,7.64-14.57C82.44,118.93,86.17,123.35,87.51,133.81Z" style="fill:#a6a6a6"></path><path d="M113.4,130.49c.32,2.47,1.08,10.56,1.08,10.56.36,2.8-4,3.35-4.33.56s-1-7.75-1.58-12.3c-.8-6.19-3.78-8.08-6.47-7.73-3.35.43-4.82,4.72-4.28,9l-4.35.56c-1.24-9.65,2.9-14,7.64-14.58C108.33,115.61,112.06,120,113.4,130.49Z" style="fill:#a6a6a6"></path><path d="M139.29,127.16c.32,2.48,1.08,10.57,1.08,10.57.36,2.8-4,3.34-4.33.56s-1-7.75-1.58-12.3c-.79-6.19-3.78-8.08-6.47-7.73-3.35.43-4.82,4.72-4.28,9l-4.35.56c-1.24-9.65,2.9-14,7.64-14.58C134.23,112.29,138,116.7,139.29,127.16Z" style="fill:#a6a6a6"></path><path d="M165.18,123.84c.32,2.48,1.08,10.57,1.08,10.57.36,2.8-4,3.34-4.33.55s-1-7.74-1.58-12.29c-.79-6.19-3.78-8.08-6.47-7.74-3.35.43-4.82,4.72-4.27,9l-4.36.56c-1.24-9.66,2.9-14,7.64-14.58C160.12,109,163.84,113.38,165.18,123.84Z" style="fill:#a6a6a6"></path><path d="M191.08,120.52c.31,2.48,1.07,10.57,1.07,10.57.36,2.8-4,3.34-4.33.55s-1-7.74-1.58-12.29c-.79-6.19-3.78-8.08-6.47-7.74-3.35.43-4.82,4.72-4.27,9l-4.36.55c-1.24-9.65,2.9-14,7.64-14.57C186,105.64,189.73,110.06,191.08,120.52Z" style="fill:#a6a6a6"></path><path d="M217,117.2c.31,2.48,1.07,10.57,1.07,10.57.36,2.79-4,3.34-4.33.55s-1-7.75-1.58-12.29c-.79-6.19-3.78-8.08-6.46-7.74-3.36.43-4.83,4.72-4.28,9l-4.36.56c-1.24-9.65,2.9-14,7.64-14.57C211.9,102.32,215.62,106.74,217,117.2Z" style="fill:#a6a6a6"></path><path d="M242.86,113.88c.31,2.47,1.07,10.56,1.07,10.56.36,2.8-4,3.35-4.33.56s-1-7.75-1.58-12.29c-.79-6.2-3.78-8.08-6.46-7.74-3.35.43-4.83,4.72-4.28,9l-4.36.56c-1.24-9.65,2.9-14,7.64-14.57C237.79,99,241.52,103.42,242.86,113.88Z" style="fill:#a6a6a6"></path><path d="M268.75,110.56c.32,2.47,1.07,10.56,1.07,10.56.36,2.8-4,3.35-4.33.56s-1-7.75-1.58-12.29c-.79-6.2-3.78-8.09-6.46-7.74-3.35.43-4.83,4.72-4.28,9l-4.36.56c-1.24-9.65,2.9-14,7.64-14.57C263.68,95.68,267.41,100.1,268.75,110.56Z" style="fill:#a6a6a6"></path></g><g id="freepik--Books--inject-418"><rect x="73.96" y="412.63" width="177.79" height="18.82" style="fill:#F43F5E"></rect><rect x="73.96" y="412.63" width="177.79" height="18.82" style="fill:#fff;opacity:0.6000000000000001"></rect><rect x="218.22" y="412.63" width="17.37" height="18.82" transform="translate(453.81 844.08) rotate(180)" style="fill:#F43F5E"></rect><rect x="204.53" y="412.63" width="7.25" height="18.82" transform="translate(416.3 844.08) rotate(180)" style="fill:#F43F5E"></rect><rect x="89.78" y="412.63" width="17.37" height="18.82" transform="translate(196.94 844.08) rotate(180)" style="fill:#F43F5E"></rect><rect x="77.07" y="458.84" width="182.86" height="13.35" style="fill:#455a64"></rect><rect x="117.84" y="458.84" width="7.46" height="13.35" style="fill:#F43F5E"></rect><rect x="105.46" y="458.84" width="7.46" height="13.35" style="fill:#F43F5E"></rect><rect x="234.24" y="458.84" width="7.46" height="13.35" style="fill:#F43F5E"></rect><rect x="221.86" y="458.84" width="7.46" height="13.35" style="fill:#F43F5E"></rect><rect x="81.75" y="392.71" width="110.68" height="19.93" style="fill:#455a64"></rect><rect x="192.3" y="392.71" width="65.87" height="19.93" style="fill:#37474f"></rect><rect x="81.75" y="394.78" width="108.23" height="15.79" style="fill:#fff"></rect><path d="M88.75,407.32q12.66.17,25.31.24l25.31.07,25.3-.07q12.66-.06,25.31-.24-12.66-.17-25.31-.23l-25.3-.07-25.31.07Q101.4,407.15,88.75,407.32Z" style="fill:#dbdbdb"></path><path d="M88.75,404.23q12.66.16,25.31.23l25.31.07,25.3-.07q12.66-.06,25.31-.23-12.66-.18-25.31-.24l-25.3-.07-25.31.07Q101.4,404,88.75,404.23Z" style="fill:#dbdbdb"></path><path d="M88.75,401.13q12.66.17,25.31.23l25.31.07,25.3-.07q12.66-.06,25.31-.23-12.66-.18-25.31-.24l-25.3-.07-25.31.07Q101.4,401,88.75,401.13Z" style="fill:#dbdbdb"></path><path d="M88.75,398q12.66.17,25.31.23l25.31.07,25.3-.07q12.66-.06,25.31-.23-12.66-.16-25.31-.24l-25.3-.07-25.31.08Q101.4,397.86,88.75,398Z" style="fill:#dbdbdb"></path><polygon points="181.24 428.02 173.7 420.06 166.16 428.02 166.16 407.39 167.77 404.23 182.85 404.23 181.24 407.39 181.24 428.02" style="fill:#F43F5E"></polygon><rect x="178.37" y="431.45" width="106.56" height="27.39" transform="translate(463.3 890.29) rotate(180)" style="fill:#37474f"></rect><rect x="60.35" y="431.45" width="118.02" height="27.39" transform="translate(238.71 890.29) rotate(180)" style="fill:#263238"></rect><rect x="181.61" y="434.29" width="103.32" height="21.7" transform="translate(466.54 890.29) rotate(180)" style="fill:#fff"></rect><path d="M278.24,438.76q-12.08-.17-24.16-.23l-24.15-.07-24.16.07q-12.08.06-24.16.23,12.07.17,24.16.23l24.16.07,24.15-.07Q266.17,438.93,278.24,438.76Z" style="fill:#dbdbdb"></path><path d="M278.24,443q-12.08-.16-24.16-.24l-24.15-.07-24.16.07q-12.08.06-24.16.24,12.07.17,24.16.23l24.16.07,24.15-.07Q266.17,443.19,278.24,443Z" style="fill:#dbdbdb"></path><path d="M278.24,447.28q-12.08-.18-24.16-.24L229.93,447l-24.16.07q-12.08.06-24.16.24,12.07.17,24.16.23l24.16.07,24.15-.07Q266.17,447.45,278.24,447.28Z" style="fill:#dbdbdb"></path><path d="M278.24,451.53q-12.08-.16-24.16-.23l-24.15-.07-24.16.07q-12.08.06-24.16.23,12.07.18,24.16.24l24.16.07,24.15-.07Q266.17,451.71,278.24,451.53Z" style="fill:#dbdbdb"></path><rect x="124.08" y="371.91" width="100.94" height="20.8" transform="translate(349.1 764.62) rotate(180)" style="fill:#F43F5E"></rect><rect x="66.54" y="371.91" width="57.54" height="20.8" transform="translate(190.62 764.62) rotate(180)" style="fill:#F43F5E"></rect><rect x="66.54" y="371.91" width="54.97" height="20.8" transform="translate(188.05 764.62) rotate(180)" style="opacity:0.2"></rect><rect x="124.08" y="374.07" width="100.94" height="16.49" transform="translate(349.1 764.62) rotate(180)" style="fill:#fff"></rect><path d="M218.48,377.46q-11.79-.18-23.6-.24l-23.6-.08-23.6.08q-11.79.06-23.6.24,11.8.18,23.6.24l23.6.08,23.6-.08Q206.69,377.64,218.48,377.46Z" style="fill:#dbdbdb"></path><path d="M218.48,380.69q-11.79-.17-23.6-.24l-23.6-.07-23.6.07q-11.79.06-23.6.24,11.8.18,23.6.25l23.6.07,23.6-.07Q206.69,380.87,218.48,380.69Z" style="fill:#dbdbdb"></path><path d="M218.48,383.93q-11.79-.18-23.6-.25l-23.6-.07-23.6.07q-11.79.07-23.6.25,11.8.18,23.6.24l23.6.08,23.6-.08Q206.69,384.11,218.48,383.93Z" style="fill:#dbdbdb"></path><path d="M218.48,387.16q-11.79-.17-23.6-.24l-23.6-.07-23.6.07q-11.79.06-23.6.24,11.8.18,23.6.25l23.6.07,23.6-.07Q206.69,387.34,218.48,387.16Z" style="fill:#dbdbdb"></path><polygon points="141.97 399.58 146.85 394.43 151.73 399.58 151.73 386.24 150.69 384.19 140.93 384.19 141.97 386.24 141.97 399.58" style="fill:#455a64"></polygon></g><g id="freepik--Document--inject-418"><path d="M362,97.64v248H226.72v.46a35,35,0,0,1-34.18,35h-1.21a29.87,29.87,0,0,1-3.56-.19l-6.52-1.34a35,35,0,0,1-4.72-1.9,21.21,21.21,0,0,1-2.22-1.15,7.55,7.55,0,0,1-1.11-.7,24,24,0,0,1-2.91-2,3.92,3.92,0,0,1-.46-.37,16.49,16.49,0,0,1-2-1.67c-.32-.28-.64-.6-1-.92a33.9,33.9,0,0,1-8.65-14.3,1.39,1.39,0,0,0-.14-.32c-.23-.83-.46-1.71-.64-2.59a20,20,0,0,1-.56-3.38c-.09-.51-.09-1-.14-1.52a2.24,2.24,0,0,1,0-.51c0-.65-.14-1.25-.14-1.9V98c0-9.81-6.85-35.07-37.15-35.07H327.26A34.71,34.71,0,0,1,362,97.64Z" style="fill:#fff"></path><path d="M362,97.64c.07.15.18,248.07.23,248.23s-135.41.06-135.46.13l.36-.36a38.56,38.56,0,0,1-1.62,11.09,35.67,35.67,0,0,1-22.89,23.1,37.26,37.26,0,0,1-14.88,1.51L181.17,380a32.11,32.11,0,0,1-5.36-2.2,35,35,0,0,1-19.54-29.6c-.23-2.36-.12-6.59-.14-9,0-6,0-22.62,0-28.86.05-63.21.14-148.35.19-211.63,0-12.65-6.92-25.54-18.35-31.39a40.64,40.64,0,0,0-18.49-4.1V62.7c50.43.12,159.75,0,209,.25,18.43.45,33.61,16.25,33.49,34.69Zm0,0c.08-18.37-15.06-34.2-33.5-34.59-48.76-.13-159,.16-209,.14V62.7a41.06,41.06,0,0,1,18.74,4.12c11.62,5.92,18.63,19,18.71,31.86.07,63.31.14,148.39.19,211.63,0,6.25,0,22.8,0,28.86.06,2.36-.14,6.65.13,9a35.6,35.6,0,0,0,.63,5A34.49,34.49,0,0,0,176.19,377a32,32,0,0,0,5.15,2.15l6.52,1.35a34.7,34.7,0,0,0,38.5-34.89v-.36h.36l135.23.13c-.34,1.5,0-248.12,0-247.77Z" style="fill:#263238"></path><rect x="266.5" y="81.91" width="72.59" height="1.99" transform="translate(605.6 165.81) rotate(180)" style="fill:#dbdbdb"></rect><rect x="182.21" y="134.51" width="72.59" height="1.99" transform="translate(437.01 271.01) rotate(180)" style="fill:#dbdbdb"></rect><rect x="182.21" y="145.03" width="72.59" height="1.99" transform="translate(437.01 292.06) rotate(180)" style="fill:#dbdbdb"></rect><rect x="182.21" y="155.55" width="72.59" height="1.99" transform="translate(437.01 313.1) rotate(180)" style="fill:#dbdbdb"></rect><rect x="182.21" y="166.07" width="72.59" height="1.99" transform="translate(437.01 334.14) rotate(180)" style="fill:#dbdbdb"></rect><rect x="182.21" y="176.59" width="72.59" height="1.99" transform="translate(437.01 355.18) rotate(180)" style="fill:#dbdbdb"></rect><rect x="182.21" y="187.11" width="72.59" height="1.99" transform="translate(437.01 376.22) rotate(180)" style="fill:#dbdbdb"></rect><rect x="182.21" y="197.64" width="72.59" height="1.99" transform="translate(437.01 397.26) rotate(180)" style="fill:#dbdbdb"></rect><rect x="182.21" y="208.16" width="72.59" height="1.99" transform="translate(437.01 418.3) rotate(180)" style="fill:#dbdbdb"></rect><rect x="182.21" y="218.68" width="72.59" height="1.99" transform="translate(437.01 439.34) rotate(180)" style="fill:#dbdbdb"></rect><rect x="182.21" y="229.2" width="72.59" height="1.99" transform="translate(437.01 460.39) rotate(180)" style="fill:#dbdbdb"></rect><rect x="182.21" y="250.24" width="72.59" height="1.99" transform="translate(437.01 502.47) rotate(180)" style="fill:#dbdbdb"></rect><rect x="182.21" y="260.76" width="72.59" height="1.99" transform="translate(437.01 523.51) rotate(180)" style="fill:#dbdbdb"></rect><rect x="182.21" y="271.28" width="72.59" height="1.99" transform="translate(437.01 544.55) rotate(180)" style="fill:#dbdbdb"></rect><rect x="182.21" y="281.8" width="72.59" height="1.99" transform="translate(437.01 565.59) rotate(180)" style="fill:#dbdbdb"></rect><rect x="182.21" y="302.84" width="72.59" height="1.99" transform="translate(437.01 607.67) rotate(180)" style="fill:#dbdbdb"></rect><rect x="182.21" y="313.36" width="72.59" height="1.99" transform="translate(437.01 628.71) rotate(180)" style="fill:#dbdbdb"></rect><rect x="182.21" y="323.88" width="72.59" height="1.99" transform="translate(437.01 649.76) rotate(180)" style="fill:#dbdbdb"></rect><rect x="266.5" y="92.43" width="72.59" height="1.99" transform="translate(605.6 186.85) rotate(180)" style="fill:#dbdbdb"></rect><rect x="266.5" y="102.95" width="72.59" height="1.99" transform="translate(605.6 207.89) rotate(180)" style="fill:#dbdbdb"></rect><rect x="266.5" y="113.47" width="72.59" height="1.99" transform="translate(605.6 228.93) rotate(180)" style="fill:#dbdbdb"></rect><rect x="266.5" y="123.99" width="72.59" height="1.99" transform="translate(605.6 249.97) rotate(180)" style="fill:#dbdbdb"></rect><rect x="266.5" y="134.51" width="72.59" height="1.99" transform="translate(605.6 271.01) rotate(180)" style="fill:#dbdbdb"></rect><rect x="266.5" y="145.03" width="72.59" height="1.99" transform="translate(605.6 292.06) rotate(180)" style="fill:#dbdbdb"></rect><rect x="266.5" y="155.55" width="72.59" height="1.99" transform="translate(605.6 313.1) rotate(180)" style="fill:#dbdbdb"></rect><rect x="266.5" y="166.07" width="72.59" height="1.99" transform="translate(605.6 334.14) rotate(180)" style="fill:#dbdbdb"></rect><rect x="266.5" y="176.59" width="72.59" height="1.99" transform="translate(605.6 355.18) rotate(180)" style="fill:#dbdbdb"></rect><rect x="266.5" y="197.64" width="72.59" height="1.99" transform="translate(605.6 397.26) rotate(180)" style="fill:#dbdbdb"></rect><rect x="266.5" y="208.16" width="72.59" height="1.99" transform="translate(605.6 418.3) rotate(180)" style="fill:#dbdbdb"></rect><rect x="266.5" y="218.68" width="72.59" height="1.99" transform="translate(605.6 439.34) rotate(180)" style="fill:#dbdbdb"></rect><rect x="266.5" y="229.2" width="72.59" height="1.99" transform="translate(605.6 460.39) rotate(180)" style="fill:#dbdbdb"></rect><rect x="266.5" y="239.72" width="72.59" height="1.99" transform="translate(605.6 481.43) rotate(180)" style="fill:#dbdbdb"></rect><rect x="266.5" y="250.24" width="72.59" height="1.99" transform="translate(605.6 502.47) rotate(180)" style="fill:#dbdbdb"></rect><rect x="266.5" y="260.76" width="72.59" height="1.99" transform="translate(605.6 523.51) rotate(180)" style="fill:#dbdbdb"></rect><rect x="266.5" y="271.28" width="72.59" height="1.99" transform="translate(605.6 544.55) rotate(180)" style="fill:#dbdbdb"></rect><path d="M182.21,83.81l36.3-.09c12.1,0,24.19,0,36.29.09-12.1.08-24.19.06-36.29.09Z" style="fill:#dbdbdb"></path><path d="M182.21,86.52l36.3-.09c12.1,0,24.19,0,36.29.09-12.1.08-24.19.06-36.29.09Z" style="fill:#dbdbdb"></path><path d="M182.21,89.23l36.3-.08c12.1,0,24.19,0,36.29.08-12.1.08-24.19.06-36.29.09Z" style="fill:#dbdbdb"></path><path d="M182.21,91.94l36.3-.08c12.1,0,24.19,0,36.29.08-12.1.08-24.19.06-36.29.09Z" style="fill:#dbdbdb"></path><path d="M182.21,94.66l36.3-.09c12.1,0,24.19,0,36.29.09-12.1.07-24.19,0-36.29.08Z" style="fill:#dbdbdb"></path><path d="M182.21,97.37l36.3-.09c12.1,0,24.19,0,36.29.09-12.1.07-24.19,0-36.29.09Z" style="fill:#dbdbdb"></path><path d="M182.21,100.08l36.3-.09c12.1,0,24.19,0,36.29.09-12.1.07-24.19.06-36.29.09Z" style="fill:#dbdbdb"></path><path d="M182.21,102.79l36.3-.09c12.1,0,24.19,0,36.29.09-12.1.08-24.19.06-36.29.09Z" style="fill:#dbdbdb"></path><path d="M182.21,105.5l36.3-.09c12.1,0,24.19,0,36.29.09-12.1.08-24.19.06-36.29.09Z" style="fill:#dbdbdb"></path><path d="M182.21,108.21l36.3-.09c12.1,0,24.19,0,36.29.09-12.1.08-24.19.06-36.29.09Z" style="fill:#dbdbdb"></path><path d="M182.21,110.92l36.3-.09c12.1,0,24.19,0,36.29.09-12.1.08-24.19.06-36.29.09Z" style="fill:#dbdbdb"></path><path d="M182.21,113.63l36.3-.08c12.1,0,24.19,0,36.29.08-12.1.08-24.19.06-36.29.09Z" style="fill:#dbdbdb"></path><path d="M182.21,116.35l36.3-.09c12.1,0,24.19,0,36.29.09-12.1.07-24.19.05-36.29.08Z" style="fill:#dbdbdb"></path><path d="M182.21,119.06l36.3-.09c12.1,0,24.19,0,36.29.09-12.1.07-24.19,0-36.29.08Z" style="fill:#dbdbdb"></path><path d="M182.21,121.77l36.3-.09c12.1,0,24.19,0,36.29.09-12.1.07-24.19,0-36.29.09Z" style="fill:#dbdbdb"></path><rect x="189.89" y="102.79" width="5.5" height="22.14" style="fill:#F43F5E"></rect><rect x="200.1" y="93.42" width="5.5" height="31.5" style="fill:#263238"></rect><rect x="210.31" y="100.17" width="5.5" height="24.76" style="fill:#dbdbdb"></rect><rect x="220.52" y="91.94" width="5.5" height="32.98" style="fill:#F43F5E"></rect><rect x="230.74" y="96.37" width="5.5" height="28.56" style="fill:#263238"></rect><rect x="240.95" y="112.55" width="5.5" height="12.38" style="fill:#dbdbdb"></rect><path d="M184.18,81.91l.15,10.75.11,10.76c.07,7.17.09,14.34.1,21.51l-.36-.33h17.66l17.65,0,17.66.1,17.65.2-17.65.19-17.66.11-17.65,0h-18v-.33c0-7.17,0-14.34.11-21.51l.1-10.76Z" style="fill:#dbdbdb"></path><rect x="189.89" y="127.2" width="5.5" height="0.46" style="fill:#dbdbdb"></rect><rect x="200.1" y="127.2" width="5.5" height="0.46" style="fill:#dbdbdb"></rect><rect x="210.31" y="127.2" width="5.5" height="0.46" style="fill:#dbdbdb"></rect><rect x="220.52" y="127.2" width="5.5" height="0.46" style="fill:#dbdbdb"></rect><rect x="230.74" y="127.2" width="5.5" height="0.46" style="fill:#dbdbdb"></rect><rect x="240.95" y="127.2" width="5.5" height="0.46" style="fill:#dbdbdb"></rect><path d="M303.78,298.25a17.54,17.54,0,0,1-10.68,16.14l-6.85-16.14Z" style="fill:#F43F5E"></path><path d="M284,297.05l6.85,16.13s0,0,0,0c-.54.22-1.08.42-1.61.59a17.76,17.76,0,0,1-10.41,0,17.58,17.58,0,0,1-11.52-11.54,17.51,17.51,0,0,1,0-10.4,17.51,17.51,0,0,1,11.52-11.52,17.54,17.54,0,0,1,10.41,0,17.53,17.53,0,0,1,11.53,11.52,17.83,17.83,0,0,1,.79,5.2Z" style="fill:#F43F5E"></path><path d="M284,297.05l6.85,16.13s0,0,0,0c-.54.22-1.08.42-1.61.59a17.53,17.53,0,1,1,12.32-16.74Z" style="fill:#dbdbdb"></path><path d="M284,297.05,272.6,310.33a17.51,17.51,0,1,1,28.93-13.28Z" style="fill:#455a64"></path><polygon points="312.84 320.26 299.61 320.26 283.22 303.88 283.46 303.64 299.75 319.93 312.84 319.93 312.84 320.26" style="fill:#263238"></polygon><rect x="282.42" y="302.83" width="1.84" height="1.84" style="fill:#263238"></rect><polygon points="312.84 307.58 297.93 307.58 290.85 300.51 291.09 300.27 298.07 307.25 312.84 307.25 312.84 307.58" style="fill:#263238"></polygon><rect x="290.05" y="299.47" width="1.84" height="1.84" style="fill:#263238"></rect><rect x="290.29" y="295.04" width="22.55" height="0.34" style="fill:#263238"></rect><rect x="289.12" y="294.29" width="1.84" height="1.84" style="fill:#263238"></rect><rect x="317.97" y="293.36" width="16.38" height="1.52" style="fill:#ebebeb"></rect><rect x="317.97" y="296.54" width="21.26" height="1.52" style="fill:#ebebeb"></rect><rect x="317.97" y="299.72" width="11.36" height="1.52" style="fill:#ebebeb"></rect><rect x="310.99" y="293.36" width="3.7" height="3.7" style="fill:#455a64"></rect><rect x="317.97" y="305.67" width="18.37" height="1.52" style="fill:#ebebeb"></rect><rect x="317.97" y="308.85" width="15.32" height="1.52" style="fill:#ebebeb"></rect><rect x="317.97" y="312.04" width="21.26" height="1.52" style="fill:#ebebeb"></rect><rect x="310.99" y="305.67" width="3.7" height="3.7" style="fill:#F43F5E"></rect><rect x="317.97" y="317.98" width="18.37" height="1.52" style="fill:#ebebeb"></rect><rect x="317.97" y="321.17" width="15.32" height="1.52" style="fill:#ebebeb"></rect><rect x="317.97" y="324.35" width="21.26" height="1.52" style="fill:#ebebeb"></rect><rect x="310.99" y="317.98" width="3.7" height="3.7" style="fill:#dbdbdb"></rect><path d="M122,62.94A35.05,35.05,0,0,1,157,98v15.1H86.94V98A35.05,35.05,0,0,1,122,62.94Z" style="fill:#dbdbdb"></path><path d="M413.06,345.64v.46a35,35,0,0,1-34.18,35H192.54a35,35,0,0,0,34.18-35v-.46Z" style="fill:#dbdbdb"></path></g><g id="freepik--Floor--inject-418"><path d="M54.55,472.2c125.22-.62,265.68-.62,390.9,0-125.22.61-265.68.61-390.9,0Z" style="fill:#263238"></path></g><g id="freepik--speech-bubble--inject-418"><path d="M445.45,85.27a20.63,20.63,0,0,1-32.92,16.57l-10.11,2.58L406.63,95a20.63,20.63,0,1,1,38.82-9.73Z" style="fill:#fff"></path><path d="M445.45,85.27c.19,11.89-10.6,21.83-22.43,20.79a20.82,20.82,0,0,1-10.7-3.94l.3.06-10.09,2.66-.88.23.37-.83,4.17-9.43,0,.42a21,21,0,0,1,5.09-26c13.55-11.18,34.15-1.5,34.15,16.06Zm0,0c.06-13.18-12.84-23.23-25.58-19.73-12.52,3.1-19,17.93-12.82,29.24l.12.21-.1.21-4.25,9.39-.51-.6,10.13-2.5.17,0,.13.1c13.4,10.15,32.63.49,32.71-16.28Z" style="fill:#263238"></path><polygon points="421.48 97.55 412.23 88.19 415.34 85.12 420.74 90.59 431.96 72.99 435.64 75.34 421.48 97.55" style="fill:#F43F5E"></polygon></g></svg>