<svg xmlns="http://www.w3.org/2000/svg" viewBox="0 0 500 500"><g id="freepik--Window--inject-684"><path d="M387.88,94.31V302.77A11.22,11.22,0,0,1,376.65,314h-278A11.21,11.21,0,0,1,87.4,302.77V94.31A11.22,11.22,0,0,1,98.62,83.08h278A11.22,11.22,0,0,1,387.88,94.31Z" style="fill:#fff"></path><path d="M387.88,100.75v202A11.22,11.22,0,0,1,376.65,314h-278a11.1,11.1,0,0,1-3.12-.44Z" style="fill:#263238"></path><path d="M387.88,100.75v202A11.22,11.22,0,0,1,376.65,314h-278a11.1,11.1,0,0,1-3.12-.44Z" style="fill:#fff;opacity:0.9"></path><path d="M310.81,213.6,326,206.76l-3.24-18.11L306,187.31a68.67,68.67,0,0,0-8.39-15.75l5.24-8.87,3.35-5.69-13-12.9-14.55,8.74a71.24,71.24,0,0,0-27.84-11.48l-4.19-16.68H228.26L224,141.48a77.09,77.09,0,0,0-16.48,5.3l-13.19-11.36-15.05,10.25,6.26,16.25a68.07,68.07,0,0,0-10.25,13.72l-17.32-1.75-6.23,17.29L166,200.91a70.22,70.22,0,0,0-1,12.29,36,36,0,0,0,0,5.09l-15.14,8.5,4.8,17.71h17.1a72.69,72.69,0,0,0,5.74,10.13q1.68,2.47,3.55,4.81l-7.38,15.25,14.13,11.85,13.63-10.21a71.77,71.77,0,0,0,16.48,6.95l2.73,16.48L239,301.39l5.5-15.54A77.67,77.67,0,0,0,262.1,282l11.65,11.64,15.95-9.2-4.39-15.88a71.86,71.86,0,0,0,12.28-13.26l16.16,2.9,7.78-16.66-12.7-10.24A73.29,73.29,0,0,0,310.81,213.6Zm-41.95,0a31.21,31.21,0,1,1-9.21-22.14c.56.56,1.11,1.14,1.61,1.75a31,31,0,0,1,7.6,20.19Z" style="fill:#F43F5E;stroke:#263238;stroke-miterlimit:10;stroke-width:1.0293396711349487px"></path><path d="M308.83,231.25l12.7,10.24-7.78,16.66-16.16-2.9a71.86,71.86,0,0,1-12.28,13.26l4.39,15.88-15.95,9.2L262.1,282a77.67,77.67,0,0,1-17.62,3.9L239,301.39l-18.35-1.63-2.73-16.48a71.77,71.77,0,0,1-16.48-6.95l-13.63,10.21-14.13-11.85L181,259.44q-1.87-2.34-3.55-4.81L211.07,230a31.23,31.23,0,0,0,57.79-16.41v-.2a31,31,0,0,0-7.6-20.19l41.63-30.52-5.24,8.87A68.67,68.67,0,0,1,306,187.31l16.68,1.34L326,206.76l-15.15,6.84A73.29,73.29,0,0,1,308.83,231.25Z" style="opacity:0.2"></path><path d="M373.92,165.46l.76-.35a2.06,2.06,0,0,0,1.2-2.26l-.16-.93a2.06,2.06,0,0,0-1.89-1.72l-.92-.07A2.07,2.07,0,0,1,371.2,159c-.25-.53-.51-1-.8-1.53a2.05,2.05,0,0,1,0-2.06l.47-.8a2.1,2.1,0,0,0-.33-2.54l-.66-.66a2,2,0,0,0-2.55-.31l-.81.48a2.05,2.05,0,0,1-2.06,0,16.61,16.61,0,0,0-4.19-1.7,2.06,2.06,0,0,1-1.48-1.51l-.24-1a2.05,2.05,0,0,0-2.06-1.59h-.92a2.05,2.05,0,0,0-2.06,1.58l-.26,1a2.08,2.08,0,0,1-1.45,1.49c-.52.14-1,.3-1.51.48a2.06,2.06,0,0,1-2.06-.38l-.83-.71a2.06,2.06,0,0,0-2.53-.14l-.73.49a2.07,2.07,0,0,0-.77,2.48l.37,1a2.08,2.08,0,0,1-.32,2.06c-.33.39-.64.8-.93,1.22a2,2,0,0,1-1.91.89l-1-.1a2.06,2.06,0,0,0-2.17,1.37l-.33.91a2.06,2.06,0,0,0,.75,2.41l.95.67a2.06,2.06,0,0,1,.86,1.88,14.64,14.64,0,0,0-.08,1.62h0a2.15,2.15,0,0,1-1,1.75l-1,.53a2.06,2.06,0,0,0-1,2.38l.24.9a2.06,2.06,0,0,0,2.06,1.54h1a2.06,2.06,0,0,1,1.8,1c.28.49.58,1,.89,1.43a2.06,2.06,0,0,1,.16,2.06l-.42.87a2.06,2.06,0,0,0,.54,2.51l.71.6a2.06,2.06,0,0,0,2.57.09l.73-.51a2.06,2.06,0,0,1,2.06-.2c.52.25,1.05.48,1.6.68a2.05,2.05,0,0,1,1.31,1.59l.15.89a2.05,2.05,0,0,0,1.9,1.72l.94.09a2.07,2.07,0,0,0,2.14-1.39l.29-.81a2.08,2.08,0,0,1,1.6-1.35,14.8,14.8,0,0,0,1.73-.37,2,2,0,0,1,2,.55l.61.62a2.06,2.06,0,0,0,2.52.34l.82-.47a2.06,2.06,0,0,0,1-2.37l-.23-.81a2.07,2.07,0,0,1,.52-2.06,16.87,16.87,0,0,0,1.22-1.32,2,2,0,0,1,2-.7l.82.15a2,2,0,0,0,2.27-1.17l.39-.85a2.05,2.05,0,0,0-.58-2.51l-.62-.5a2.06,2.06,0,0,1-.76-1.92,16.33,16.33,0,0,0,.19-1.85A2.06,2.06,0,0,1,373.92,165.46Zm-7.39.54a10.44,10.44,0,1,1-10.44-10.44h0a10.41,10.41,0,0,1,10.42,10.37Z" style="fill:#F43F5E;stroke:#263238;stroke-miterlimit:10;stroke-width:1.0293396711349487px"></path><path d="M387.88,94.31v.57H87.4v-.57A11.22,11.22,0,0,1,98.62,83.08h278A11.22,11.22,0,0,1,387.88,94.31Z" style="fill:#263238"></path><path d="M387.88,94.31V302.77A11.22,11.22,0,0,1,376.65,314h-278A11.22,11.22,0,0,1,87.4,302.77V94.31A11.22,11.22,0,0,1,98.62,83.08h278A11.22,11.22,0,0,1,387.88,94.31Z" style="fill:none;stroke:#263238;stroke-linecap:round;stroke-linejoin:round;stroke-width:1.0293396711349487px"></path><line x1="87.4" y1="94.31" x2="387.88" y2="94.31" style="fill:none;stroke:#263238;stroke-linecap:round;stroke-linejoin:round;stroke-width:1.0293396711349487px"></line><path d="M112.45,89a2.28,2.28,0,1,1-2.28-2.28A2.28,2.28,0,0,1,112.45,89Z" style="fill:#F43F5E"></path><path d="M123.24,89A2.28,2.28,0,1,1,121,86.7,2.28,2.28,0,0,1,123.24,89Z" style="fill:#F43F5E"></path><path d="M134,89a2.28,2.28,0,1,1-2.28-2.28A2.28,2.28,0,0,1,134,89Z" style="fill:#F43F5E"></path><path d="M285.63,213.6a47.73,47.73,0,1,1-47.73-47.73h0a47.73,47.73,0,0,1,47.73,47.43Z" style="fill:none;stroke:#263238;stroke-miterlimit:10;stroke-width:4.117358684539795px"></path></g><g id="freepik--Graphics--inject-684"><rect x="281.7" y="106" width="192.32" height="60.15" rx="11.22" style="fill:#fff;stroke:#263238;stroke-miterlimit:10;stroke-width:1.0293396711349487px"></rect><line x1="315.36" y1="135.81" x2="446.43" y2="135.81" style="fill:none;stroke:#263238;stroke-miterlimit:10;stroke-width:1.0293396711349487px"></line><polyline points="311.27 135.81 331.97 121.22 384.69 121.22 406.2 135.81" style="fill:none;stroke:#263238;stroke-miterlimit:10;stroke-width:1.0293396711349487px"></polyline><path d="M410.28,135.81a4.09,4.09,0,1,1-4.08-4.09A4.09,4.09,0,0,1,410.28,135.81Z" style="fill:#F43F5E;stroke:#263238;stroke-miterlimit:10;stroke-width:1.0293396711349487px"></path><circle cx="331.97" cy="121.22" r="4.09" style="fill:#F43F5E;stroke:#263238;stroke-miterlimit:10;stroke-width:1.0293396711349487px"></circle><path d="M388.77,121.22a4.09,4.09,0,1,1-4.08-4.08A4.09,4.09,0,0,1,388.77,121.22Z" style="fill:#F43F5E;stroke:#263238;stroke-miterlimit:10;stroke-width:1.0293396711349487px"></path><polyline points="311.27 135.81 331.97 150.4 429.13 150.4 446.43 135.81" style="fill:none;stroke:#263238;stroke-miterlimit:10;stroke-width:1.0293396711349487px"></polyline><path d="M367.71,150.4a4.09,4.09,0,1,1-4.09-4.09A4.09,4.09,0,0,1,367.71,150.4Z" style="fill:#F43F5E;stroke:#263238;stroke-miterlimit:10;stroke-width:1.0293396711349487px"></path><path d="M336.06,150.4a4.09,4.09,0,1,1-4.09-4.09A4.09,4.09,0,0,1,336.06,150.4Z" style="fill:#F43F5E;stroke:#263238;stroke-miterlimit:10;stroke-width:1.0293396711349487px"></path><path d="M433.22,150.4a4.09,4.09,0,1,1-4.09-4.09A4.09,4.09,0,0,1,433.22,150.4Z" style="fill:#F43F5E;stroke:#263238;stroke-miterlimit:10;stroke-width:1.0293396711349487px"></path><circle cx="446.43" cy="135.81" r="4.09" style="fill:#F43F5E;stroke:#263238;stroke-miterlimit:10;stroke-width:1.0293396711349487px"></circle><path d="M315.36,135.81a4.09,4.09,0,1,1-4.08-4.09A4.09,4.09,0,0,1,315.36,135.81Z" style="fill:#F43F5E;stroke:#263238;stroke-miterlimit:10;stroke-width:1.0293396711349487px"></path><rect x="82.98" y="232.7" width="120.31" height="120.31" rx="11.22" style="fill:#fff;stroke:#263238;stroke-miterlimit:10;stroke-width:1.0293396711349487px"></rect><polyline points="128.09 301.39 112.51 331.68 183.13 331.68" style="fill:none;stroke:#263238;stroke-linecap:round;stroke-linejoin:round;stroke-width:1.0293396711349487px"></polyline><polyline points="183.13 255.63 150.17 277.54 183.13 287.46" style="fill:none;stroke:#263238;stroke-linecap:round;stroke-linejoin:round;stroke-width:1.0293396711349487px"></polyline><rect x="175.34" y="247.84" width="15.58" height="15.58" style="fill:#F43F5E;stroke:#263238;stroke-miterlimit:10;stroke-width:1.0293396711349487px"></rect><rect x="175.34" y="279.67" width="15.58" height="15.58" style="fill:#F43F5E;stroke:#263238;stroke-miterlimit:10;stroke-width:1.0293396711349487px"></rect><rect x="142.38" y="269.75" width="15.58" height="15.58" style="fill:#F43F5E;stroke:#263238;stroke-miterlimit:10;stroke-width:1.0293396711349487px"></rect><rect x="120.3" y="293.6" width="15.58" height="15.58" style="fill:#F43F5E;stroke:#263238;stroke-miterlimit:10;stroke-width:1.0293396711349487px"></rect><rect x="104.72" y="323.88" width="15.58" height="15.58" style="fill:#F43F5E;stroke:#263238;stroke-miterlimit:10;stroke-width:1.0293396711349487px"></rect><rect x="175.34" y="323.88" width="15.58" height="15.58" style="fill:#F43F5E;stroke:#263238;stroke-miterlimit:10;stroke-width:1.0293396711349487px"></rect><rect x="25.93" y="185.55" width="120.31" height="120.31" rx="11.22" style="fill:#fff;stroke:#263238;stroke-miterlimit:10;stroke-width:1.0293396711349487px"></rect><rect x="38.66" y="197.19" width="80.03" height="6.2" style="fill:#F43F5E"></rect><rect x="38.66" y="207.4" width="46.24" height="6.2" style="fill:#F43F5E"></rect><rect x="38.66" y="217.61" width="26.93" height="6.2" style="fill:#F43F5E"></rect><rect x="38.66" y="227.81" width="44.32" height="6.2" style="fill:#F43F5E"></rect><rect x="38.66" y="238.02" width="69.09" height="6.2" style="fill:#F43F5E"></rect><rect x="38.66" y="248.22" width="46.24" height="6.2" style="fill:#F43F5E"></rect><rect x="38.66" y="258.43" width="32.26" height="6.2" style="fill:#F43F5E"></rect><rect x="38.66" y="268.64" width="52.23" height="6.2" style="fill:#F43F5E"></rect><rect x="38.66" y="278.84" width="63.32" height="6.2" style="fill:#F43F5E"></rect><rect x="38.66" y="289.05" width="80.03" height="6.2" style="fill:#F43F5E"></rect><rect x="38.66" y="197.19" width="80.03" height="6.2" style="opacity:0.30000000000000004"></rect><rect x="38.66" y="207.4" width="46.24" height="6.2" style="opacity:0.30000000000000004"></rect><rect x="38.66" y="217.61" width="26.93" height="6.2" style="opacity:0.30000000000000004"></rect><rect x="38.66" y="227.81" width="44.32" height="6.2" style="opacity:0.30000000000000004"></rect><rect x="38.66" y="238.02" width="69.09" height="6.2" style="opacity:0.30000000000000004"></rect><rect x="38.66" y="248.22" width="46.24" height="6.2" style="opacity:0.30000000000000004"></rect><rect x="38.66" y="258.43" width="32.26" height="6.2" style="opacity:0.30000000000000004"></rect><rect x="38.66" y="268.64" width="52.23" height="6.2" style="opacity:0.30000000000000004"></rect><rect x="38.66" y="278.84" width="63.32" height="6.2" style="opacity:0.30000000000000004"></rect><rect x="38.66" y="289.05" width="80.03" height="6.2" style="opacity:0.30000000000000004"></rect><path d="M90.19,175h29.12a5.3,5.3,0,0,1,5.3,5.3v5.27a0,0,0,0,1,0,0H84.89a0,0,0,0,1,0,0v-5.27A5.3,5.3,0,0,1,90.19,175Z" style="fill:#fff;stroke:#263238;stroke-miterlimit:10;stroke-width:1.0293396711349487px"></path><path d="M70.5,175H99.28a5.48,5.48,0,0,1,5.48,5.48v5.1a0,0,0,0,1,0,0H65a0,0,0,0,1,0,0v-5.1A5.48,5.48,0,0,1,70.5,175Z" style="fill:#F43F5E;stroke:#263238;stroke-miterlimit:10;stroke-width:1.0293396711349487px"></path><path d="M48.37,175H77.85A5.13,5.13,0,0,1,83,180.1v5.45a0,0,0,0,1,0,0H43.25a0,0,0,0,1,0,0V180.1A5.13,5.13,0,0,1,48.37,175Z" style="fill:#fff;stroke:#263238;stroke-miterlimit:10;stroke-width:1.0293396711349487px"></path></g><g id="freepik--Table--inject-684"><line x1="423.18" y1="395.54" x2="445.05" y2="395.54" style="fill:none;stroke:#263238;stroke-linecap:round;stroke-linejoin:round;stroke-width:1.0293396711349487px"></line><line x1="78.67" y1="395.54" x2="411.67" y2="395.54" style="fill:none;stroke:#263238;stroke-linecap:round;stroke-linejoin:round;stroke-width:1.0293396711349487px"></line><g id="freepik--Coffee--inject-189--inject-684"><path d="M417.18,382.73s3.87-3.17,5.72.29c1.59,3-2.22,6.35-6.57,6.35v2.53s9.32.25,10-7.6-9.19-5.68-9.19-5.68Z" style="fill:#F43F5E;stroke:#263238;stroke-linecap:round;stroke-linejoin:round;stroke-width:1.0293396711349487px"></path><polygon points="416.86 395.49 398.2 395.49 395.4 372.06 419.66 372.06 416.86 395.49" style="fill:#F43F5E;stroke:#263238;stroke-linecap:round;stroke-linejoin:round;stroke-width:1.0293396711349487px"></polygon><rect x="394.16" y="370.94" width="26.74" height="2.68" rx="1.28" style="fill:#fff;stroke:#263238;stroke-linecap:round;stroke-linejoin:round;stroke-width:1.0293396711349487px"></rect></g><path d="M404.36,368.39s8.58-5.15,5.78-11.06-12.27-9.8-12.27-19c0-7.92,8.42-10.85,13.92-14" style="fill:none;stroke:#263238;stroke-linecap:round;stroke-linejoin:round;stroke-width:1.0293396711349487px"></path><path d="M407.18,329.92a10.27,10.27,0,0,0-2.72,14.3" style="fill:none;stroke:#263238;stroke-linecap:round;stroke-linejoin:round;stroke-width:1.0293396711349487px"></path><path d="M411.85,353.27A15.51,15.51,0,0,1,413.19,364" style="fill:none;stroke:#263238;stroke-linecap:round;stroke-linejoin:round;stroke-width:1.0293396711349487px"></path><path d="M182,393.6s-.39-6.72-6.32-9.09-9.1-1.39-22.33,2.17a126.49,126.49,0,0,1-25.5,3.95v3Z" style="fill:#fff;stroke:#263238;stroke-linecap:round;stroke-linejoin:round;stroke-width:1.0293396711349487px"></path><path d="M181.81,393.6s.39-6.72,6.32-9.09,9.09-1.39,22.33,2.17A126.28,126.28,0,0,0,236,390.63v3Z" style="fill:#fff;stroke:#263238;stroke-linecap:round;stroke-linejoin:round;stroke-width:1.0293396711349487px"></path><rect x="126.49" y="392.41" width="111.66" height="2.17" style="fill:#263238;stroke:#263238;stroke-linecap:round;stroke-linejoin:round;stroke-width:1.0293396711349487px"></rect><path d="M184.69,393.48a11.89,11.89,0,0,1,6.57-7.14" style="fill:none;stroke:#263238;stroke-linecap:round;stroke-linejoin:round;stroke-width:1.0293396711349487px"></path><path d="M188.07,393a11,11,0,0,1,7.43-5.28c3.69-.68,7.45.59,10.93,2S216,393,219.72,393" style="fill:none;stroke:#263238;stroke-linecap:round;stroke-linejoin:round;stroke-width:1.0293396711349487px"></path><path d="M149.4,392.39a40.34,40.34,0,0,0,10.77-2.7,47.15,47.15,0,0,1,6.42-2.46,8.87,8.87,0,0,1,6.66.67,9.1,9.1,0,0,1,2.29,2.13,16,16,0,0,1,2.17,3.65" style="fill:none;stroke:#263238;stroke-linecap:round;stroke-linejoin:round;stroke-width:1.0293396711349487px"></path><path d="M169.82,389.37A5.29,5.29,0,0,1,173,391a16.1,16.1,0,0,1,2.11,2.94" style="fill:none;stroke:#263238;stroke-linecap:round;stroke-linejoin:round;stroke-width:1.0293396711349487px"></path></g></svg>