<svg xmlns="http://www.w3.org/2000/svg" viewBox="0 0 500 500"><g id="freepik--Floor--inject-441"><ellipse id="freepik--floor--inject-441" cx="250" cy="346.97" rx="238.01" ry="141.59" style="fill:#f5f5f5"></ellipse></g><g id="freepik--Shadows--inject-441"><path id="freepik--Shadow--inject-441" d="M378.46,339.15l78.46-45.26c3.1-1.78,3.1-4.68,0-6.47L343.7,221.92a12.39,12.39,0,0,0-11.22,0L254,267.18c-3.1,1.79-3.1,4.69,0,6.47l113.22,65.5A12.39,12.39,0,0,0,378.46,339.15Z" style="fill:#e0e0e0"></path><path id="freepik--shadow--inject-441" d="M178.79,449.6,61.22,381.82c-3.31-1.91-3.31-5,0-6.92l163.57-94.45a13.26,13.26,0,0,1,12,0l117.57,67.78c3.31,1.91,3.31,5,0,6.92L190.78,449.6A13.26,13.26,0,0,1,178.79,449.6Z" style="fill:#e0e0e0"></path><ellipse cx="90.42" cy="426.74" rx="33.18" ry="19.16" style="fill:#e0e0e0"></ellipse><path d="M242.54,438.81l.11-.13,5.92-6.5v0l0-.05a.57.57,0,0,1,.11-.11l.06-.07h0c.85-.81,2.19-.88,3.7,0a10.23,10.23,0,0,1,4.64,8c0,1.72-.7,2.84-1.79,3.19h0l-.07,0-.33.07-.08,0h0l-8.57,1.87a2.09,2.09,0,0,1-1.5-.32,5.87,5.87,0,0,1-2.65-4.59A2.22,2.22,0,0,1,242.54,438.81Z" style="fill:#e0e0e0"></path><path d="M381.1,378.94,256.33,451.05l-17.28,3.52a.53.53,0,0,1-.57-.77l5.41-9.93,124.78-72.12C372.08,369.78,383.77,377.4,381.1,378.94Z" style="fill:#e0e0e0"></path><path id="freepik--shadow--inject-441" d="M310.1,437.84c1.25,3.4,4.88,5.52,10.94,6.31l108.08-62.94,11.22-11.37a.87.87,0,0,0-.89-1.44l-20.66,6.84Z" style="fill:#e0e0e0"></path></g><g id="freepik--Books--inject-441"><g id="freepik--books--inject-441"><g id="freepik--Book--inject-441"><polygon points="440.75 290.74 371.16 330.04 264.29 268.71 333.87 229.41 440.75 290.74" style="fill:#F43F5E"></polygon><polygon points="440.75 290.74 371.16 330.04 264.29 268.71 333.87 229.41 440.75 290.74" style="opacity:0.6000000000000001"></polygon><path d="M370.4,327.17,437.65,289c-1.67-4.74-1.55-6.18.35-12.49l-66.84,37.82S369.94,314.2,370.4,327.17Z" style="fill:#f5f5f5"></path><path d="M374.42,309.11a13.47,13.47,0,0,0-6.14,10.58V328c0,3.89,2.75,5.47,6.14,3.53l66.32-37.68v-3.06l-65.48,37c-2,1.16-3.69.22-3.68-2.12l.05-7.36a8.12,8.12,0,0,1,3.7-6.35l65.4-37v-3.47Z" style="fill:#F43F5E"></path><path d="M374.42,309.11a13.47,13.47,0,0,0-6.14,10.58V328c0,3.89,2.75,5.47,6.14,3.53l66.32-37.68v-3.06l-65.48,37c-2,1.16-3.69.22-3.68-2.12l.05-7.36a8.12,8.12,0,0,1,3.7-6.35l65.4-37v-3.47Z" style="opacity:0.5"></path><path d="M440.74,271.44,333.87,210.11l-66.31,37.67a13.49,13.49,0,0,0-6.15,10.58v8.27c0,1.94.68,3.31,1.8,3.95L370.08,331.9c-1.12-.64-1.8-2-1.8-3.94v-8.28a13.5,13.5,0,0,1,6.14-10.58Z" style="fill:#F43F5E"></path><path d="M440.74,271.44,333.87,210.11l-66.31,37.67a13.49,13.49,0,0,0-6.15,10.58v8.27c0,1.94.68,3.31,1.8,3.95L370.08,331.9c-1.12-.64-1.8-2-1.8-3.94v-8.28a13.5,13.5,0,0,1,6.14-10.58Z" style="opacity:0.35000000000000003"></path><path d="M370.07,313.66a12.49,12.49,0,0,0-1.8,6V328c0,1.94.68,3.3,1.8,3.94L263.21,270.58c-1.12-.64-1.8-2-1.8-3.95v-8.27a12.49,12.49,0,0,1,1.8-6Z" style="fill:#F43F5E"></path><path d="M370.07,313.66a12.49,12.49,0,0,0-1.8,6V328c0,1.94.68,3.3,1.8,3.94L263.21,270.58c-1.12-.64-1.8-2-1.8-3.95v-8.27a12.49,12.49,0,0,1,1.8-6Z" style="opacity:0.45"></path><path d="M277.65,260.54c-2,8.65-2,12,0,18.37l5.08,2.94c-2-6.34-2-9.72,0-18.37Z" style="fill:#F43F5E"></path><path d="M347.74,300.82c-2,8.65-2,11.92,0,18.26l5.09,2.94c-2-6.35-2-9.62,0-18.26Z" style="fill:#F43F5E"></path></g><g id="freepik--book--inject-441"><polygon points="454.79 270.41 385.2 309.71 278.33 248.38 347.91 209.08 454.79 270.41" style="fill:#F43F5E"></polygon><polygon points="454.79 270.41 385.2 309.71 278.33 248.38 347.91 209.08 454.79 270.41" style="opacity:0.4"></polygon><path d="M384.44,306.83l67.25-38.2c-1.67-4.74-1.55-6.86.34-13.17L385.2,293.27S384,293.86,384.44,306.83Z" style="fill:#f5f5f5"></path><path d="M388.46,288.09a13.5,13.5,0,0,0-6.15,10.58v8.95c0,3.89,2.75,5.47,6.15,3.52l66.32-37.67v-3.06l-65.48,37c-2,1.17-3.69.22-3.69-2.11l.06-8a8.11,8.11,0,0,1,3.69-6.35l65.41-37v-3.47Z" style="fill:#F43F5E"></path><path d="M388.46,288.09a13.5,13.5,0,0,0-6.15,10.58v8.95c0,3.89,2.75,5.47,6.15,3.52l66.32-37.67v-3.06l-65.48,37c-2,1.17-3.69.22-3.69-2.11l.06-8a8.11,8.11,0,0,1,3.69-6.35l65.41-37v-3.47Z" style="opacity:0.25"></path><path d="M454.78,250.43,347.91,189.1l-66.32,37.67a13.47,13.47,0,0,0-6.14,10.58v9c0,1.94.68,3.3,1.8,3.94l106.87,61.33c-1.12-.64-1.8-2-1.8-3.95v-8.95a13.47,13.47,0,0,1,6.14-10.58Z" style="fill:#F43F5E"></path><path d="M384.11,292.65a12.43,12.43,0,0,0-1.8,6v8.95c0,1.94.68,3.31,1.8,3.95L277.25,250.24c-1.12-.64-1.8-2-1.8-3.94v-9a12.43,12.43,0,0,1,1.8-6Z" style="fill:#F43F5E"></path><path d="M384.11,292.65a12.43,12.43,0,0,0-1.8,6v8.95c0,1.94.68,3.31,1.8,3.95L277.25,250.24c-1.12-.64-1.8-2-1.8-3.94v-9a12.43,12.43,0,0,1,1.8-6Z" style="opacity:0.15"></path><path d="M291.68,239.52c-2,8.65-2,12.72,0,19.06l5.09,2.94c-2-6.35-2-10.41,0-19.06Z" style="fill:#F43F5E"></path><path d="M361.78,279.85c-2,8.65-2,12.57,0,18.91l5.09,2.94c-2-6.34-2-10.29,0-18.94Z" style="fill:#F43F5E"></path><g style="opacity:0.4"><path d="M291.68,239.52c-2,8.65-2,12.72,0,19.06l5.09,2.94c-2-6.35-2-10.41,0-19.06Z" style="fill:#fff"></path><path d="M361.78,279.85c-2,8.65-2,12.57,0,18.91l5.09,2.94c-2-6.34-2-10.29,0-18.94Z" style="fill:#fff"></path></g></g></g><g id="freepik--books--inject-441"><g id="freepik--book--inject-441"><polygon points="78.5 378.41 186.59 439.82 343.37 349.82 235.29 288.41 78.5 378.41" style="fill:#F43F5E"></polygon><polygon points="78.5 378.41 186.59 439.82 343.37 349.82 235.29 288.41 78.5 378.41" style="opacity:0.4"></polygon><path d="M187.4,436.75,81.81,376.51c1.79-5.07,1.65-7.34-.37-14.08l105.15,59.83S187.89,422.89,187.4,436.75Z" style="fill:#f5f5f5"></path><path d="M183.1,416.72a14.4,14.4,0,0,1,6.57,11.3v9.56c0,4.17-2.94,5.85-6.57,3.77L78.51,381.68v-3.27l103.7,58.91c2.17,1.25,3.93.24,3.93-2.26l-.06-8.59a8.65,8.65,0,0,0-3.94-6.78L78.51,360.75v-3.7Z" style="fill:#F43F5E"></path><path d="M183.1,416.72a14.4,14.4,0,0,1,6.57,11.3v9.56c0,4.17-2.94,5.85-6.57,3.77L78.51,381.68v-3.27l103.7,58.91c2.17,1.25,3.93.24,3.93-2.26l-.06-8.59a8.65,8.65,0,0,0-3.94-6.78L78.51,360.75v-3.7Z" style="opacity:0.30000000000000004"></path><path d="M78.51,357.05l156.78-90,104.59,59.67a14.4,14.4,0,0,1,6.57,11.3v9.56c0,2.08-.73,3.54-1.92,4.22l-156.79,90c1.19-.68,1.92-2.15,1.92-4.22V428a14.41,14.41,0,0,0-6.56-11.3Z" style="fill:#F43F5E"></path><path d="M78.51,357.05l156.78-90,104.59,59.67a14.4,14.4,0,0,1,6.57,11.3v9.56c0,2.08-.73,3.54-1.92,4.22l-156.79,90c1.19-.68,1.92-2.15,1.92-4.22V428a14.41,14.41,0,0,0-6.56-11.3Z" style="opacity:0.2"></path><path d="M187.75,421.59a13.27,13.27,0,0,1,1.92,6.43v9.57c0,2.07-.73,3.54-1.92,4.22l156.79-90c1.19-.68,1.92-2.14,1.92-4.22V338a13.37,13.37,0,0,0-1.92-6.43Z" style="fill:#F43F5E"></path><path d="M187.75,421.59a13.23,13.23,0,0,1,1.92,6.43v9.57c0,2.07-.73,3.53-1.92,4.22l156.78-90c1.2-.68,1.92-2.15,1.93-4.22V338a13.23,13.23,0,0,0-1.92-6.43Z" style="fill:#F43F5E"></path><path d="M329.1,340.36c2.13,9.24,2.1,13.58,0,20.36l-5.44,3.14c2.1-6.78,2.13-11.12,0-20.36Z" style="fill:#F43F5E"></path><path d="M211.61,407.89c2.13,9.24,2.1,13.45,0,20.23l-5.43,3.11c2.09-6.78,2.12-11,0-20.22Z" style="fill:#F43F5E"></path><g style="opacity:0.4"><path d="M329.1,340.36c2.13,9.24,2.1,13.58,0,20.36l-5.44,3.14c2.1-6.78,2.13-11.12,0-20.36Z" style="fill:#fff"></path><path d="M211.61,407.89c2.13,9.24,2.1,13.45,0,20.23l-5.43,3.11c2.09-6.78,2.12-11,0-20.22Z" style="fill:#fff"></path></g></g><g id="freepik--book--inject-441"><polygon points="64.65 357.64 172.74 419.05 329.52 329.05 221.44 267.64 64.65 357.64" style="fill:#F43F5E"></polygon><polygon points="64.65 357.64 172.74 419.05 329.52 329.05 221.44 267.64 64.65 357.64" style="fill:#fff;opacity:0.2"></polygon><path d="M173.55,416,68,355.74c1.79-5.07,1.65-6.61-.37-13.35l105.15,59.82S174,402.12,173.55,416Z" style="fill:#f5f5f5"></path><path d="M169.25,396.68a14.4,14.4,0,0,1,6.57,11.3v8.83c0,4.17-2.94,5.85-6.57,3.77L64.66,360.91v-3.27l103.7,58.91c2.17,1.25,3.93.24,3.93-2.26l-.06-7.86a8.67,8.67,0,0,0-3.94-6.79L64.66,340.71V337Z" style="fill:#F43F5E"></path><path d="M169.25,396.68a14.4,14.4,0,0,1,6.57,11.3v8.83c0,4.17-2.94,5.85-6.57,3.77L64.66,360.91v-3.27l103.7,58.91c2.17,1.25,3.93.24,3.93-2.26l-.06-7.86a8.67,8.67,0,0,0-3.94-6.79L64.66,340.71V337Z" style="fill:#fff;opacity:0.4"></path><path d="M64.65,337l156.79-90L326,306.68A14.42,14.42,0,0,1,332.6,318v8.83c0,2.08-.73,3.54-1.93,4.22L173.89,421c1.19-.69,1.92-2.15,1.92-4.22V408a14.43,14.43,0,0,0-6.56-11.31Z" style="fill:#F43F5E"></path><path d="M64.65,337l156.79-90L326,306.68A14.42,14.42,0,0,1,332.6,318v8.83c0,2.08-.73,3.54-1.93,4.22L173.89,421c1.19-.69,1.92-2.15,1.92-4.22V408a14.43,14.43,0,0,0-6.56-11.31Z" style="fill:#fff;opacity:0.85"></path><path d="M173.9,401.55a13.23,13.23,0,0,1,1.92,6.43v8.84c0,2.07-.73,3.53-1.92,4.22l156.78-90c1.2-.68,1.93-2.14,1.93-4.22V318a13.25,13.25,0,0,0-1.93-6.43Z" style="fill:#F43F5E"></path><path d="M173.9,401.55a13.23,13.23,0,0,1,1.92,6.43v8.84c0,2.07-.73,3.53-1.92,4.22l156.78-90c1.2-.68,1.93-2.14,1.93-4.22V318a13.25,13.25,0,0,0-1.93-6.43Z" style="fill:#fff;opacity:0.6000000000000001"></path><path d="M315.25,320.32c2.13,9.24,2.1,12.85,0,19.63l-5.44,3.14c2.1-6.78,2.13-10.39,0-19.64Z" style="fill:#fff"></path><path d="M197.76,387.82c2.13,9.24,2.1,12.74,0,19.52l-5.44,3.13c2.1-6.77,2.13-10.27,0-19.51Z" style="fill:#fff"></path></g></g></g><g id="freepik--graduation-cap--inject-441"><g id="freepik--graduation-cap--inject-441"><path d="M307.85,195.93v40.7c0,5.86,5.15,11.72,15.37,16.19,20.48,9,53.69,9,74.17,0,10.25-4.49,15.36-10.36,15.36-16.24V195.93h0c.12-6-5-11.9-15.35-16.44-20.48-9-53.69-9-74.17,0C312.85,184,307.74,190,307.86,195.93Z" style="fill:#37474f"></path><path d="M307.86,195.93c-.12-6,5-11.9,15.36-16.44,20.48-9,53.69-9,74.17,0,10.36,4.54,15.47,10.49,15.35,16.44h0v18.59c0-4.61-4.09-7.91-16.2-3.45-19.85,7.31-31,19.38-51.24,25.35-16.74,4.93-31.57,3-37.46-3.13V195.93Z" style="fill:#263238"></path><path d="M307.85,217.47v4.62c0,5.85,5.15,11.72,15.37,16.18,20.48,9,53.69,9,74.17,0,10.32-4.51,15.43-10.45,15.36-16.37v-4.47c0,5.87-5.11,11.74-15.36,16.24-20.48,9-53.69,9-74.17,0C313,229.19,307.88,223.34,307.85,217.47Z" style="fill:#F43F5E"></path><polygon points="442.71 182.95 360.3 144.02 277.88 182.95 277.88 189.44 360.3 224.05 442.71 189.44 442.71 182.95" style="fill:#37474f"></polygon><polygon points="360.3 224.05 360.3 217.56 442.71 182.95 442.71 189.44 360.3 224.05" style="fill:#F43F5E;opacity:0.2"></polygon><polygon points="360.3 217.56 441.53 184.88 442.71 189.44 442.71 182.95 360.3 217.56" style="fill:#F43F5E;opacity:0.2"></polygon><polygon points="360.3 144.02 277.88 182.95 360.3 217.56 442.71 182.95 360.3 144.02" style="fill:#455a64"></polygon><path d="M316.11,214.83c0-.54-.26-13.19,1-16.79s5.94-7.25,15.71-12.21a102.93,102.93,0,0,1,21.95-8.1l.4,1.8a100.69,100.69,0,0,0-21.52,7.94c-9.18,4.66-13.74,8.11-14.79,11.17-.94,2.73-.95,12.58-.87,16.15Z" style="fill:#F43F5E"></path><path d="M316.11,214.83c0-.54-.26-13.19,1-16.79s5.94-7.25,15.71-12.21a102.93,102.93,0,0,1,21.95-8.1l.4,1.8a100.69,100.69,0,0,0-21.52,7.94c-9.18,4.66-13.74,8.11-14.79,11.17-.94,2.73-.95,12.58-.87,16.15Z" style="fill:#fff;opacity:0.8"></path><path d="M326.82,253.52c0-9.47-1.57-26.43-6.54-31.36h-6.55c-5,4.93-6.53,21.89-6.53,31.36h0c0,1.45.95,2.9,2.87,4a15.32,15.32,0,0,0,13.87,0c1.92-1.11,2.88-2.56,2.88-4Z" style="fill:#F43F5E"></path><path d="M326.82,253.52c0-9.47-1.57-26.43-6.54-31.36h-6.55c-5,4.93-6.53,21.89-6.53,31.36h0c0,1.45.95,2.9,2.87,4a15.32,15.32,0,0,0,13.87,0c1.92-1.11,2.88-2.56,2.88-4Z" style="fill:#fff;opacity:0.5"></path><path d="M313.73,222.16a9.12,9.12,0,0,0-1.06,1.32c1.25,1.32,3.17,1.66,5.08,1.81s3.9,1.7,4.75,9.47,2.5,17.69-.58,20.7-9.95,3-13.56.74h0a7.57,7.57,0,0,0,1.71,1.33,15.32,15.32,0,0,0,13.87,0c1.92-1.11,2.88-2.56,2.88-4h0c0-9.47-1.57-26.43-6.54-31.36Z" style="fill:#F43F5E;opacity:0.6000000000000001"></path><path d="M321.92,218.71a4.92,4.92,0,1,1-4.91-4.92A4.91,4.91,0,0,1,321.92,218.71Z" style="fill:#F43F5E"></path><path d="M321.92,218.71a4.92,4.92,0,1,1-4.91-4.92A4.91,4.91,0,0,1,321.92,218.71Z" style="fill:#fff;opacity:0.5"></path><path d="M319.86,214.72a4.46,4.46,0,0,1-1.19,6.39,4.81,4.81,0,0,1-6.33-.94,4.9,4.9,0,1,0,7.52-5.45Z" style="fill:#F43F5E;opacity:0.4"></path><path d="M353.67,175.38a3.31,3.31,0,0,1,1.94-2.7,10.38,10.38,0,0,1,9.37,0,3.31,3.31,0,0,1,1.94,2.7v2.17a3.3,3.3,0,0,1-1.94,2.7,10.38,10.38,0,0,1-9.37,0,3.3,3.3,0,0,1-1.94-2.7Z" style="fill:#263238"></path><path d="M365,178.09c2.59-1.5,2.59-3.92,0-5.41a10.38,10.38,0,0,0-9.37,0c-2.58,1.49-2.58,3.91,0,5.41A10.38,10.38,0,0,0,365,178.09Z" style="fill:#37474f"></path></g></g><g id="freepik--Apple--inject-441"><g id="freepik--apple--inject-441"><path d="M97.94,373.09c5.86-.65,16.07-1.6,24.55,10.26,9.66,13.49,5.63,33-4,42.63-12.14,12-33.66,16.31-48.38,6.88C53.81,422.43,48.63,398.29,56.43,386s23.11-11.77,27.24-10.79C89.87,376.68,93.39,373.6,97.94,373.09Z" style="fill:#F43F5E"></path><path d="M77.55,428.51c16.41,5.66,36.47-.4,47.27-12a31.13,31.13,0,0,1-6.37,9.49c-12.14,12-33.66,16.31-48.38,6.88C57.74,425,51.8,409.17,53,396.64,53,400.09,59.49,422.3,77.55,428.51Z" style="opacity:0.1"></path><g style="opacity:0.1"><path d="M104.84,377.22c3.68-1,9.67,1.43,13.38,6,4.61,5.72,6.57,14.58,6.58,21.26,0,13.47-11.48,22.5-12.89,21.6s6.32-11-1-23.21C103.56,390.56,98.8,378.79,104.84,377.22Z" style="fill:#fff"></path></g><g style="opacity:0.1"><path d="M108.09,378.84c4,.64,9.47,6,11.35,10.09s1.82,7.14,1.32,7.75c-.9,1.08-9.92-5.16-13-8.12C103.37,384.35,101.59,377.81,108.09,378.84Z" style="fill:#fff"></path></g><path d="M93.83,385.32c1.75-2,3.53-3.11,5-.84s-3.34,7-9.63,6.29-9-4.29-9.25-6.29c0,0,3.44,3.83,7.55,3.63A10.25,10.25,0,0,0,93.83,385.32Z" style="opacity:0.2"></path><path d="M88.9,389.23a56.94,56.94,0,0,1-.09-16.85c1.41-8.15,5.29-14.34,6.49-15.16a16.34,16.34,0,0,1,6.4-2.1c3.08-.49,7.1,1,6.29,2.31s-5.09,3-9.61,8.95-8,16.59-7,22.43A2.39,2.39,0,0,1,88.9,389.23Z" style="fill:#37474f"></path><path d="M95.51,357.09l.27-.17,0,0a18,18,0,0,1,5.88-1.78c2.27-.36,5,.34,6,1.27.29.41-.29,1.12-3,2a17.41,17.41,0,0,1-8.22.62C95.27,358.75,94.62,357.77,95.51,357.09Z" style="fill:#455a64"></path><path d="M91.25,378.86c1.24-7.34,7.61-14.37,12.2-17.78h0a31.52,31.52,0,0,0-5.07,5.3c-4.53,5.94-8,16.59-7,22.43a2.39,2.39,0,0,1-2.46.42s-.36-2.1-.56-5.19C89,386.84,90.1,385.63,91.25,378.86Z" style="opacity:0.1"></path><path d="M88.3,376.91a14.69,14.69,0,0,1-14.31-3c-5.18-4.85-3.66-12.57-3.66-12.57a13.68,13.68,0,0,1,12.45,1.69C87.19,366.21,89,373.47,88.3,376.91Z" style="fill:#F43F5E"></path><path d="M88.3,376.91a14.69,14.69,0,0,1-14.31-3c-5.18-4.85-3.66-12.57-3.66-12.57a13.68,13.68,0,0,1,12.45,1.69C87.19,366.21,89,373.47,88.3,376.91Z" style="opacity:0.30000000000000004"></path><path d="M70.33,361.37a13.68,13.68,0,0,1,12.45,1.69c4.41,3.15,6.18,10.41,5.52,13.85C83,366.77,70.33,361.37,70.33,361.37Z" style="fill:#F43F5E"></path><path d="M70.33,361.37a13.68,13.68,0,0,1,12.45,1.69c4.41,3.15,6.18,10.41,5.52,13.85C83,366.77,70.33,361.37,70.33,361.37Z" style="opacity:0.2"></path></g></g><g id="freepik--Pen--inject-441"><g id="freepik--pen--inject-441"><g id="freepik--pen--inject-441"><path d="M369.1,364.59a10.25,10.25,0,0,0,4.64,8,3.69,3.69,0,0,0,2.66.56,2.38,2.38,0,0,1-.5.4l1.11-.64.07,0,.16-.11a1.81,1.81,0,0,0,.21-.18l.12-.12,0,0,.11-.13a2.85,2.85,0,0,0,.38-.69,2.09,2.09,0,0,0,.08-.23.23.23,0,0,0,0-.11.84.84,0,0,0,.05-.2,4.68,4.68,0,0,0,.13-1.16,10.25,10.25,0,0,0-4.63-8,4.14,4.14,0,0,0-2.08-.64h0l-.29,0-.27.05-.16,0-.09,0-.19.08,0,0-.18.09-1,.55a2.13,2.13,0,0,1,.5-.18A3.7,3.7,0,0,0,369.1,364.59Zm7.64,8.49.08,0Z" style="fill:#F43F5E"></path><path d="M249.23,431.6,255.76,443l1.11-.64,119-68.75a2.38,2.38,0,0,0,.5-.4,3.67,3.67,0,0,0,.86-2.6,10.25,10.25,0,0,0-4.64-8,4.19,4.19,0,0,0-2.07-.63,2.81,2.81,0,0,0-.59.06,2.13,2.13,0,0,0-.5.18l-.08,0,0,0h0Z" style="fill:#f0f0f0"></path><path d="M252.5,431.93c-2.56-1.48-4.63-.28-4.63,2.67a10.24,10.24,0,0,0,4.63,8c2.56,1.48,4.64.28,4.64-2.68A10.23,10.23,0,0,0,252.5,431.93Z" style="fill:#F43F5E"></path><path d="M318.3,396.61s0,0,0,0l.15-.09a1.23,1.23,0,0,1,1.08.16,3.66,3.66,0,0,1,1.65,2.85,1.23,1.23,0,0,1-.39,1h0l-.2.12-70.44,40.66-4.63-2.68Z" style="fill:#455a64"></path><path d="M256.72,437.51l-6.54,3.78-4.63-2.68,8.86-5.11A11.19,11.19,0,0,1,256.72,437.51Z" style="fill:#37474f"></path><path d="M240.21,441.9h0l5.37-5.9.14-.16a2.1,2.1,0,0,1,2.65,0,7.24,7.24,0,0,1,3.27,5.67,2.16,2.16,0,0,1-1.25,2.26h0l-.21.05-7.87,1.71h0a1.23,1.23,0,0,1-.85-.18,3.31,3.31,0,0,1-1.49-2.59A1.18,1.18,0,0,1,240.21,441.9Z" style="fill:#F43F5E"></path><path d="M240.21,441.9h0l5.37-5.9.14-.16a2.1,2.1,0,0,1,2.65,0,7.24,7.24,0,0,1,3.27,5.67,2.16,2.16,0,0,1-1.25,2.26h0l-.21.05-7.87,1.71h0a1.23,1.23,0,0,1-.85-.18,3.31,3.31,0,0,1-1.49-2.59A1.18,1.18,0,0,1,240.21,441.9Z" style="opacity:0.1"></path><path d="M239.91,442.76a3.29,3.29,0,0,0,1.5,2.58,1.2,1.2,0,0,0,.84.18h0l4-.86c.62-.14,1-.73,1-1.67a5.28,5.28,0,0,0-2.38-4.14,1.54,1.54,0,0,0-1.91,0l-.11.12-2.66,2.92h0A1.15,1.15,0,0,0,239.91,442.76Z" style="fill:#F43F5E"></path><path d="M241.4,441.89c-.82-.47-1.49-.09-1.49.86a3.31,3.31,0,0,0,1.49,2.59c.83.47,1.49.09,1.49-.86A3.3,3.3,0,0,0,241.4,441.89Z" style="opacity:0.1"></path><path d="M359.45,372.82a1.13,1.13,0,0,1,1.16.11,3.61,3.61,0,0,1,1.64,2.84,1.14,1.14,0,0,1-.49,1.07h0l-40.94,23.67a1.23,1.23,0,0,0,.39-1,3.66,3.66,0,0,0-1.65-2.85,1.23,1.23,0,0,0-1.08-.16Z" style="fill:#fafafa"></path><path d="M359,373.88a3.66,3.66,0,0,0,1.64,2.84,1.14,1.14,0,0,0,1.15.11,1.13,1.13,0,0,0,.49-1.06,3.61,3.61,0,0,0-1.64-2.84,1,1,0,0,0-1.64.95Z" style="fill:#f5f5f5"></path><path d="M362.64,366.86h0l.06,0,.07,0,6.84-4,.16-.09,0,0h0a3,3,0,0,1,2.82.35,9.21,9.21,0,0,1,4.17,7.23,2.92,2.92,0,0,1-1.23,2.7h0l-6.92,4,0,0,0,0h0a3,3,0,0,1-2.89-.32,9.24,9.24,0,0,1-4.17-7.23A3,3,0,0,1,362.64,366.86Z" style="fill:#F43F5E"></path><path d="M362.64,366.86h0l.06,0,.07,0,6.84-4,.16-.09,0,0h0a3,3,0,0,1,2.82.35,9.21,9.21,0,0,1,4.17,7.23,2.92,2.92,0,0,1-1.23,2.7h0l-6.92,4,0,0,0,0h0a3,3,0,0,1-2.89-.32,9.24,9.24,0,0,1-4.17-7.23A3,3,0,0,1,362.64,366.86Z" style="opacity:0.05"></path><path d="M365.67,367.1c-2.3-1.33-4.17-.26-4.17,2.4a9.24,9.24,0,0,0,4.17,7.23c2.3,1.33,4.17.25,4.17-2.41A9.22,9.22,0,0,0,365.67,367.1Z" style="opacity:0.1"></path><path d="M238,444.39h0l2.83-1.7h0a.53.53,0,0,1,.55,0,1.72,1.72,0,0,1,.77,1.33.53.53,0,0,1-.23.49h0l-2.82,1.71h0a1.11,1.11,0,0,1-.52.13,1.08,1.08,0,0,1-.58-2Z" style="fill:#455a64"></path><path d="M237.85,444.52h0l.15-.12h0a.54.54,0,0,1,.49.08,1.7,1.7,0,0,1,.77,1.33.52.52,0,0,1-.22.48l-.06,0-.05,0a.83.83,0,0,1-.35.06,1.09,1.09,0,0,1-1.09-1.09A1,1,0,0,1,237.85,444.52Z" style="fill:#263238"></path></g></g></g><g id="freepik--Pencil--inject-441"><g id="freepik--pencil--inject-441"><path d="M419.59,367.56,438,364a.57.57,0,0,1,.54.94L426,379Z" style="fill:#ffa8a7"></path><path d="M438.51,364.89A.57.57,0,0,0,438,364l-3.59.71h0a3.12,3.12,0,0,1,1.48,2.93l0,.32Z" style="fill:#263238"></path><path d="M335.69,430.75l1.5-.86,1.82-1L426,379a8.34,8.34,0,0,0-.51-6.1c-1.3-2.92-3.83-5.22-5.93-5.36l-87,49.82-3.47,2C331.46,418.21,338,429.55,335.69,430.75Z" style="fill:#455a64"></path><path d="M341.42,427.48l3.36-1.93c1-.53.42-3-.74-5.48-1.53-3.34-4.55-6.58-5.86-5.89l-2.48,1.42-.87.53c1.31-.7,4.33,2.54,5.86,5.89,1.11,2.41,1.67,4.76.83,5.39h0A.15.15,0,0,1,341.42,427.48Z" style="fill:#ebebeb"></path><path d="M342.26,427c2.3-1.22-4.3-12.58-6.6-11.36l-3.36,1.93c2.3-1.22,8.9,10.14,6.59,11.36Z" style="fill:#F43F5E"></path><path d="M335.69,430.75l3.32-1.9c2.27-1.18-4-12.2-6.4-11.47l-.14.05-3.33,1.94C331.46,418.21,338,429.55,335.69,430.75Z" style="fill:#ebebeb"></path><path d="M438.59,364.27,438,364l-13.34,7.3-90.77,52c-.13-.2-.24-.22-.32-.08,2,3.06,3.44,6.91,2.15,7.58l1.5-.86,1.82-1L426,379h0l12.47-14.12A.57.57,0,0,0,438.59,364.27Z" style="opacity:0.15"></path><path d="M321.6,438.81l14.09-8.06c1-.51.44-2.92-.7-5.43-1.52-3.35-4.53-6.62-5.85-5.95h0L315,427.47c-2.81,1.62-.23,7.72,2.9,10.44C319.06,438.94,320.36,439.39,321.6,438.81Z" style="fill:#f28f8f"></path><path d="M322.44,434.44c-.81-3.17-3.38-6.29-5.75-6.95a2.27,2.27,0,0,0-2.11.28c-2.12,2,.35,7.56,3.31,10.14a3.37,3.37,0,0,0,3.63.93C322.58,438.22,323,436.6,322.44,434.44Z" style="opacity:0.1"></path></g></g><g id="freepik--speech-bubble--inject-441"><g id="freepik--speech-bubble--inject-441"><g id="freepik--speech-bubble--inject-441"><path id="freepik--speech-bubble--inject-441" d="M262.64,94.69l15.15-7.92s9.61,2.46,25.67,1.51c23.75-1.41,37.61-11.44,34.08-25.52-3.62-14.43-19.5-20.1-47.81-19-35.41,1.38-44,25.39-22.86,39.58Z" style="fill:#F43F5E"></path><path id="freepik--speech-bubble--inject-441" d="M262.64,94.69l15.15-7.92s9.61,2.46,25.67,1.51c23.75-1.41,37.61-11.44,34.08-25.52-3.62-14.43-19.5-20.1-47.81-19-35.41,1.38-44,25.39-22.86,39.58Z" style="fill:#fff;opacity:0.7000000000000001"></path></g><circle cx="278.88" cy="66.54" r="3.78" style="fill:#fff"></circle><circle cx="296.64" cy="66.54" r="3.78" style="fill:#fff"></circle><circle cx="314.4" cy="66.54" r="3.78" style="fill:#fff"></circle></g></g></svg>
